<svg id="Layer_35" enable-background="new 0 0 64 64" height="512" viewBox="0 0 64 64" width="512" xmlns="http://www.w3.org/2000/svg"><path d="m14 10h48v30h-48z" fill="#e6e9ed"/><path d="m19 41v18c0 .83-.34 1.58-.88 2.12s-1.29.88-2.12.88c-1.66 0-3-1.34-3-3v-18z" fill="#838f9b"/><path d="m13 41v18c0 1.66-1.34 3-3 3-.83 0-1.58-.34-2.12-.88s-.88-1.29-.88-2.12v-15-3z" fill="#838f9b"/><path d="m36 18.73c0 .79-.4 1.53-1.07 1.96l-13.19 8.54c-1.71 1.1-2.74 3-2.74 5.03v5.74 1h-6-6v3h-2c-1.66 0-3-1.34-3-3v-7c0-5.44 4.34-9.86 9.75-9.99l-.75 8.99 2 2 2-2-.75-9h4.05c1.11 0 2.2-.31 3.15-.89l10.99-6.76c.36-.23.79-.35 1.22-.35 1.29 0 2.34 1.05 2.34 2.34z" fill="#b4dd7f"/><path d="m14.25 24 .75 9-2 2-2-2 .75-8.99v-.01h.25 1z" fill="#e6e9ed"/><path d="m19 18c0 3.31-2.69 6-6 6s-6-2.69-6-6 2.69-6 6-6c.34 0 .68.03 1 .09 2.84.47 5 2.94 5 5.91z" fill="#f0d0b4"/><path d="m14 2h48v8h-48z" fill="#ff826e"/><path d="m54 40v16c0 1.1-.9 2-2 2h-24c-1.1 0-2-.9-2-2v-16-2c0-1.1.9-2 2-2h24c1.1 0 2 .9 2 2z" fill="#ffeaa7"/><g fill="#ff826e"><path d="m30 44h4v10h-4z"/><path d="m38 46h4v8h-4z"/><path d="m46 40h4v14h-4z"/></g><path d="m56 14c1.1 0 2 .9 2 2s-.9 2-2 2c-.24 0-.46-.04-.67-.12-.77-.27-1.33-1.02-1.33-1.88 0-1.1.9-2 2-2z" fill="#fcd770"/><path d="m51.67 28.12c.77.27 1.33 1.02 1.33 1.88 0 1.1-.9 2-2 2s-2-.9-2-2c0-.38.1-.73.29-1.03.35-.58.99-.97 1.71-.97.24 0 .46.04.67.12z" fill="#fcd770"/><path d="m41 22c1.1 0 2 .9 2 2 0 .38-.1.73-.29 1.03-.35.58-.99.97-1.71.97-1.1 0-2-.9-2-2 0-.61.28-1.17.72-1.53.35-.3.79-.47 1.28-.47z" fill="#fcd770"/><path d="m63 1h-50v10c-3.86 0-7 3.14-7 7 0 2.237 1.058 4.226 2.696 5.509-4.456 1.406-7.696 5.577-7.696 10.491v7c0 2.206 1.794 4 4 4h1v14c0 2.206 1.794 4 4 4 1.2 0 2.266-.542 3-1.382.734.84 1.8 1.382 3 1.382 2.206 0 4-1.794 4-4v-18h5v15c0 1.654 1.346 3 3 3h24c1.654 0 3-1.346 3-3v-15h8zm-2 2v6h-46v-6zm-53 15c0-2.757 2.243-5 5-5s5 2.243 5 5-2.243 5-5 5-5-2.243-5-5zm5.965 14.621-.965.965-.965-.965.635-7.621h.33.33zm-8.965 10.379c-1.103 0-2-.897-2-2v-7c0-4.504 3.329-8.235 7.654-8.888l-.689 8.267 3.035 3.035 3.035-3.035-.698-8.379h2.965c1.296 0 2.564-.359 3.668-1.039l10.99-6.763c.211-.13.454-.198.702-.198.737 0 1.338.601 1.338 1.338v.39c0 .456-.229.876-.611 1.124l-13.191 8.536c-2.003 1.295-3.198 3.492-3.198 5.876v5.736h-10v-8h-2v11zm5 18c-1.103 0-2-.897-2-2v-17h4v17c0 1.103-.897 2-2 2zm6 0c-1.103 0-2-.897-2-2v-17h4v17c0 1.103-.897 2-2 2zm37-5c0 .551-.449 1-1 1h-24c-.551 0-1-.449-1-1v-18c0-.551.449-1 1-1h24c.551 0 1 .449 1 1zm2-17v-1c0-1.654-1.346-3-3-3h-24c-1.654 0-3 1.346-3 3v1h-5v-4.736c0-1.703.854-3.272 2.284-4.198l13.191-8.535c.488-.315.871-.745 1.133-1.239l1.821 2.185c-.266.448-.429.965-.429 1.523 0 1.654 1.346 3 3 3 .723 0 1.379-.268 1.897-.695l5.163 3.098c-.039.193-.06.392-.06.597 0 1.654 1.346 3 3 3s3-1.346 3-3c0-.935-.439-1.762-1.112-2.312l3.103-8.689c.003 0 .006.001.009.001 1.654 0 3-1.346 3-3s-1.346-3-3-3-3 1.346-3 3c0 .935.439 1.762 1.112 2.312l-3.103 8.689c-.003 0-.006-.001-.009-.001-.723 0-1.379.268-1.897.695l-5.163-3.098c.039-.193.06-.392.06-.597 0-1.654-1.346-3-3-3-.365 0-.711.075-1.036.195l-3.087-3.704c-.377-1.429-1.669-2.491-3.215-2.491-.618 0-1.223.171-1.749.495l-10.99 6.763c-.789.486-1.695.742-2.621.742h-.412c1.3-1.272 2.11-3.042 2.11-5 0-3.165-2.112-5.842-5-6.705v-.295h46v28zm-14-16c.551 0 1 .449 1 1s-.449 1-1 1-1-.449-1-1 .449-1 1-1zm10 6c.551 0 1 .449 1 1s-.449 1-1 1-1-.449-1-1 .449-1 1-1zm4-13c0-.551.449-1 1-1s1 .449 1 1-.449 1-1 1-1-.449-1-1z"/><path d="m17 5h2v2h-2z"/><path d="m21 5h2v2h-2z"/><path d="m25 5h2v2h-2z"/><path d="m45 53h-2v-8h-6v8h-2v-10h-6v12h22v-16h-6zm-12 0h-2v-8h2zm6-6h2v6h-2zm8-6h2v12h-2z"/><path d="m57 35h2v2h-2z"/><path d="m57 31h2v2h-2z"/><path d="m57 27h2v2h-2z"/></svg>