<svg height="512pt" viewBox="0 0 512 512.00025" width="512pt" xmlns="http://www.w3.org/2000/svg"><path d="m256 380.210938v124.214843l-124.210938-62.613281v-123.707031zm0 0" fill="#64aef7"/><path d="m131.789062 193.894531v124.210938l-124.214843-62.105469v-124.210938zm0 0" fill="#64aef7"/><path d="m131.789062 318.105469v123.707031l-124.214843-62.609375v-123.203125zm0 0" fill="#6ec030"/><path d="m256 256v124.210938l-124.210938-62.105469v-124.210938zm0 0" fill="#ffd432"/><path d="m7.574219 338.808594v40.394531l124.214843 62.609375v-40.394531zm0 0" fill="#378900"/><path d="m219.140625 237.570312v124.210938l36.859375 18.429688v-124.210938zm0 0" fill="#f4ac03"/><path d="m189.851562 430.6875-58.0625-29.269531v40.394531l124.210938 62.613281v-124.214843l-36.859375-18.429688v50.871094c0 15.042968-15.855469 24.804687-29.289063 18.035156zm0 0" fill="#0a86e3"/><path d="m504.425781 131.789062v124.210938l-124.214843 62.105469v-124.210938zm0 0" fill="#378900"/><path d="m380.210938 318.105469v123.707031l-124.210938 62.613281v-124.214843zm0 0" fill="#f4ac03"/><path d="m504.425781 256v123.203125l-124.214843 62.609375v-123.707031zm0 0" fill="#d33131"/><path d="m380.210938 193.894531v124.210938l-124.210938 62.105469v-124.210938zm0 0" fill="#d33131"/><path d="m380.210938 193.894531-124.210938 62.105469-124.210938-62.105469 124.210938-62.105469zm0 0" fill="#64aef7"/><path d="m504.425781 131.789062-124.214843 62.105469-124.210938-62.105469 124.210938-62.109374zm0 0" fill="#ef3535"/><path d="m380.210938 69.679688-124.210938 62.109374-124.210938-62.109374 124.210938-62.105469zm0 0" fill="#ffd432"/><path d="m256 131.789062-124.210938 62.105469-124.214843-62.105469 124.214843-62.109374zm0 0" fill="#6ec030"/><path d="m314.570312 193.894531-91.390624 45.695313 32.820312 16.410156 124.210938-62.105469-32.820313-16.410156zm0 0" fill="#0a86e3"/><path d="m380.210938 69.679688-32.820313 16.410156 73.328125 36.664062c7.441406 3.722656 7.441406 14.34375 0 18.066406l-73.328125 36.664063 32.820313 16.410156 124.210937-62.105469zm0 0" fill="#d33131"/><path d="m347.390625 86.089844 32.820313-16.410156-124.210938-62.105469-32.820312 16.410156zm0 0" fill="#f4ac03"/><path d="m504.425781 177.734375c4.179688 0 7.574219-3.390625 7.574219-7.574219v-38.375c0-.027344-.007812-.054687-.007812-.082031-.007813-.589844-.082032-1.175781-.222657-1.742187-.019531-.085938-.046875-.171876-.074219-.257813-.054687-.199219-.121093-.394531-.191406-.585937-.035156-.085938-.066406-.171876-.101562-.257813-.097656-.234375-.207032-.46875-.328125-.691406-.015625-.027344-.027344-.054688-.042969-.082031-.140625-.253907-.300781-.5-.472656-.734376-.039063-.054687-.082032-.109374-.125-.164062-.136719-.179688-.285156-.355469-.441406-.523438-.054688-.0625-.105469-.117187-.164063-.175781-.167969-.171875-.34375-.335937-.53125-.492187-.042969-.035156-.082031-.074219-.128906-.109375-.230469-.1875-.472657-.359375-.730469-.519531-.011719-.007813-.019531-.015626-.03125-.023438-.042969-.027344-.09375-.046875-.136719-.074219-.152343-.085937-.300781-.175781-.457031-.257812l-248.425781-124.210938c-2.132813-1.066406-4.644531-1.066406-6.773438 0l-248.425781 124.210938c-.160156.082031-.304688.171875-.457031.257812-.042969.027344-.09375.046875-.136719.074219-.011719.007812-.023438.015625-.03125.023438-.257812.160156-.5.332031-.730469.519531-.046875.035156-.085937.074219-.128906.109375-.1875.15625-.363281.320312-.53125.492187-.058594.058594-.113281.117188-.164063.175781-.15625.167969-.304687.34375-.441406.523438-.042968.054688-.085937.109375-.125.164062-.171875.234376-.332031.480469-.472656.734376-.015625.027343-.027344.054687-.042969.082031-.121093.222656-.230469.457031-.328125.691406-.039062.082031-.070312.171875-.101562.257813-.070313.191406-.136719.386718-.195313.585937-.023437.085937-.050781.171875-.070312.257813-.1445315.566406-.2187502 1.152343-.2226565 1.742187 0 .027344-.0078125.054687-.0078125.082031v149.460938c0 4.183594 3.390625 7.574218 7.574219 7.574218 4.183593 0 7.574219-3.390624 7.574219-7.574218v-12.992188l109.066406 54.53125v106.726563l-109.066406-54.972657v-57.949218c0-4.179688-3.390626-7.574219-7.574219-7.574219-4.183594 0-7.574219 3.394531-7.574219 7.574219v62.613281c0 2.859375 1.609375 5.476563 4.164062 6.761719l248.425782 125.222656c.070312.035156.144531.058594.214844.09375.117187.054688.238281.105469.359374.152344.195313.082031.390626.152344.589844.210937.109375.035157.214844.070313.324219.097657.238281.0625.476563.109374.71875.148437.074219.011719.148437.03125.222656.039063.324219.042968.648438.070312.972657.070312.050781 0 .101562-.007812.152343-.007812.269531-.007813.535157-.023438.800781-.058594.113282-.011719.230469-.039063.34375-.058594.203126-.035156.402344-.074219.605469-.125.121094-.03125.242188-.070312.367188-.109375.183593-.058594.367187-.121094.546875-.195313.128906-.050781.25-.101562.371094-.160156.078124-.035156.152343-.058594.226562-.097656l248.425781-125.222656c2.554688-1.285156 4.164063-3.902344 4.164063-6.761719v-173.695313c0-4.183593-3.390625-7.574218-7.574219-7.574218s-7.574219 3.390625-7.574219 7.574218v45.808594l-109.0625 54.535156v-107.277343l109.0625-54.53125v26.117187c.003906 4.183594 3.390625 7.574219 7.578125 7.574219zm-372.640625-99.585937 107.277344 53.636718-107.277344 53.640625-107.273437-53.636719zm116.640625 289.808593-109.066406-54.53125v-107.277343l109.066406 54.53125zm7.574219-120.425781-107.277344-53.636719 107.277344-53.640625 107.277344 53.640625zm124.210938-62.105469-107.277344-53.636719 107.277344-53.640624 107.277343 53.640624zm-124.210938-169.382812 107.277344 53.636719-107.277344 53.640624-107.277344-53.640624zm-240.851562 235.273437v-107.273437l109.066406 54.53125v107.277343zm124.210937 79.042969 109.066406 54.53125v107.234375l-109.066406-54.976562zm124.214844 54.535156 109.0625-54.535156v106.789063l-109.0625 54.976562zm233.277343-116.640625v106.285156l-109.066406 54.972657v-106.726563zm-124.214843 45.171875-109.066407 54.53125v-107.277343l109.066407-54.53125zm0 0"/></svg>