<svg viewBox="0 0 464 464.23051" xmlns="http://www.w3.org/2000/svg"><path d="m438.578125 207.367188c-7.441406-11.75-6.527344-26.941407 2.265625-37.710938 36.289062-44.484375 29.648438-109.964844-14.835938-146.253906-44.484374-36.289063-109.964843-29.648438-146.253906 14.835937-15.964844 20.292969-42.386718 29.277344-67.414062 22.921875-54.035156-14.992187-111.726563 4.738282-145.261719 49.675782-33.539063 44.941406-36.03125 105.863281-6.28125 153.394531h49.597656c22.339844-.007813 44.527344-3.613281 65.722657-10.671875l88-29.328125v48h8c13.253906 0 24 10.746093 24 24v32c0 13.253906-10.746094 24-24 24h-8v48l-88-29.328125c-11.085938-3.671875-22.460938-6.40625-34-8.175782 24.90625 57.894532 80.152343 96.953126 143.039062 101.132813 62.890625 4.179687 122.816406-27.226563 155.164062-81.320313 32.351563-54.089843 31.667969-121.746093-1.765624-175.171874zm0 0" fill="#a0dce8"/><path d="m200.117188 216.230469c8.835937 0 16-7.164063 16-16v-40c0-8.835938-7.164063-16-16-16h-8c-8.839844 0-16-7.164063-16-16v-24c0-8.835938-7.164063-16-16-16-8.839844 0-16 7.164062-16 16v24c0 8.835937-7.164063 16-16 16h-8v72zm0 0" fill="#fff5e0"/><path d="m272.117188 352.230469c13.253906 0 24-10.746094 24-24v-32c0-13.253907-10.746094-24-24-24h-8v80zm0 0" fill="#ffb41f"/><path d="m360.117188 168.230469c35.34375 0 64-28.652344 64-64 0-35.347657-28.65625-64-64-64-35.347657 0-64 28.652343-64 64 0 35.347656 28.652343 64 64 64zm0 0" fill="#fff5e0"/><path d="m344.117188 72.230469v64l48-32zm0 0" fill="#1cc8eb"/><path d="m120.117188 216.230469v-80h-32v88h32zm0 0" fill="#1cc8eb"/><path d="m403.828125 282.917969-13.089844 8.71875-13.078125-8.71875c-6.347656-4.230469-14.800781-3.394531-20.191406 2l-3.410156 3.410156c-6.25 6.246094-6.25 16.382813 0 22.628906l36.679687 36.679688 36.6875-36.679688c6.253907-6.246093 6.253907-16.382812 0-22.628906l-3.40625-3.410156c-5.394531-5.394531-13.84375-6.230469-20.191406-2zm0 0" fill="#e32210"/><path d="m48.117188 360.230469 9.316406 96c0 4.417969 3.582031 8 8 8h46.683594c2.332031 0 4.546874-1.019531 6.066406-2.792969 1.519531-1.769531 2.191406-4.117188 1.835937-6.421875l-23.902343-94.785156zm0 0" fill="#8c8c8c"/><path d="m48.117188 360.230469v-96c-26.511719 0-48 21.492187-48 48 0 26.507812 21.488281 48 48 48zm0 0" fill="#8c8c8c"/><path d="m80.117188 360.230469v-96h-32v96zm0 0" fill="#ffb41f"/><path d="m176.117188 253.558594c-21.203126 7.0625-43.40625 10.667968-65.753907 10.671875h-30.246093v96h30.246093c22.34375.074219 44.53125 3.675781 65.753907 10.671875l88 29.328125v-176zm0 0" fill="#d9d9d9"/><path d="m104.1875 392.230469-8.070312-32h-48zm0 0" fill="#7a7a7a"/><path d="m360.117188 160.230469c-33.765626-.039063-61.691407-26.300781-63.800782-60-.082031 1.328125-.199218 2.648437-.199218 4 0 35.347656 28.652343 64 64 64 35.34375 0 64-28.652344 64-64 0-1.351563-.121094-2.671875-.203126-4-2.109374 33.699219-30.035156 59.960937-63.796874 60zm0 0" fill="#e6e6e6"/><path d="m120.117188 216.230469h80c8.835937 0 16-7.164063 16-16v-24c-9.824219 19.644531-29.816407 32.136719-51.777344 32.359375l-44.222656.441406zm0 0" fill="#e6e6e6"/><path d="m88.117188 208.230469h32v16h-32zm0 0" fill="#1bc1e3"/><path d="m390.738281 347.636719 36.6875-36.679688c6.253907-6.246093 6.253907-16.382812 0-22.628906l-3.40625-3.410156c-4.730469-4.699219-11.875-5.972657-17.9375-3.199219 1.738281.777344 3.324219 1.863281 4.679688 3.199219l3.410156 3.410156c8.167969 8.167969 3.136719 19.199219-2.359375 27.253906-3.402344 4.960938-6.648438 10.039063-9.96875 15.066407-3.164062 5.996093-6.882812 11.683593-11.105469 16.988281zm0 0" fill="#c91e0e"/><g fill="#ffb41f"><path d="m298.296875 230.53125 4.121094-16.472656c1.074219-4.289063 5.417969-6.894532 9.699219-5.820313 4.285156 1.070313 6.886718 5.414063 5.816406 9.699219l-4.125 16.476562c-1.070313 4.289063-5.414063 6.894532-9.699219 5.820313-4.28125-1.070313-6.886719-5.414063-5.8125-9.703125zm0 0"/><path d="m323.699219 245.496094 17.6875-8.84375c3.949219-1.976563 8.757812-.375 10.730469 3.578125 1.976562 3.953125.375 8.757812-3.578126 10.734375l-17.6875 8.84375c-3.949218 1.976562-8.757812.375-10.730468-3.578125-1.976563-3.953125-.375-8.757813 3.578125-10.734375zm0 0"/><path d="m304.109375 392.234375c4.28125-1.070313 8.625 1.535156 9.695313 5.820313l4.121093 16.476562c1.070313 4.289062-1.535156 8.628906-5.816406 9.703125-4.285156 1.070313-8.628906-1.539063-9.699219-5.824219l-4.121094-16.476562c-1.070312-4.285156 1.535157-8.628906 5.820313-9.699219zm0 0"/><path d="m320.117188 376.226562c1.976562-3.949218 6.78125-5.550781 10.734374-3.578124l17.6875 8.84375c3.953126 1.976562 5.554688 6.78125 3.578126 10.734374-1.976563 3.953126-6.78125 5.554688-10.734376 3.578126l-17.6875-8.84375c-3.949218-1.976563-5.550781-6.78125-3.578124-10.734376zm0 0"/></g><path d="m16.117188 208.230469h-16c0-118.398438 70.503906-192 184-192v16c-103.625 0-168 67.441406-168 176zm0 0" fill="#1cc8eb"/><path d="m112.117188 320.230469h16c4.417968 0 8 3.582031 8 8s-3.582032 8-8 8h-16c-4.421876 0-8-3.582031-8-8s3.578124-8 8-8zm0 0" fill="#8c8c8c"/><path d="m112.117188 288.230469h16c4.417968 0 8 3.582031 8 8s-3.582032 8-8 8h-16c-4.421876 0-8-3.582031-8-8s3.578124-8 8-8zm0 0" fill="#8c8c8c"/><path d="m264.117188 272.230469h8v80h-8zm0 0" fill="#de9a10"/></svg>