<?xml version="1.0" encoding="UTF-8" ?>
<!DOCTYPE svg PUBLIC "-//W3C//DTD SVG 1.1//EN" "http://www.w3.org/Graphics/SVG/1.1/DTD/svg11.dtd">
<svg width="598pt" height="693pt" viewBox="0 0 598 693" version="1.1" xmlns="http://www.w3.org/2000/svg">
<g id="#0024344d">
<path fill="#002434" opacity="0.30" d=" M 213.47 4.79 C 221.14 3.30 228.70 -0.89 236.66 1.77 C 233.85 2.63 231.05 3.53 228.16 4.11 C 178.44 11.62 132.17 37.34 97.85 73.84 C 47.91 127.23 21.37 201.12 24.06 274.01 C 25.53 318.92 38.31 363.68 62.02 401.97 C 71.96 418.76 84.34 434.08 98.84 447.16 C 135.21 479.19 179.71 500.49 225.45 515.57 C 276.33 531.72 329.88 540.48 383.33 538.25 C 423.86 536.71 465.26 528.51 500.40 507.40 C 543.72 481.95 575.37 438.49 588.01 390.01 C 591.47 380.00 591.49 369.20 595.20 359.28 C 595.75 362.45 596.55 365.75 595.62 368.94 C 592.50 379.47 590.17 390.23 586.79 400.69 C 574.35 438.20 551.38 472.80 519.43 496.43 C 487.54 521.56 447.40 534.40 407.43 538.36 C 379.48 542.40 350.97 541.86 323.02 537.98 C 316.14 537.04 309.06 537.67 302.31 535.74 C 293.24 533.03 283.55 533.75 274.59 530.56 C 235.01 522.29 196.38 508.98 160.34 490.61 C 129.96 474.58 100.64 455.13 78.62 428.39 C 46.79 389.19 27.74 340.14 23.00 290.04 C 22.95 272.68 22.93 255.32 23.01 237.96 C 30.33 160.14 70.68 84.44 135.38 39.42 C 158.87 23.01 185.62 11.42 213.47 4.79 Z" />
<path fill="#002434" opacity="0.30" d=" M 281.24 1.78 C 285.59 0.49 290.12 0.91 294.29 2.60 C 324.53 9.53 355.85 16.00 382.71 32.29 C 386.94 35.31 391.70 38.06 394.55 42.54 C 396.62 47.17 394.49 52.43 395.85 57.21 C 397.25 60.58 400.49 62.64 403.44 64.54 C 426.80 78.45 453.11 85.98 478.30 95.76 C 485.11 98.41 491.37 102.33 497.05 106.91 C 547.81 146.60 579.97 206.61 593.02 269.05 C 594.45 275.85 597.61 282.64 595.26 289.68 C 591.84 280.72 592.05 270.94 589.38 261.78 C 575.86 202.68 544.56 146.28 496.51 108.46 C 483.25 97.50 466.18 93.54 450.47 87.47 C 434.33 81.64 418.21 75.37 403.42 66.57 C 400.06 64.43 396.40 62.17 394.58 58.49 C 392.58 53.42 394.73 47.60 392.42 42.62 C 389.61 38.36 384.96 35.85 380.75 33.18 C 357.07 19.28 330.04 12.65 303.50 6.60 C 296.08 4.97 288.32 4.78 281.24 1.78 Z" />
</g>
<g id="#005378af">
<path fill="#005378" opacity="0.69" d=" M 236.66 1.77 C 240.88 0.37 245.39 0.94 249.67 1.73 C 241.72 5.42 232.95 5.81 224.37 6.59 C 179.86 14.36 138.16 36.34 105.98 67.98 C 66.80 106.20 41.34 157.31 30.92 210.81 C 26.54 239.16 22.60 268.25 28.12 296.77 C 31.06 328.19 40.91 358.77 55.24 386.81 C 66.91 408.41 80.89 429.24 99.49 445.51 C 138.33 480.02 186.75 501.66 235.98 516.86 C 265.12 525.43 295.01 531.40 325.19 534.70 C 345.63 535.53 366.10 536.83 386.55 535.61 C 415.77 535.45 444.90 529.50 472.23 519.27 C 518.55 501.30 557.00 464.09 576.25 418.26 C 583.92 399.82 589.72 380.37 591.51 360.41 C 592.04 355.87 593.78 351.62 595.33 347.36 C 595.99 351.28 596.65 355.44 595.20 359.28 C 591.49 369.20 591.47 380.00 588.01 390.01 C 575.37 438.49 543.72 481.95 500.40 507.40 C 465.26 528.51 423.86 536.71 383.33 538.25 C 329.88 540.48 276.33 531.72 225.45 515.57 C 179.71 500.49 135.21 479.19 98.84 447.16 C 84.34 434.08 71.96 418.76 62.02 401.97 C 38.31 363.68 25.53 318.92 24.06 274.01 C 21.37 201.12 47.91 127.23 97.85 73.84 C 132.17 37.34 178.44 11.62 228.16 4.11 C 231.05 3.53 233.85 2.63 236.66 1.77 Z" />
</g>
<g id="#0079afff">
<path fill="#0079af" opacity="1.00" d=" M 249.67 1.73 C 256.12 0.67 262.91 0.63 269.36 1.68 C 277.19 5.34 285.81 5.86 294.26 6.80 C 318.56 11.51 342.77 17.56 365.58 27.34 C 373.80 31.06 382.14 35.00 388.95 41.03 C 393.28 44.74 391.48 50.98 392.32 55.94 C 392.47 60.55 396.22 63.79 399.73 66.22 C 420.62 79.47 444.26 87.28 467.42 95.52 C 494.10 103.68 514.19 124.60 531.65 145.37 C 562.06 182.42 581.44 227.83 590.14 274.79 C 591.36 284.16 591.47 293.82 595.31 302.64 C 596.39 317.42 596.35 332.58 595.33 347.36 C 593.78 351.62 592.04 355.87 591.51 360.41 C 589.72 380.37 583.92 399.82 576.25 418.26 C 557.00 464.09 518.55 501.30 472.23 519.27 C 444.90 529.50 415.77 535.45 386.55 535.61 C 366.10 536.83 345.63 535.53 325.19 534.70 C 295.01 531.40 265.12 525.43 235.98 516.86 C 186.75 501.66 138.33 480.02 99.49 445.51 C 80.89 429.24 66.91 408.41 55.24 386.81 C 40.91 358.77 31.06 328.19 28.12 296.77 C 22.60 268.25 26.54 239.16 30.92 210.81 C 41.34 157.31 66.80 106.20 105.98 67.98 C 138.16 36.34 179.86 14.36 224.37 6.59 C 232.95 5.81 241.72 5.42 249.67 1.73 M 203.38 50.40 C 169.95 55.65 137.78 70.68 114.08 95.10 C 86.29 123.51 69.42 161.44 63.20 200.43 C 59.03 215.24 60.22 230.80 59.22 246.00 C 60.16 261.02 59.03 276.36 62.79 291.05 C 70.11 336.19 88.25 381.20 121.26 413.73 C 133.42 426.19 148.73 434.88 163.92 443.08 C 201.76 462.08 242.72 473.95 283.88 483.14 C 305.83 486.57 327.61 491.78 349.94 492.17 C 371.97 494.63 394.32 496.63 416.39 493.52 C 428.44 491.44 440.90 492.46 452.69 488.86 C 470.75 485.40 488.60 479.80 504.62 470.62 C 517.82 463.19 527.84 451.11 534.83 437.84 C 544.58 419.22 550.75 398.69 552.76 377.78 C 555.78 360.41 556.03 342.44 553.00 325.04 C 550.59 298.26 538.84 273.36 525.72 250.26 C 509.46 221.76 489.87 195.31 468.84 170.18 C 449.09 147.67 428.72 125.51 405.43 106.58 C 392.95 96.33 379.68 86.76 364.84 80.22 C 326.16 63.56 284.57 55.03 242.94 50.24 C 229.77 49.76 216.52 49.33 203.38 50.40 M 464.77 127.74 C 465.34 135.67 471.53 141.25 475.25 147.80 C 499.00 183.78 530.34 214.66 549.39 253.71 C 553.61 261.56 555.35 270.66 561.02 277.72 C 566.94 270.80 563.34 260.83 561.13 253.05 C 559.03 242.75 554.39 233.28 550.14 223.74 C 531.61 187.13 504.66 154.91 472.26 129.78 C 470.15 128.07 467.33 128.04 464.77 127.74 Z" />
</g>
<g id="#004f73a8">
<path fill="#004f73" opacity="0.66" d=" M 269.36 1.68 C 273.26 1.01 277.42 0.29 281.24 1.78 C 288.32 4.78 296.08 4.97 303.50 6.60 C 330.04 12.65 357.07 19.28 380.75 33.18 C 384.96 35.85 389.61 38.36 392.42 42.62 C 394.73 47.60 392.58 53.42 394.58 58.49 C 396.40 62.17 400.06 64.43 403.42 66.57 C 418.21 75.37 434.33 81.64 450.47 87.47 C 466.18 93.54 483.25 97.50 496.51 108.46 C 544.56 146.28 575.86 202.68 589.38 261.78 C 592.05 270.94 591.84 280.72 595.26 289.68 C 596.73 293.87 596.04 298.38 595.31 302.64 C 591.47 293.82 591.36 284.16 590.14 274.79 C 581.44 227.83 562.06 182.42 531.65 145.37 C 514.19 124.60 494.10 103.68 467.42 95.52 C 444.26 87.28 420.62 79.47 399.73 66.22 C 396.22 63.79 392.47 60.55 392.32 55.94 C 391.48 50.98 393.28 44.74 388.95 41.03 C 382.14 35.00 373.80 31.06 365.58 27.34 C 342.77 17.56 318.56 11.51 294.26 6.80 C 285.81 5.86 277.19 5.34 269.36 1.68 Z" />
</g>
<g id="#005277ae">
<path fill="#005277" opacity="0.68" d=" M 203.38 50.40 C 216.52 49.33 229.77 49.76 242.94 50.24 C 284.57 55.03 326.16 63.56 364.84 80.22 C 379.68 86.76 392.95 96.33 405.43 106.58 C 428.72 125.51 449.09 147.67 468.84 170.18 C 489.87 195.31 509.46 221.76 525.72 250.26 C 538.84 273.36 550.59 298.26 553.00 325.04 C 556.03 342.44 555.78 360.41 552.76 377.78 C 550.75 398.69 544.58 419.22 534.83 437.84 C 527.84 451.11 517.82 463.19 504.62 470.62 C 488.60 479.80 470.75 485.40 452.69 488.86 C 440.90 492.46 428.44 491.44 416.39 493.52 C 394.32 496.63 371.97 494.63 349.94 492.17 C 327.61 491.78 305.83 486.57 283.88 483.14 C 242.72 473.95 201.76 462.08 163.92 443.08 C 148.73 434.88 133.42 426.19 121.26 413.73 C 88.25 381.20 70.11 336.19 62.79 291.05 C 59.03 276.36 60.16 261.02 59.22 246.00 C 60.22 230.80 59.03 215.24 63.20 200.43 C 69.42 161.44 86.29 123.51 114.08 95.10 C 137.78 70.68 169.95 55.65 203.38 50.40 M 219.50 51.53 C 187.92 52.59 156.35 62.84 131.28 82.29 C 106.95 100.30 89.50 126.25 78.04 154.00 C 56.21 209.29 56.12 271.95 73.48 328.46 C 85.60 367.38 107.31 405.11 141.80 428.20 C 174.38 449.14 211.33 462.09 248.44 472.46 C 292.96 484.44 338.87 491.58 385.00 492.36 C 416.93 492.72 449.30 489.98 479.74 479.80 C 495.44 473.98 511.80 466.96 522.50 453.50 C 537.38 435.20 544.58 412.18 549.33 389.43 C 553.23 364.59 553.55 339.14 549.71 314.27 C 543.77 285.27 529.42 258.92 514.01 233.96 C 493.29 201.80 469.36 171.72 442.94 144.07 C 436.78 136.90 429.94 130.38 422.86 124.13 C 403.68 106.37 383.19 88.90 358.37 79.65 C 314.28 62.07 266.91 52.75 219.50 51.53 Z" />
</g>
<g id="#0023334b">
<path fill="#002333" opacity="0.29" d=" M 219.50 51.53 C 266.91 52.75 314.28 62.07 358.37 79.65 C 383.19 88.90 403.68 106.37 422.86 124.13 C 429.94 130.38 436.78 136.90 442.94 144.07 C 469.36 171.72 493.29 201.80 514.01 233.96 C 529.42 258.92 543.77 285.27 549.71 314.27 C 553.55 339.14 553.23 364.59 549.33 389.43 C 544.58 412.18 537.38 435.20 522.50 453.50 C 511.80 466.96 495.44 473.98 479.74 479.80 C 449.30 489.98 416.93 492.72 385.00 492.36 C 338.87 491.58 292.96 484.44 248.44 472.46 C 211.33 462.09 174.38 449.14 141.80 428.20 C 107.31 405.11 85.60 367.38 73.48 328.46 C 56.12 271.95 56.21 209.29 78.04 154.00 C 89.50 126.25 106.95 100.30 131.28 82.29 C 156.35 62.84 187.92 52.59 219.50 51.53 M 219.45 53.60 C 211.95 54.27 204.49 55.26 196.98 55.89 C 158.35 61.90 123.02 84.65 100.48 116.46 C 79.84 145.55 68.30 180.62 65.09 215.95 C 62.26 232.67 61.47 249.76 63.60 266.61 C 64.96 275.40 66.33 284.19 66.82 293.08 C 74.53 334.61 90.01 376.36 119.57 407.43 C 136.20 425.32 158.26 436.61 180.14 446.74 C 216.24 462.64 254.49 473.15 293.07 480.81 C 303.08 481.59 312.59 485.44 322.70 485.35 C 332.65 485.32 342.09 489.05 352.00 489.26 C 372.34 490.01 392.70 489.98 413.05 489.67 C 420.93 489.37 428.94 489.70 436.61 487.57 C 445.41 485.06 454.80 485.73 463.45 482.54 C 478.75 478.92 493.67 473.33 507.11 465.10 C 518.58 457.93 526.59 446.48 532.62 434.60 C 541.49 417.27 546.04 398.14 548.98 379.01 C 550.11 352.55 551.93 325.38 544.18 299.67 C 532.96 264.59 512.59 233.38 491.28 203.68 C 471.15 177.13 449.38 151.74 425.40 128.58 C 409.37 114.08 393.04 99.47 374.12 88.80 C 342.58 73.19 308.08 64.31 273.54 58.54 C 262.95 55.69 251.88 56.13 241.05 55.06 C 233.84 54.78 226.68 53.30 219.45 53.60 Z" />
</g>
<g id="#00567cb6">
<path fill="#00567c" opacity="0.71" d=" M 464.77 127.74 C 467.33 128.04 470.15 128.07 472.26 129.78 C 504.66 154.91 531.61 187.13 550.14 223.74 C 554.39 233.28 559.03 242.75 561.13 253.05 C 563.34 260.83 566.94 270.80 561.02 277.72 C 555.35 270.66 553.61 261.56 549.39 253.71 C 530.34 214.66 499.00 183.78 475.25 147.80 C 471.53 141.25 465.34 135.67 464.77 127.74 M 467.80 129.91 C 468.58 135.33 471.80 139.82 474.87 144.17 C 499.35 182.00 532.22 214.21 552.01 255.07 C 554.97 261.32 556.69 268.24 561.16 273.68 C 561.78 271.83 562.63 269.99 562.70 268.01 C 556.63 231.72 536.72 199.38 513.49 171.48 C 502.69 158.01 489.81 146.45 476.73 135.26 C 474.09 132.96 471.02 131.25 467.80 129.91 Z" />
</g>
<g id="#0024344c">
<path fill="#002434" opacity="0.30" d=" M 467.80 129.91 C 471.02 131.25 474.09 132.96 476.73 135.26 C 489.81 146.45 502.69 158.01 513.49 171.48 C 536.72 199.38 556.63 231.72 562.70 268.01 C 562.63 269.99 561.78 271.83 561.16 273.68 C 556.69 268.24 554.97 261.32 552.01 255.07 C 532.22 214.21 499.35 182.00 474.87 144.17 C 471.80 139.82 468.58 135.33 467.80 129.91 M 471.90 134.76 C 472.96 140.05 476.69 144.05 479.68 148.32 C 501.38 181.01 529.09 209.48 548.17 243.94 C 552.20 251.21 554.74 259.31 559.75 266.03 C 558.97 258.86 557.60 251.73 555.03 244.96 C 539.81 202.07 510.32 165.41 475.60 136.57 C 474.42 135.86 473.15 135.32 471.90 134.76 Z" />
</g>
<g id="#797978ff">
<path fill="#797978" opacity="1.00" d=" M 201.05 217.29 C 206.06 218.89 206.85 224.41 207.04 228.94 C 207.95 247.18 206.27 265.41 206.99 283.66 C 208.42 283.07 209.86 282.51 211.30 281.96 C 209.85 286.86 206.88 292.12 200.97 291.68 C 197.90 283.47 198.44 274.60 198.04 266.01 C 198.09 252.99 198.15 239.96 198.54 226.95 C 198.54 223.56 199.63 220.32 201.05 217.29 Z" />
<path fill="#797978" opacity="1.00" d=" M 162.44 240.46 C 162.38 235.49 160.65 229.38 164.76 225.52 C 167.41 230.79 167.14 236.78 167.75 242.49 C 172.29 236.34 176.41 228.45 184.36 226.34 C 188.80 225.07 190.32 230.65 190.15 233.99 C 190.14 240.83 184.66 245.63 179.97 249.81 C 186.98 252.97 192.26 259.37 192.82 267.22 C 194.88 275.71 192.90 286.25 184.32 290.34 C 177.60 294.21 170.52 289.81 163.81 288.43 C 162.40 272.49 164.23 256.40 162.44 240.46 M 170.71 248.05 C 177.69 244.23 183.38 237.80 185.05 229.88 C 178.08 233.77 173.72 240.88 170.71 248.05 M 168.66 254.66 C 168.41 262.67 167.38 270.77 168.16 278.76 C 171.33 285.89 183.17 284.87 185.59 277.58 C 187.36 271.68 186.97 265.01 184.62 259.32 C 181.58 253.57 174.29 252.75 168.66 254.66 Z" />
<path fill="#797978" opacity="1.00" d=" M 361.92 241.10 C 362.74 241.05 364.40 240.95 365.23 240.90 C 368.91 251.01 367.29 261.95 368.94 272.40 C 372.85 261.64 376.57 250.06 384.89 241.83 C 389.23 238.51 392.01 244.55 391.63 248.26 C 391.58 260.63 389.63 273.01 391.41 285.37 C 392.77 289.81 383.90 292.24 383.35 287.63 C 380.28 273.64 384.40 259.53 385.62 245.59 C 374.19 258.32 371.45 275.91 368.11 292.05 C 366.74 291.99 365.37 291.93 364.01 291.87 C 358.63 275.71 358.99 257.72 361.92 241.10 Z" />
<path fill="#797978" opacity="1.00" d=" M 233.37 242.23 C 239.94 239.54 246.42 244.71 248.09 250.96 C 252.35 263.29 252.75 279.00 242.62 288.65 C 236.39 294.59 225.23 292.12 220.87 285.08 C 215.62 277.20 216.39 266.92 219.26 258.31 C 221.58 251.45 226.11 244.47 233.37 242.23 M 236.43 247.41 C 229.19 253.42 227.67 264.11 227.82 273.04 C 227.69 280.17 235.58 288.26 242.56 283.50 C 248.96 276.58 247.81 265.83 245.68 257.35 C 244.46 253.05 241.73 247.04 236.43 247.41 Z" />
<path fill="#797978" opacity="1.00" d=" M 287.35 242.26 C 288.01 242.17 289.33 242.00 289.99 241.91 C 294.88 257.83 294.45 274.78 293.42 291.22 C 292.57 302.45 286.11 315.38 274.00 317.40 C 260.64 318.80 251.70 302.03 257.80 290.92 C 259.08 288.10 262.37 289.41 264.74 289.53 C 263.59 294.84 261.40 301.78 266.01 306.07 C 271.40 310.25 278.76 305.29 280.80 299.76 C 285.14 289.14 284.79 277.36 286.02 266.12 C 281.86 271.33 276.29 276.74 269.03 276.00 C 263.69 276.11 259.22 270.42 261.18 265.28 C 264.52 254.96 275.08 248.83 285.32 247.14 C 286.00 245.51 286.67 243.88 287.35 242.26 M 270.58 264.64 C 269.92 266.24 268.33 268.55 270.15 269.93 C 279.15 268.28 284.87 259.30 286.26 250.78 C 280.09 254.08 274.25 258.60 270.58 264.64 Z" />
<path fill="#797978" opacity="1.00" d=" M 332.35 242.27 C 333.01 242.18 334.33 241.99 334.99 241.90 C 339.88 257.83 339.45 274.77 338.42 291.21 C 337.56 302.44 331.12 315.38 319.00 317.40 C 305.64 318.81 296.70 302.03 302.80 290.91 C 304.08 288.09 307.37 289.41 309.74 289.53 C 308.59 294.84 306.39 301.78 311.01 306.07 C 316.40 310.24 323.76 305.30 325.80 299.76 C 330.14 289.14 329.79 277.36 331.02 266.11 C 327.00 271.05 321.89 276.30 314.98 276.03 C 309.33 276.64 304.06 270.82 306.18 265.28 C 309.52 254.96 320.08 248.83 330.32 247.14 C 331.00 245.51 331.67 243.89 332.35 242.27 M 315.58 264.64 C 314.96 266.24 313.24 268.59 315.17 269.91 C 324.16 268.30 329.87 259.27 331.25 250.78 C 325.09 254.08 319.25 258.59 315.58 264.64 Z" />
<path fill="#797978" opacity="1.00" d=" M 347.76 241.70 C 352.75 241.54 353.57 246.07 348.79 247.50 C 348.41 245.57 348.06 243.63 347.76 241.70 Z" />
<path fill="#797978" opacity="1.00" d=" M 429.35 242.26 C 430.01 242.17 431.33 242.00 431.99 241.91 C 436.88 257.84 436.45 274.77 435.42 291.21 C 434.56 302.44 428.12 315.38 416.00 317.40 C 402.64 318.80 393.69 302.04 399.80 290.92 C 401.08 288.10 404.37 289.40 406.74 289.53 C 405.59 294.85 403.40 301.78 408.01 306.06 C 413.40 310.25 420.76 305.29 422.80 299.76 C 427.14 289.14 426.79 277.36 428.02 266.12 C 423.99 271.05 418.89 276.31 411.98 276.03 C 406.33 276.64 401.06 270.82 403.18 265.28 C 406.52 254.96 417.08 248.83 427.32 247.14 C 428.00 245.51 428.67 243.89 429.35 242.26 M 412.58 264.64 C 411.96 266.24 410.25 268.59 412.17 269.90 C 421.17 268.30 426.87 259.27 428.25 250.78 C 422.09 254.08 416.25 258.59 412.58 264.64 Z" />
<path fill="#797978" opacity="1.00" d=" M 347.11 249.51 C 353.19 250.24 352.79 257.34 353.01 261.94 C 352.72 272.10 354.61 282.19 353.99 292.35 C 350.78 291.89 347.85 289.96 347.61 286.47 C 345.92 274.29 344.41 261.66 347.11 249.51 Z" />
</g>
<g id="#002e4362">
<path fill="#002e43" opacity="0.38" d=" M 161.45 533.34 C 162.94 530.25 166.70 530.16 169.66 529.96 C 169.96 534.43 169.92 539.02 168.25 543.25 C 162.54 559.16 152.34 572.90 142.30 586.31 C 133.53 597.93 126.49 610.86 116.68 621.68 C 94.43 647.74 64.18 667.47 30.74 675.47 C 37.79 681.07 51.92 677.99 53.12 689.60 C 44.01 691.78 35.59 686.52 26.80 685.03 C 19.05 681.86 9.56 683.71 2.83 678.19 C -0.13 676.08 1.33 671.68 4.16 670.21 C 11.58 665.40 19.73 661.86 27.30 657.30 C 30.20 655.36 33.69 654.94 37.10 655.14 C 37.18 660.47 32.43 663.54 29.23 667.07 C 69.94 657.36 103.99 629.15 126.80 594.76 C 138.12 579.37 148.22 563.12 157.56 546.46 C 159.93 542.44 159.84 537.62 161.45 533.34 M 162.89 537.67 C 161.04 544.54 157.46 550.69 153.81 556.74 C 139.01 581.30 123.30 605.60 103.31 626.31 C 86.18 643.69 65.39 657.77 42.05 665.27 C 36.05 666.96 29.82 670.94 23.51 668.16 C 27.21 664.80 31.24 661.73 34.14 657.61 C 28.12 658.56 23.11 662.22 17.75 664.84 C 12.33 667.87 6.07 670.23 2.62 675.73 C 10.04 681.30 19.74 679.94 28.13 682.79 C 34.99 684.98 41.95 687.59 49.27 687.24 C 45.05 677.63 31.11 684.28 26.34 674.84 C 56.95 667.23 85.91 651.70 107.78 628.78 C 118.95 617.98 127.46 604.88 135.95 591.98 C 148.82 573.73 165.23 555.90 167.73 532.74 C 165.34 533.52 163.35 535.07 162.89 537.67 Z" />
</g>
<g id="#006998de">
<path fill="#006998" opacity="0.87" d=" M 162.89 537.67 C 163.35 535.07 165.34 533.52 167.73 532.74 C 165.23 555.90 148.82 573.73 135.95 591.98 C 127.46 604.88 118.95 617.98 107.78 628.78 C 85.91 651.70 56.95 667.23 26.34 674.84 C 31.11 684.28 45.05 677.63 49.27 687.24 C 41.95 687.59 34.99 684.98 28.13 682.79 C 19.74 679.94 10.04 681.30 2.62 675.73 C 6.07 670.23 12.33 667.87 17.75 664.84 C 23.11 662.22 28.12 658.56 34.14 657.61 C 31.24 661.73 27.21 664.80 23.51 668.16 C 29.82 670.94 36.05 666.96 42.05 665.27 C 65.39 657.77 86.18 643.69 103.31 626.31 C 123.30 605.60 139.01 581.30 153.81 556.74 C 157.46 550.69 161.04 544.54 162.89 537.67 Z" />
</g>
</svg>
