<?xml version="1.0" encoding="UTF-8" ?>
<!DOCTYPE svg PUBLIC "-//W3C//DTD SVG 1.1//EN" "http://www.w3.org/Graphics/SVG/1.1/DTD/svg11.dtd">
<svg width="738pt" height="463pt" viewBox="0 0 738 463" version="1.1" xmlns="http://www.w3.org/2000/svg">
<g id="#0024344c">
<path fill="#002434" opacity="0.30" d=" M 184.72 31.67 C 219.45 6.73 263.83 -2.37 305.98 1.71 C 349.48 6.95 391.62 19.96 432.39 35.61 C 442.74 38.53 452.18 43.75 462.02 47.96 C 483.45 55.90 503.61 66.80 524.06 76.90 C 538.69 83.22 551.56 92.73 565.22 100.79 C 577.48 108.68 589.39 117.11 600.78 126.22 C 628.91 146.26 654.72 169.47 678.34 194.65 C 705.64 224.50 730.98 258.87 738.00 299.66 L 738.00 311.46 C 733.14 346.42 709.14 374.98 683.10 397.11 C 666.85 412.02 647.52 422.93 628.21 433.30 C 596.18 449.16 559.48 454.50 524.08 450.82 C 478.96 447.48 436.03 432.06 393.27 418.42 C 390.46 417.18 389.83 413.81 388.56 411.34 C 395.93 410.02 403.40 410.80 410.70 412.17 C 444.16 416.70 477.02 424.64 510.37 429.84 C 530.48 431.68 550.77 435.24 570.97 432.44 C 606.49 429.35 639.32 412.10 665.73 388.74 C 684.97 373.04 701.16 352.64 708.73 328.75 C 712.37 317.68 710.76 305.88 708.39 294.74 C 705.16 276.66 698.60 259.04 688.14 243.87 C 668.50 215.06 642.61 191.24 615.92 169.10 C 603.39 159.57 591.39 149.30 577.90 141.11 C 560.64 128.72 542.80 117.13 524.24 106.78 C 501.55 93.94 478.71 81.14 454.42 71.56 C 444.43 67.20 435.05 61.45 424.51 58.43 C 386.48 42.87 346.78 30.73 306.00 25.04 C 277.70 22.79 247.80 21.40 221.25 33.24 C 206.85 38.90 193.71 47.83 183.43 59.42 C 162.26 83.90 152.13 116.85 153.75 149.00 C 152.70 165.61 156.64 181.81 160.15 197.90 C 168.95 229.69 185.18 258.73 202.33 286.68 C 210.33 300.10 219.20 312.97 228.41 325.58 C 258.93 367.32 293.27 407.51 336.64 436.34 C 350.16 443.12 364.63 447.86 378.39 454.17 C 377.96 456.52 377.52 458.86 377.08 461.20 C 362.73 462.92 347.58 461.39 334.82 454.21 C 325.38 448.82 315.80 443.53 307.41 436.58 C 274.66 410.05 246.97 377.87 221.79 344.23 C 194.32 306.07 168.70 266.18 150.18 222.83 C 139.19 196.77 130.21 168.96 130.50 140.41 C 129.22 98.19 150.26 56.07 184.72 31.67 M 178.25 39.26 C 159.25 54.98 144.99 76.54 138.17 100.26 C 129.00 130.55 131.61 163.28 140.99 193.18 C 153.95 233.81 175.18 271.17 198.09 306.91 C 217.41 336.65 238.78 365.09 262.68 391.31 C 283.03 413.78 305.28 435.09 331.70 450.30 C 344.81 458.01 360.43 460.45 375.45 459.15 C 373.61 452.50 366.41 451.17 360.81 449.10 C 347.23 444.48 334.19 438.03 322.90 429.12 C 296.97 410.03 275.06 386.17 254.16 361.84 C 224.73 326.17 198.76 287.57 177.55 246.46 C 163.57 219.32 153.69 189.66 151.96 159.03 C 150.48 135.44 152.65 111.10 162.25 89.25 C 170.74 67.40 187.40 49.45 207.19 37.23 C 235.68 21.47 269.33 18.63 301.19 22.33 C 360.85 29.26 417.34 51.52 471.48 76.46 C 512.62 97.05 552.76 119.90 590.04 146.94 C 624.69 172.35 658.07 200.47 684.00 235.00 C 694.58 248.93 702.77 264.65 707.27 281.60 C 711.60 296.92 714.21 313.26 711.01 329.06 C 706.01 347.37 694.43 362.97 681.77 376.77 C 662.54 396.67 639.33 412.65 614.17 424.11 C 583.96 437.05 550.21 437.30 518.13 433.02 C 477.62 428.38 438.21 416.19 397.48 413.45 C 401.47 421.02 410.58 421.89 417.92 424.12 C 449.16 434.20 480.85 443.67 513.56 447.48 C 542.91 451.50 573.22 450.05 601.66 441.51 C 635.47 430.70 665.85 410.78 691.74 386.74 C 709.15 369.77 725.16 350.05 732.47 326.49 C 737.15 312.08 735.78 296.44 731.87 282.02 C 723.73 255.15 707.48 231.66 689.75 210.24 C 661.53 177.07 628.45 148.24 593.16 122.83 C 575.28 108.82 555.58 97.48 536.18 85.78 C 514.03 74.30 492.09 62.26 468.79 53.19 C 461.49 50.36 454.58 46.65 447.39 43.55 C 399.98 25.36 351.30 8.29 300.38 3.66 C 257.23 0.45 212.07 11.49 178.25 39.26 Z" />
</g>
<g id="#005074aa">
<path fill="#005074" opacity="0.67" d=" M 178.25 39.26 C 212.07 11.49 257.23 0.45 300.38 3.66 C 351.30 8.29 399.98 25.36 447.39 43.55 C 454.58 46.65 461.49 50.36 468.79 53.19 C 492.09 62.26 514.03 74.30 536.18 85.78 C 555.58 97.48 575.28 108.82 593.16 122.83 C 628.45 148.24 661.53 177.07 689.75 210.24 C 707.48 231.66 723.73 255.15 731.87 282.02 C 735.78 296.44 737.15 312.08 732.47 326.49 C 725.16 350.05 709.15 369.77 691.74 386.74 C 665.85 410.78 635.47 430.70 601.66 441.51 C 573.22 450.05 542.91 451.50 513.56 447.48 C 480.85 443.67 449.16 434.20 417.92 424.12 C 410.58 421.89 401.47 421.02 397.48 413.45 C 438.21 416.19 477.62 428.38 518.13 433.02 C 550.21 437.30 583.96 437.05 614.17 424.11 C 639.33 412.65 662.54 396.67 681.77 376.77 C 694.43 362.97 706.01 347.37 711.01 329.06 C 714.21 313.26 711.60 296.92 707.27 281.60 C 702.77 264.65 694.58 248.93 684.00 235.00 C 658.07 200.47 624.69 172.35 590.04 146.94 C 552.76 119.90 512.62 97.05 471.48 76.46 C 417.34 51.52 360.85 29.26 301.19 22.33 C 269.33 18.63 235.68 21.47 207.19 37.23 C 187.40 49.45 170.74 67.40 162.25 89.25 C 152.65 111.10 150.48 135.44 151.96 159.03 C 153.69 189.66 163.57 219.32 177.55 246.46 C 198.76 287.57 224.73 326.17 254.16 361.84 C 275.06 386.17 296.97 410.03 322.90 429.12 C 334.19 438.03 347.23 444.48 360.81 449.10 C 366.41 451.17 373.61 452.50 375.45 459.15 C 360.43 460.45 344.81 458.01 331.70 450.30 C 305.28 435.09 283.03 413.78 262.68 391.31 C 238.78 365.09 217.41 336.65 198.09 306.91 C 175.18 271.17 153.95 233.81 140.99 193.18 C 131.61 163.28 129.00 130.55 138.17 100.26 C 144.99 76.54 159.25 54.98 178.25 39.26 M 251.25 8.56 C 216.93 14.89 183.14 31.42 161.59 59.58 C 144.16 79.82 136.64 106.73 134.92 132.94 C 132.49 175.11 148.84 215.36 167.90 252.12 C 190.02 293.81 216.16 333.41 246.19 369.83 C 267.40 394.47 289.25 419.16 316.11 437.83 C 326.50 446.09 338.39 452.54 351.41 455.44 C 358.01 456.68 365.83 459.68 371.65 454.76 C 344.52 448.21 320.81 432.21 300.66 413.35 C 272.94 388.23 248.77 359.41 226.78 329.21 C 207.26 302.93 190.40 274.76 175.21 245.80 C 156.29 208.78 145.25 166.58 150.77 124.91 C 154.47 82.75 182.12 42.13 222.65 27.75 C 257.60 14.43 296.17 17.22 332.04 25.04 C 364.58 31.27 395.85 42.48 426.70 54.24 C 442.15 62.23 459.15 66.85 474.13 75.80 C 494.86 86.08 515.17 97.19 535.19 108.81 C 551.47 119.13 568.62 128.18 583.74 140.25 C 604.81 154.48 624.46 170.67 643.28 187.73 C 667.36 211.37 692.37 236.15 704.71 268.27 C 711.78 287.01 716.50 307.27 713.47 327.36 C 711.97 338.63 705.26 348.14 699.82 357.82 C 677.97 389.37 645.55 412.15 610.95 427.88 C 583.00 439.16 552.40 438.45 522.90 436.21 C 487.21 431.45 452.12 423.18 416.58 417.39 C 411.67 416.34 406.64 416.02 401.63 416.17 C 417.75 422.47 434.44 427.08 451.03 431.94 C 500.22 446.06 553.83 454.82 603.64 438.49 C 616.01 433.48 628.96 429.53 640.33 422.37 C 668.20 405.75 694.61 385.21 713.42 358.46 C 722.32 347.59 727.60 334.37 731.95 321.18 C 733.49 311.50 732.93 301.55 732.23 291.81 C 727.66 267.67 714.68 246.17 700.48 226.51 C 678.92 198.07 653.08 173.13 625.84 150.19 C 596.46 127.03 566.33 104.53 533.29 86.76 C 515.36 77.56 497.78 67.58 479.02 60.10 C 466.96 55.43 455.91 48.41 443.52 44.57 C 396.81 26.07 348.22 10.16 297.85 5.89 C 282.27 4.39 266.68 6.58 251.25 8.56 Z" />
</g>
<g id="#0079afff">
<path fill="#0079af" opacity="1.00" d=" M 251.25 8.56 C 266.68 6.58 282.27 4.39 297.85 5.89 C 348.22 10.16 396.81 26.07 443.52 44.57 C 455.91 48.41 466.96 55.43 479.02 60.10 C 497.78 67.58 515.36 77.56 533.29 86.76 C 566.33 104.53 596.46 127.03 625.84 150.19 C 653.08 173.13 678.92 198.07 700.48 226.51 C 714.68 246.17 727.66 267.67 732.23 291.81 C 732.93 301.55 733.49 311.50 731.95 321.18 C 727.60 334.37 722.32 347.59 713.42 358.46 C 694.61 385.21 668.20 405.75 640.33 422.37 C 628.96 429.53 616.01 433.48 603.64 438.49 C 553.83 454.82 500.22 446.06 451.03 431.94 C 434.44 427.08 417.75 422.47 401.63 416.17 C 406.64 416.02 411.67 416.34 416.58 417.39 C 452.12 423.18 487.21 431.45 522.90 436.21 C 552.40 438.45 583.00 439.16 610.95 427.88 C 645.55 412.15 677.97 389.37 699.82 357.82 C 705.26 348.14 711.97 338.63 713.47 327.36 C 716.50 307.27 711.78 287.01 704.71 268.27 C 692.37 236.15 667.36 211.37 643.28 187.73 C 624.46 170.67 604.81 154.48 583.74 140.25 C 568.62 128.18 551.47 119.13 535.19 108.81 C 515.17 97.19 494.86 86.08 474.13 75.80 C 459.15 66.85 442.15 62.23 426.70 54.24 C 395.85 42.48 364.58 31.27 332.04 25.04 C 296.17 17.22 257.60 14.43 222.65 27.75 C 182.12 42.13 154.47 82.75 150.77 124.91 C 145.25 166.58 156.29 208.78 175.21 245.80 C 190.40 274.76 207.26 302.93 226.78 329.21 C 248.77 359.41 272.94 388.23 300.66 413.35 C 320.81 432.21 344.52 448.21 371.65 454.76 C 365.83 459.68 358.01 456.68 351.41 455.44 C 338.39 452.54 326.50 446.09 316.11 437.83 C 289.25 419.16 267.40 394.47 246.19 369.83 C 216.16 333.41 190.02 293.81 167.90 252.12 C 148.84 215.36 132.49 175.11 134.92 132.94 C 136.64 106.73 144.16 79.82 161.59 59.58 C 183.14 31.42 216.93 14.89 251.25 8.56 Z" />
<path fill="#0079af" opacity="1.00" d=" M 15.62 256.77 C 34.03 252.05 53.24 251.64 72.10 252.96 C 80.98 254.25 90.15 253.16 98.79 255.96 C 89.91 264.97 76.36 265.80 64.45 265.44 C 49.56 265.17 34.52 260.61 19.71 263.74 C 15.38 266.11 16.89 272.60 17.32 276.72 C 22.75 303.14 41.33 324.05 49.76 349.31 C 50.83 352.33 50.62 355.56 50.65 358.71 C 28.70 336.69 14.67 307.89 5.39 278.49 C 4.01 273.88 1.51 269.26 2.08 264.34 C 4.77 259.56 10.74 258.23 15.62 256.77 Z" />
<path fill="#0079af" opacity="1.00" d=" M 36.52 275.61 C 42.48 274.87 47.65 278.87 52.89 281.07 C 74.46 290.82 95.00 302.63 115.38 314.61 C 141.91 327.85 166.79 344.23 193.85 356.37 C 192.09 360.63 186.55 361.72 182.40 362.20 C 166.80 362.57 154.23 352.16 141.80 344.22 C 132.68 339.24 124.81 332.36 115.81 327.22 C 87.70 312.80 58.89 299.54 32.16 282.65 C 29.04 280.11 33.79 276.18 36.52 275.61 Z" />
</g>
<g id="#797978ff">
<path fill="#797978" opacity="1.00" d=" M 379.60 141.61 C 380.88 141.29 382.16 140.98 383.44 140.67 C 384.00 144.68 384.29 148.73 384.35 152.78 C 388.42 153.23 392.46 154.12 396.18 155.89 C 392.15 156.59 388.06 156.79 383.98 156.95 C 384.23 174.51 382.19 192.91 388.85 209.60 C 381.56 209.89 377.75 203.21 377.23 196.77 C 375.89 183.50 376.45 170.08 377.63 156.82 C 372.79 156.96 367.89 156.80 363.23 155.33 C 367.93 153.80 372.85 153.21 377.75 152.84 C 378.40 149.10 379.03 145.36 379.60 141.61 Z" />
<path fill="#797978" opacity="1.00" d=" M 480.86 141.10 C 481.77 141.03 483.61 140.87 484.52 140.80 C 484.94 144.78 485.20 148.78 485.32 152.79 C 489.39 153.24 493.43 154.11 497.15 155.89 C 493.10 156.60 488.99 156.79 484.90 156.95 C 485.16 174.52 483.09 192.93 489.81 209.61 C 480.79 209.95 477.89 200.38 477.76 193.04 C 477.10 180.99 477.57 168.91 478.39 156.87 C 473.62 156.95 468.79 156.79 464.21 155.33 C 468.87 153.81 473.76 153.21 478.63 152.81 C 479.38 148.91 480.11 145.00 480.86 141.10 Z" />
<path fill="#797978" opacity="1.00" d=" M 268.50 161.43 C 270.32 153.33 278.61 146.08 287.19 148.75 C 292.58 150.05 295.68 155.29 295.09 160.65 C 292.38 158.45 290.23 155.24 286.82 154.10 C 281.39 154.01 278.66 159.95 277.50 164.45 C 275.49 173.89 274.72 183.83 276.74 193.33 C 277.28 196.43 279.73 198.56 281.84 200.66 C 285.59 196.21 287.12 190.55 288.98 185.18 C 292.53 191.53 288.84 199.35 283.54 203.47 C 277.65 207.48 269.07 203.08 267.59 196.42 C 264.75 184.99 265.77 172.79 268.50 161.43 Z" />
<path fill="#797978" opacity="1.00" d=" M 315.37 161.47 C 320.40 160.59 324.32 164.94 325.75 169.32 C 329.86 180.34 329.88 195.00 320.03 203.02 C 311.99 208.62 300.63 201.79 299.54 192.60 C 297.42 180.78 302.04 164.17 315.37 161.47 M 316.13 166.18 C 310.91 169.79 309.42 176.64 308.46 182.54 C 307.38 188.63 308.94 197.55 316.22 198.70 C 323.54 199.62 325.26 190.51 325.18 185.02 C 324.79 178.24 324.00 168.29 316.13 166.18 Z" />
<path fill="#797978" opacity="1.00" d=" M 411.66 161.66 C 419.49 159.35 428.40 167.59 425.77 175.59 C 423.43 184.00 415.09 188.54 407.43 191.24 C 409.14 194.65 411.65 200.20 416.41 198.47 C 420.97 195.09 422.33 188.91 426.91 185.45 C 425.72 192.17 422.35 198.67 417.02 203.00 C 412.37 206.72 404.89 205.23 401.68 200.33 C 397.52 194.26 397.65 186.42 398.56 179.42 C 399.81 172.02 403.70 163.61 411.66 161.66 M 413.96 168.83 C 407.53 172.89 406.98 181.46 407.59 188.32 C 414.24 185.90 421.59 181.43 422.56 173.76 C 423.33 169.22 417.51 166.31 413.96 168.83 Z" />
<path fill="#797978" opacity="1.00" d=" M 333.58 161.69 C 334.45 161.80 336.19 162.02 337.06 162.13 C 339.05 170.86 338.79 179.84 339.75 188.69 C 342.85 180.29 345.88 171.61 351.52 164.52 C 352.99 162.49 355.90 160.57 358.15 162.71 C 360.24 167.52 359.33 172.89 359.00 177.94 C 358.16 186.29 358.56 194.68 359.27 203.01 C 357.10 203.51 354.94 203.98 352.77 204.42 C 349.26 191.58 352.98 178.50 354.04 165.62 C 344.65 176.68 341.66 191.24 339.12 205.11 C 337.76 204.99 336.42 204.88 335.07 204.76 C 331.28 190.80 331.12 175.90 333.58 161.69 Z" />
<path fill="#797978" opacity="1.00" d=" M 434.56 161.67 C 435.43 161.78 437.16 162.02 438.02 162.14 C 440.01 170.86 439.67 179.85 440.70 188.70 C 443.67 180.47 446.71 172.06 452.04 165.01 C 453.58 162.69 456.44 162.15 458.87 161.23 C 462.28 174.93 457.65 189.10 460.23 203.00 C 458.06 203.50 455.90 203.98 453.73 204.44 C 450.19 191.59 453.92 178.50 454.99 165.61 C 445.62 176.66 442.56 191.22 440.09 205.09 C 438.74 204.99 437.39 204.88 436.04 204.78 C 432.20 190.81 432.01 175.88 434.56 161.67 Z" />
<path fill="#797978" opacity="1.00" d=" M 383.85 215.11 C 394.73 220.58 391.62 235.03 394.76 244.91 C 402.78 242.94 410.49 239.44 418.82 239.03 C 413.90 243.43 407.35 244.89 401.50 247.59 C 409.67 253.08 418.32 257.84 426.08 263.93 C 425.97 264.87 425.76 266.76 425.65 267.70 C 414.91 263.54 405.97 256.06 395.84 250.75 C 396.28 258.84 398.50 266.76 398.49 274.87 C 398.82 278.53 394.72 279.29 392.17 280.49 C 388.19 269.46 387.91 257.57 385.87 246.11 C 385.09 235.80 381.87 225.47 383.85 215.11 Z" />
<path fill="#797978" opacity="1.00" d=" M 480.97 215.76 C 482.41 216.13 483.85 216.51 485.30 216.91 C 485.23 220.47 485.19 224.02 485.10 227.58 C 489.21 227.74 493.24 228.71 496.93 230.56 C 492.98 231.16 488.99 231.38 485.01 231.43 C 485.02 249.09 483.17 267.58 489.80 284.37 C 480.11 284.44 477.67 273.77 477.66 266.03 C 477.12 254.47 477.71 242.92 478.32 231.38 C 473.64 231.43 468.95 231.30 464.34 230.43 C 468.80 228.26 473.73 227.73 478.62 227.66 C 479.34 223.68 480.11 219.71 480.97 215.76 Z" />
<path fill="#797978" opacity="1.00" d=" M 290.01 244.67 C 296.99 237.41 301.19 227.48 309.99 222.09 C 313.26 230.78 310.97 240.05 310.77 249.01 C 310.25 257.86 311.52 266.76 310.52 275.58 C 310.75 279.92 302.96 280.80 302.75 276.33 C 300.91 263.88 303.50 251.30 303.13 238.79 C 299.34 242.78 296.48 247.68 292.14 251.12 C 290.23 252.56 288.36 250.21 287.01 249.06 C 282.54 244.23 278.45 239.04 273.61 234.56 C 273.60 249.51 274.07 264.86 269.72 279.33 C 268.97 279.50 267.48 279.85 266.73 280.02 C 265.52 261.45 265.74 242.55 268.23 224.08 C 276.66 229.59 283.03 237.54 290.01 244.67 Z" />
<path fill="#797978" opacity="1.00" d=" M 340.53 236.31 C 341.22 236.67 341.91 237.04 342.61 237.40 C 341.68 251.16 343.89 264.79 347.85 277.94 C 346.28 278.80 344.66 279.54 342.98 280.15 C 337.94 272.98 337.95 264.00 336.66 255.68 C 333.07 261.40 331.17 268.47 325.79 272.86 C 322.83 275.44 317.36 275.27 315.97 271.08 C 313.40 262.73 316.64 252.89 323.43 247.42 C 328.60 242.80 336.69 242.60 340.53 236.31 M 323.96 269.88 C 331.06 263.27 334.48 253.76 337.20 244.69 C 326.24 247.48 320.87 259.40 323.96 269.88 Z" />
<path fill="#797978" opacity="1.00" d=" M 353.16 237.34 C 354.58 236.86 356.00 236.39 357.43 235.92 C 359.11 239.47 360.49 243.16 361.68 246.91 C 365.09 242.81 368.16 235.79 374.42 236.41 C 378.05 241.41 377.42 248.06 376.46 253.82 C 374.05 249.41 373.34 244.42 372.55 239.53 C 367.90 243.55 363.26 248.56 362.77 255.01 C 362.59 262.84 365.81 270.43 365.18 278.27 C 363.35 279.18 361.35 279.65 359.43 280.30 C 355.56 266.31 354.67 251.71 353.16 237.34 Z" />
<path fill="#797978" opacity="1.00" d=" M 439.35 238.35 C 446.42 232.72 458.20 237.92 458.51 246.99 C 458.01 256.91 448.46 263.10 439.80 265.65 C 441.33 269.12 443.22 273.89 447.83 273.60 C 453.06 270.62 454.23 263.78 459.05 260.21 C 457.85 267.23 454.19 274.12 448.33 278.31 C 441.81 282.40 433.26 277.41 431.58 270.40 C 428.71 259.59 430.03 245.73 439.35 238.35 M 445.82 243.65 C 439.77 247.86 439.42 256.09 439.71 262.76 C 446.62 260.74 454.14 255.85 454.75 248.00 C 455.24 243.42 449.18 240.93 445.82 243.65 Z" />
<path fill="#797978" opacity="1.00" d=" M 501.36 235.54 C 502.65 236.78 504.06 237.89 505.59 238.84 C 504.01 239.51 502.41 240.10 500.75 240.49 C 500.93 238.84 501.13 237.19 501.36 235.54 Z" />
<path fill="#797978" opacity="1.00" d=" M 514.26 235.22 C 521.37 242.71 517.39 254.19 519.44 263.44 C 522.92 254.69 525.89 245.36 532.25 238.19 C 533.62 236.42 536.93 235.14 538.10 237.81 C 540.09 242.28 539.14 247.35 538.88 252.07 C 538.02 260.51 538.26 269.02 539.29 277.43 C 536.99 277.89 534.71 278.43 532.46 279.06 C 529.30 266.23 532.66 253.25 533.90 240.45 C 524.57 251.14 521.37 265.49 519.27 279.14 C 518.06 279.48 516.85 279.81 515.65 280.15 C 510.71 265.94 510.33 249.70 514.26 235.22 Z" />
<path fill="#797978" opacity="1.00" d=" M 571.93 236.48 C 572.35 236.48 573.18 236.49 573.60 236.50 C 576.10 245.10 577.03 254.05 576.86 262.98 C 576.75 273.07 577.63 284.06 571.97 292.97 C 568.33 298.76 561.01 303.83 554.01 300.99 C 545.57 297.95 541.73 287.21 545.32 279.25 C 546.34 276.72 549.41 277.46 551.56 277.19 C 550.87 281.99 548.50 288.42 553.03 292.06 C 557.73 295.21 563.62 291.03 565.48 286.47 C 569.31 277.54 568.92 267.57 570.01 258.08 C 566.09 261.72 561.77 266.08 555.98 265.84 C 552.12 266.07 548.12 263.07 548.23 259.01 C 548.43 253.71 552.24 249.33 556.26 246.26 C 561.14 242.32 568.66 242.45 571.93 236.48 M 555.14 259.94 C 563.46 261.18 568.95 251.09 570.34 243.92 C 563.95 247.62 557.21 252.44 555.14 259.94 Z" />
<path fill="#797978" opacity="1.00" d=" M 499.38 247.12 C 499.28 244.88 501.48 243.76 502.66 242.19 C 504.62 246.54 505.48 251.27 505.36 256.03 C 505.16 264.23 506.93 272.40 505.91 280.57 C 503.89 279.17 501.13 278.05 500.83 275.27 C 499.13 266.02 498.72 256.49 499.38 247.12 Z" />
</g>
<g id="#00263751">
<path fill="#002637" opacity="0.32" d=" M 0.00 258.81 C 21.48 247.11 46.53 247.77 70.21 248.81 C 81.28 249.52 92.40 249.28 103.44 250.41 C 103.08 253.62 103.61 257.48 100.98 259.89 C 93.43 267.61 82.04 269.20 71.74 269.38 C 54.37 269.95 37.09 265.68 19.74 268.25 C 21.49 285.29 29.19 300.89 37.34 315.68 C 45.76 331.01 55.58 346.75 56.14 364.77 C 53.24 363.86 50.02 363.41 47.63 361.40 C 25.25 337.17 11.00 306.88 0.00 276.09 L 0.00 268.45 C 8.91 297.47 20.92 326.01 40.21 349.77 C 43.50 354.75 47.74 359.06 53.04 361.90 C 52.90 356.68 52.46 351.38 50.61 346.45 C 42.67 324.41 27.30 305.75 20.89 283.06 C 19.54 277.80 16.90 271.91 19.29 266.60 C 22.29 265.20 25.70 265.22 28.94 265.15 C 46.82 265.25 64.75 269.30 82.59 266.36 C 90.31 264.97 99.38 261.68 100.78 252.85 C 88.47 251.46 76.07 251.31 63.71 250.50 C 42.12 249.60 19.21 250.24 0.00 261.37 L 0.00 258.81 Z" />
</g>
<g id="#004d6fa3">
<path fill="#004d6f" opacity="0.64" d=" M 0.00 261.37 C 19.21 250.24 42.12 249.60 63.71 250.50 C 76.07 251.31 88.47 251.46 100.78 252.85 C 99.38 261.68 90.31 264.97 82.59 266.36 C 64.75 269.30 46.82 265.25 28.94 265.15 C 25.70 265.22 22.29 265.20 19.29 266.60 C 16.90 271.91 19.54 277.80 20.89 283.06 C 27.30 305.75 42.67 324.41 50.61 346.45 C 52.46 351.38 52.90 356.68 53.04 361.90 C 47.74 359.06 43.50 354.75 40.21 349.77 C 20.92 326.01 8.91 297.47 0.00 268.45 L 0.00 261.37 M 15.62 256.77 C 10.74 258.23 4.77 259.56 2.08 264.34 C 1.51 269.26 4.01 273.88 5.39 278.49 C 14.67 307.89 28.70 336.69 50.65 358.71 C 50.62 355.56 50.83 352.33 49.76 349.31 C 41.33 324.05 22.75 303.14 17.32 276.72 C 16.89 272.60 15.38 266.11 19.71 263.74 C 34.52 260.61 49.56 265.17 64.45 265.44 C 76.36 265.80 89.91 264.97 98.79 255.96 C 90.15 253.16 80.98 254.25 72.10 252.96 C 53.24 251.64 34.03 252.05 15.62 256.77 Z" />
</g>
<g id="#0024354e">
<path fill="#002435" opacity="0.31" d=" M 36.59 271.73 C 38.85 271.17 41.16 271.86 43.28 272.64 C 60.14 279.52 76.04 288.46 92.15 296.89 C 110.56 305.63 127.26 317.46 145.46 326.60 C 157.42 332.47 169.04 339.00 180.83 345.20 C 185.85 347.96 191.72 349.21 196.26 352.82 C 197.63 356.17 196.31 360.34 193.31 362.35 C 187.60 366.36 180.07 367.20 173.39 365.61 C 153.76 359.43 138.20 345.47 120.67 335.33 C 93.09 317.08 61.36 306.28 33.54 288.46 C 29.82 286.19 24.90 282.45 27.04 277.46 C 29.34 274.44 32.99 272.70 36.59 271.73 M 36.50 273.38 C 32.37 274.56 25.38 280.19 30.95 284.01 C 55.84 300.96 84.01 312.19 110.37 326.57 C 130.10 337.13 146.91 352.64 167.59 361.49 C 175.79 365.07 186.60 365.88 193.74 359.67 C 196.19 357.64 194.56 354.10 192.04 353.03 C 141.96 329.04 95.42 298.17 44.84 275.13 C 42.22 274.09 39.38 272.62 36.50 273.38 Z" />
</g>
<g id="#004e71a5">
<path fill="#004e71" opacity="0.65" d=" M 36.50 273.38 C 39.38 272.62 42.22 274.09 44.84 275.13 C 95.42 298.17 141.96 329.04 192.04 353.03 C 194.56 354.10 196.19 357.64 193.74 359.67 C 186.60 365.88 175.79 365.07 167.59 361.49 C 146.91 352.64 130.10 337.13 110.37 326.57 C 84.01 312.19 55.84 300.96 30.95 284.01 C 25.38 280.19 32.37 274.56 36.50 273.38 M 36.52 275.61 C 33.79 276.18 29.04 280.11 32.16 282.65 C 58.89 299.54 87.70 312.80 115.81 327.22 C 124.81 332.36 132.68 339.24 141.80 344.22 C 154.23 352.16 166.80 362.57 182.40 362.20 C 186.55 361.72 192.09 360.63 193.85 356.37 C 166.79 344.23 141.91 327.85 115.38 314.61 C 95.00 302.63 74.46 290.82 52.89 281.07 C 47.65 278.87 42.48 274.87 36.52 275.61 Z" />
</g>
</svg>
