<?xml version="1.0" encoding="UTF-8" ?>
<!DOCTYPE svg PUBLIC "-//W3C//DTD SVG 1.1//EN" "http://www.w3.org/Graphics/SVG/1.1/DTD/svg11.dtd">
<svg width="1266pt" height="792pt" viewBox="0 0 1266 792" version="1.1" xmlns="http://www.w3.org/2000/svg">
<g id="#32c5d2ff">
<path fill="#32c5d2" opacity="1.00" d=" M 510.12 7.26 C 535.31 4.21 560.71 5.73 586.02 5.35 C 601.49 5.01 616.77 7.98 632.18 8.61 C 704.57 15.78 774.46 38.04 842.13 63.90 C 930.20 99.06 1014.97 142.97 1092.97 197.05 C 1125.53 219.93 1156.84 244.82 1185.00 273.00 C 1205.19 293.99 1224.50 316.61 1236.73 343.31 C 1261.06 391.90 1268.19 448.81 1256.89 501.91 C 1248.61 545.99 1228.51 587.24 1202.60 623.61 C 1182.82 651.04 1159.60 675.96 1133.60 697.58 C 1082.55 739.84 1021.15 771.24 955.25 781.24 C 940.56 784.09 925.41 783.57 910.77 786.73 C 907.57 787.45 904.30 787.68 901.04 787.69 C 845.11 788.07 789.17 788.31 733.25 787.48 C 720.66 784.22 706.57 784.13 693.27 782.62 C 640.98 776.07 588.79 768.12 537.51 755.66 C 464.74 739.40 393.66 716.42 323.48 691.42 C 261.27 669.72 199.08 647.04 140.68 616.28 C 110.79 599.49 81.41 580.31 59.21 553.78 C 24.36 514.10 3.96 461.83 2.77 409.09 C 1.36 393.85 3.58 378.64 3.49 363.41 C 12.51 284.82 50.25 210.00 107.24 155.24 C 132.78 130.72 162.73 110.88 195.29 96.94 C 196.11 97.95 196.93 98.97 197.76 99.98 C 204.08 99.41 209.27 95.59 214.73 92.76 C 306.17 45.04 407.25 15.17 510.12 7.26 M 529.43 56.44 C 513.00 57.67 496.52 58.41 480.03 58.63 C 421.99 61.87 363.45 68.01 308.25 87.22 C 250.84 107.98 199.32 143.27 156.37 186.35 C 120.11 224.46 90.14 271.05 81.64 323.75 C 78.30 335.90 79.60 348.56 79.36 360.99 C 78.28 382.97 85.19 404.31 92.17 424.87 C 112.34 474.73 150.37 515.40 193.70 546.31 C 227.15 570.97 264.90 589.19 303.98 603.01 C 415.48 641.55 531.80 665.41 649.10 676.83 C 667.17 679.90 685.61 679.19 703.68 682.27 C 727.80 682.99 751.87 684.43 775.95 685.63 C 799.24 685.50 822.53 685.73 845.82 685.52 C 868.13 683.40 890.71 684.00 912.90 680.94 C 973.69 674.49 1035.71 663.64 1090.03 634.06 C 1119.53 617.87 1146.15 593.69 1158.94 561.97 C 1171.90 532.54 1170.18 499.07 1163.53 468.31 C 1151.75 424.76 1132.47 382.95 1104.85 347.13 C 1081.72 316.61 1054.31 289.63 1025.55 264.46 C 971.11 217.73 910.69 178.29 847.41 144.63 C 791.23 115.36 732.63 90.15 671.38 73.61 C 643.11 65.38 613.98 60.03 584.67 57.43 C 566.40 54.85 547.78 55.20 529.43 56.44 M 1048.21 236.88 C 1048.34 238.03 1048.47 239.18 1048.61 240.33 C 1104.72 291.26 1157.81 349.69 1183.84 422.16 C 1190.44 442.22 1195.20 462.93 1197.32 483.95 C 1199.36 519.10 1194.46 555.03 1180.35 587.43 C 1161.40 629.36 1123.68 659.75 1082.52 678.46 C 1024.98 705.00 962.00 716.39 899.99 727.02 C 878.00 731.71 855.49 733.71 833.54 738.63 C 833.61 739.48 833.68 740.33 833.77 741.20 C 843.78 742.89 853.93 742.49 864.03 742.75 C 874.97 743.86 886.03 744.14 896.98 742.96 C 936.18 742.31 975.41 735.87 1012.71 723.71 C 1085.75 700.90 1154.55 656.47 1196.00 591.01 C 1215.74 560.47 1227.44 525.09 1231.32 489.03 C 1231.43 476.68 1231.61 464.31 1231.21 451.96 C 1228.19 428.93 1223.05 406.09 1214.55 384.43 C 1203.89 359.67 1187.43 337.59 1167.82 319.18 C 1149.70 299.93 1128.15 284.39 1106.32 269.67 C 1087.38 258.01 1068.43 246.22 1048.21 236.88 M 76.12 239.25 C 43.66 273.16 30.25 321.01 29.33 367.00 C 28.68 380.48 31.95 393.65 33.01 407.01 C 37.08 428.53 42.57 449.96 52.33 469.68 C 68.10 503.46 93.87 535.59 130.29 547.78 C 128.22 544.57 125.84 541.52 122.78 539.21 C 108.54 528.29 97.76 513.58 88.73 498.23 C 68.39 462.29 59.02 420.97 56.68 380.00 C 56.53 366.33 56.65 352.66 56.62 339.00 C 57.84 311.98 62.39 285.00 71.46 259.47 C 73.76 252.77 77.00 246.42 79.02 239.60 C 78.29 239.51 76.84 239.34 76.12 239.25 M 605.93 717.51 C 605.73 718.15 605.33 719.44 605.13 720.08 C 633.22 729.78 663.20 731.09 692.38 735.62 C 714.01 737.27 735.76 739.88 757.44 737.27 C 757.47 735.75 757.50 734.24 757.54 732.73 C 746.43 730.76 735.24 729.26 723.96 728.74 C 712.92 728.48 702.13 725.66 691.08 725.50 C 677.00 725.14 663.01 723.46 649.04 721.79 C 634.56 721.65 620.34 718.56 605.93 717.51 Z" />
<path fill="#32c5d2" opacity="1.00" d=" M 386.47 222.25 C 390.06 222.48 394.18 222.29 396.91 225.09 C 403.87 231.59 402.78 242.68 409.72 249.28 C 421.76 262.14 428.81 278.62 440.56 291.65 C 441.82 291.51 443.08 291.38 444.35 291.25 C 443.10 272.55 441.87 253.81 442.36 235.05 C 442.45 231.31 443.75 227.76 444.98 224.27 C 449.90 225.12 454.53 228.09 455.76 233.19 C 461.72 255.72 454.64 279.21 458.98 301.94 C 461.13 312.05 467.03 322.02 464.38 332.59 C 463.42 333.58 462.47 334.57 461.52 335.57 C 459.86 335.55 458.20 335.54 456.54 335.53 C 449.49 328.13 445.29 318.79 441.53 309.44 C 433.89 296.26 423.43 284.99 413.32 273.69 C 410.88 270.77 407.58 268.82 404.12 267.37 C 401.97 287.09 406.79 307.91 399.10 326.78 C 397.40 326.74 395.72 326.72 394.03 326.71 C 384.15 317.22 389.89 302.87 389.45 291.00 C 388.86 277.67 391.14 263.94 387.09 250.99 C 384.69 241.74 380.63 231.07 386.47 222.25 Z" />
<path fill="#32c5d2" opacity="1.00" d=" M 738.45 222.42 C 741.01 222.50 743.58 222.56 746.16 222.59 C 751.20 226.48 754.17 232.19 755.67 238.28 C 757.78 246.79 765.08 252.26 769.68 259.33 C 778.05 269.60 783.26 282.10 792.57 291.65 C 793.83 291.52 795.09 291.38 796.37 291.25 C 795.14 272.55 793.87 253.82 794.37 235.05 C 794.47 231.33 795.75 227.79 796.96 224.31 C 804.26 224.70 808.36 231.38 808.94 238.05 C 813.35 262.52 804.74 288.25 813.95 312.02 C 816.71 318.52 817.05 325.61 816.62 332.57 C 815.56 333.56 814.51 334.56 813.47 335.56 C 811.82 335.55 810.18 335.53 808.54 335.53 C 803.76 330.06 799.62 323.99 796.91 317.23 C 792.27 304.09 782.59 293.69 773.82 283.18 C 768.32 277.53 763.94 270.16 756.16 267.38 C 754.26 286.59 758.03 306.42 752.17 325.16 C 750.41 326.30 748.31 326.68 746.35 327.29 C 736.03 317.31 742.02 302.43 741.46 290.00 C 740.88 277.01 743.10 263.61 739.10 250.99 C 736.85 241.78 732.57 231.16 738.45 222.42 Z" />
<path fill="#32c5d2" opacity="1.00" d=" M 704.47 245.43 C 706.78 237.78 706.44 229.35 710.44 222.25 C 713.85 222.80 718.62 221.79 720.69 225.33 C 723.93 230.70 721.02 236.95 720.66 242.67 C 720.00 251.70 720.40 260.78 720.39 269.83 C 720.52 282.02 725.40 293.37 727.77 305.17 C 726.16 306.32 724.56 307.48 722.97 308.65 C 711.78 305.23 709.38 293.26 707.46 283.27 C 706.33 283.45 705.20 283.64 704.08 283.83 C 698.05 293.96 691.54 305.70 679.75 309.82 C 669.02 313.56 657.31 304.64 656.25 293.73 C 651.91 276.16 657.79 258.61 658.16 240.99 C 658.12 235.62 658.63 230.16 661.42 225.44 C 663.19 225.38 664.96 225.31 666.74 225.24 C 676.62 233.08 671.23 246.23 670.58 256.67 C 669.89 270.15 667.04 284.36 671.60 297.42 C 673.56 297.50 675.53 297.59 677.50 297.68 C 693.32 285.01 702.02 265.21 704.47 245.43 Z" />
<path fill="#32c5d2" opacity="1.00" d=" M 599.47 227.50 C 608.81 224.65 618.95 228.86 626.17 234.83 C 641.08 248.02 647.56 268.56 647.42 288.04 C 647.13 296.95 644.49 306.48 637.63 312.59 C 629.04 319.04 617.87 319.08 607.90 321.90 C 598.65 324.48 588.29 324.13 579.89 319.12 C 565.22 311.90 560.64 294.02 560.30 278.95 C 559.86 267.46 567.29 257.64 574.02 249.03 C 581.49 240.83 589.04 231.96 599.47 227.50 M 603.63 239.37 C 603.36 239.99 602.81 241.23 602.53 241.85 C 602.85 242.79 603.49 244.66 603.81 245.59 C 600.64 248.88 596.51 250.86 592.23 252.27 C 586.24 254.30 583.47 260.47 580.43 265.50 C 576.87 272.01 572.17 279.10 574.05 286.89 C 576.01 294.94 580.18 303.37 588.09 306.98 C 595.32 311.14 603.96 311.02 612.00 310.15 C 620.76 308.80 627.44 302.16 632.32 295.19 C 634.65 284.44 633.91 273.06 630.29 262.69 C 626.57 252.84 618.68 245.43 610.21 239.55 C 608.01 239.49 605.82 239.43 603.63 239.37 Z" />
<path fill="#32c5d2" opacity="1.00" d=" M 339.91 233.20 C 342.72 231.85 345.92 230.58 348.98 232.00 C 355.19 234.43 361.75 235.82 368.45 235.53 C 369.81 237.21 371.17 238.89 372.54 240.57 C 372.50 242.46 372.47 244.36 372.43 246.26 C 370.86 248.04 369.29 249.81 367.72 251.58 C 362.83 251.43 357.60 251.28 353.55 254.48 C 353.15 275.79 349.61 297.24 352.55 318.51 C 360.97 318.09 369.72 319.01 376.71 324.17 C 376.66 325.34 376.61 326.51 376.58 327.69 C 372.50 332.05 367.62 336.83 361.06 335.66 C 346.62 337.12 332.85 331.99 318.58 331.15 C 315.90 330.63 313.65 328.99 311.35 327.64 C 311.37 326.23 311.38 324.83 311.40 323.44 C 318.41 315.75 329.43 319.81 338.46 318.31 C 333.39 300.72 339.61 282.82 338.45 265.00 C 337.84 259.68 339.56 253.71 337.04 248.88 C 334.05 247.76 331.08 246.60 328.12 245.42 C 327.21 246.11 326.30 246.80 325.40 247.50 C 324.36 247.58 323.33 247.66 322.30 247.75 C 320.11 245.29 315.95 242.30 318.57 238.70 C 323.02 231.27 332.74 233.83 339.91 233.20 Z" />
<path fill="#32c5d2" opacity="1.00" d=" M 481.08 235.29 C 493.35 235.45 505.62 235.13 517.88 235.38 C 524.30 235.58 531.53 239.55 532.54 246.41 C 534.18 256.16 528.50 264.97 523.69 272.94 C 523.54 274.80 523.41 276.66 523.29 278.53 C 534.37 281.63 548.08 286.73 550.42 299.58 C 551.35 313.07 538.43 323.58 525.80 324.72 C 513.81 328.40 501.27 327.30 488.91 327.37 C 483.19 327.55 477.30 323.42 476.46 317.60 C 475.31 308.42 481.66 300.20 480.37 290.99 C 479.31 283.72 479.74 276.36 478.97 269.08 C 478.22 257.97 472.87 244.84 481.08 235.29 M 490.17 253.76 C 491.63 259.79 491.73 266.00 491.61 272.16 L 489.73 273.10 C 491.18 274.75 492.72 277.59 495.34 276.17 C 503.25 272.35 510.09 266.45 516.01 260.01 C 518.74 257.22 518.54 253.10 519.00 249.51 C 509.79 245.53 497.54 246.42 490.17 253.76 M 495.20 314.65 C 509.61 316.06 522.42 308.26 534.17 301.01 C 534.36 300.12 534.55 299.22 534.75 298.33 C 526.34 289.84 513.30 285.24 501.58 288.54 C 498.42 289.21 495.50 287.42 492.63 286.43 C 493.01 295.80 490.15 306.11 495.20 314.65 Z" />
<path fill="#32c5d2" opacity="1.00" d=" M 839.37 235.33 C 841.37 235.36 843.38 235.40 845.40 235.46 C 858.78 250.18 881.08 249.64 896.24 261.76 C 905.77 268.50 914.29 279.40 912.60 291.74 C 911.87 307.08 897.21 317.32 883.45 320.56 C 874.98 323.66 865.95 323.39 857.08 323.33 C 852.29 322.75 851.34 328.24 848.95 331.14 C 845.40 332.47 841.97 329.62 839.02 327.98 C 834.02 324.35 827.50 320.66 827.03 313.78 C 828.30 312.76 829.58 311.74 830.86 310.72 C 832.97 310.56 835.08 310.42 837.21 310.28 C 838.50 307.67 840.10 305.04 840.21 302.05 C 839.48 288.54 839.47 274.94 837.44 261.52 C 836.15 254.87 833.71 248.44 833.25 241.62 C 835.30 239.53 837.33 237.43 839.37 235.33 M 851.94 255.75 C 850.46 270.18 854.16 284.64 851.86 299.03 C 851.08 303.30 853.51 307.10 855.57 310.60 C 864.07 310.99 872.34 308.86 880.43 306.48 C 892.00 304.26 900.87 291.62 897.90 280.14 C 893.52 271.20 884.24 266.03 875.27 262.65 C 867.64 259.91 860.24 255.84 851.94 255.75 Z" />
<path fill="#32c5d2" opacity="1.00" d=" M 719.21 377.27 C 732.03 372.43 746.23 372.14 759.50 375.18 C 768.48 375.96 778.15 376.84 785.44 382.74 C 785.53 384.71 785.62 386.68 785.73 388.65 C 781.81 390.45 777.65 391.66 773.37 392.16 C 766.75 389.64 759.61 389.57 752.63 389.39 C 746.52 418.35 749.70 448.22 748.43 477.45 C 746.45 477.52 744.47 477.59 742.51 477.68 C 731.67 467.78 733.58 452.21 733.59 439.00 C 732.70 422.75 737.07 406.85 737.49 390.68 C 719.81 390.00 702.08 390.19 684.39 390.57 C 679.47 386.88 681.56 380.87 685.64 377.52 C 696.83 377.47 708.03 377.85 719.21 377.27 Z" />
<path fill="#32c5d2" opacity="1.00" d=" M 867.65 373.58 C 870.60 373.52 873.56 373.45 876.52 373.36 C 885.81 380.57 884.54 394.12 893.10 401.88 C 904.62 414.29 911.04 430.45 922.83 442.58 C 923.58 442.44 925.09 442.18 925.84 442.05 C 925.46 422.50 923.32 402.96 924.59 383.41 C 924.96 380.71 925.83 378.12 926.62 375.53 C 928.19 375.51 929.77 375.49 931.36 375.46 C 934.00 377.95 936.83 380.58 937.75 384.24 C 944.35 409.34 934.55 436.07 943.19 460.83 C 946.19 467.91 947.28 475.58 946.50 483.23 C 945.35 484.27 944.21 485.32 943.09 486.38 C 941.64 486.41 940.19 486.45 938.75 486.49 C 930.54 478.66 927.08 467.74 922.16 457.88 C 912.92 443.44 901.27 430.67 889.14 418.61 C 888.28 418.71 886.56 418.91 885.70 419.01 C 884.84 437.50 887.57 456.44 882.46 474.51 C 881.75 477.16 878.60 477.28 876.50 478.23 C 867.31 469.84 870.62 456.90 871.27 446.01 C 871.55 435.33 871.50 424.63 871.32 413.95 C 870.67 400.48 861.35 386.93 867.65 373.58 Z" />
<path fill="#32c5d2" opacity="1.00" d=" M 218.27 377.33 C 220.33 377.41 222.38 377.48 224.44 377.52 C 227.46 381.03 229.47 385.26 230.19 389.84 C 234.16 409.23 246.00 425.65 251.90 444.36 C 253.00 444.37 254.11 444.38 255.22 444.40 C 263.16 427.25 270.27 409.63 275.38 391.41 C 276.52 386.75 279.24 382.72 282.70 379.46 C 284.54 379.49 286.37 379.51 288.21 379.54 C 289.58 380.85 290.96 382.18 292.32 383.51 C 296.24 403.39 298.65 423.53 302.56 443.41 C 305.47 457.88 313.51 470.92 314.80 485.74 C 312.11 486.11 309.41 486.44 306.70 486.73 C 294.80 477.33 294.57 460.99 291.72 447.36 C 289.20 437.39 288.20 426.55 282.01 417.98 C 276.87 424.15 275.57 432.29 272.47 439.49 C 268.22 449.97 264.52 461.05 257.04 469.76 C 251.77 467.35 244.38 465.61 243.17 458.93 C 241.06 449.26 238.28 439.53 232.28 431.47 C 230.76 431.69 229.24 431.91 227.72 432.14 C 227.61 446.10 228.75 460.93 221.36 473.48 C 220.08 473.51 218.80 473.55 217.53 473.59 C 215.24 470.15 212.87 466.40 213.33 462.07 C 213.79 449.48 213.32 436.86 214.43 424.30 C 214.02 411.89 211.32 399.46 213.01 387.04 C 213.39 383.20 215.87 380.14 218.27 377.33 Z" />
<path fill="#32c5d2" opacity="1.00" d=" M 359.54 377.47 C 361.16 377.48 362.79 377.48 364.42 377.48 C 370.85 383.25 369.05 392.31 371.04 399.85 C 376.30 426.27 398.02 446.35 400.81 473.49 C 398.90 475.27 397.01 477.06 395.10 478.85 C 392.53 477.99 389.97 477.11 387.45 476.15 C 386.64 467.87 385.38 459.26 381.07 452.00 C 379.79 449.35 376.78 448.62 374.08 448.62 C 365.63 448.45 357.18 448.81 348.73 448.53 C 336.46 456.66 339.51 473.03 334.28 485.00 C 333.05 485.61 331.83 486.22 330.62 486.84 C 325.22 484.04 323.51 477.79 324.34 472.12 C 326.54 450.44 336.06 430.51 341.67 409.65 C 344.90 397.78 348.06 384.17 359.54 377.47 M 355.92 408.76 C 354.39 417.77 351.18 426.35 348.68 435.10 C 355.23 435.81 361.85 435.83 368.40 435.10 C 365.46 426.19 363.28 416.96 359.19 408.46 C 358.37 408.54 356.74 408.69 355.92 408.76 Z" />
<path fill="#32c5d2" opacity="1.00" d=" M 501.93 382.81 C 502.20 378.32 506.70 377.38 510.36 377.09 C 521.06 387.06 515.12 402.48 515.32 415.09 C 533.39 410.52 542.79 389.13 562.23 387.31 C 564.14 389.12 566.06 390.94 567.99 392.75 C 566.69 397.28 564.54 401.76 560.63 404.59 C 549.78 412.87 536.84 418.37 527.30 428.36 C 527.35 429.40 527.41 430.45 527.47 431.50 C 537.07 440.60 547.07 449.24 556.81 458.19 C 563.52 464.49 571.80 468.73 578.74 474.75 C 578.44 477.06 578.10 479.37 577.72 481.67 C 576.39 481.56 575.08 481.46 573.77 481.35 C 569.69 477.17 564.62 474.24 559.57 471.40 C 547.89 463.97 537.66 454.56 526.44 446.50 C 523.72 444.48 520.46 443.42 517.26 442.45 C 517.26 453.12 519.13 463.70 518.55 474.40 C 516.30 477.77 513.08 480.40 508.78 479.76 C 507.00 477.93 505.21 476.13 503.40 474.33 C 503.36 463.87 505.86 453.41 502.93 443.06 C 502.28 423.03 498.20 402.74 501.93 382.81 Z" />
<path fill="#32c5d2" opacity="1.00" d=" M 414.46 386.53 C 431.03 381.06 450.19 378.42 466.30 386.77 C 472.28 390.81 472.96 399.69 469.72 405.72 C 464.27 416.26 453.59 422.29 445.03 429.94 C 452.26 438.37 461.29 445.01 468.77 453.23 C 475.33 460.76 483.64 466.41 490.49 473.63 C 490.45 474.59 490.35 476.51 490.31 477.48 C 478.28 480.52 468.51 470.99 460.81 463.18 C 449.96 452.51 439.39 439.52 423.76 436.18 C 421.54 445.86 423.52 455.62 424.40 465.31 C 424.85 468.18 422.26 470.01 420.86 472.14 C 417.13 470.49 412.56 469.38 410.65 465.35 C 408.37 460.09 410.44 454.34 411.14 448.96 C 412.67 442.07 407.60 435.58 409.72 428.68 C 412.80 416.59 408.43 404.64 407.25 392.68 C 409.47 390.46 411.47 387.78 414.46 386.53 M 429.15 394.76 C 420.01 400.76 424.40 412.50 423.50 421.54 C 425.80 422.05 428.09 422.58 430.37 423.16 C 439.83 417.67 448.67 410.88 454.83 401.71 C 454.84 400.10 454.89 398.50 454.97 396.90 C 446.96 392.80 437.75 394.85 429.15 394.76 Z" />
<path fill="#32c5d2" opacity="1.00" d=" M 821.77 384.10 C 826.59 380.63 832.11 383.06 837.04 384.81 C 842.52 386.66 850.59 384.06 853.61 390.46 C 856.48 394.94 852.35 399.30 849.61 402.58 C 846.01 402.56 842.42 402.58 838.84 402.63 C 837.80 403.75 836.77 404.87 835.76 406.00 C 834.66 427.08 831.61 448.43 834.65 469.45 C 842.93 468.88 851.30 470.06 858.39 474.63 C 858.43 475.61 858.52 477.56 858.57 478.54 C 855.67 481.36 852.59 484.00 849.41 486.51 C 839.18 486.41 828.75 487.48 818.82 484.38 C 810.45 481.69 800.82 483.97 793.36 478.60 C 793.37 477.25 793.40 475.91 793.44 474.58 C 795.23 472.93 797.02 471.29 798.83 469.65 C 805.64 469.61 812.46 469.63 819.29 469.50 C 819.53 468.87 820.01 467.61 820.26 466.98 C 815.65 451.87 820.85 436.32 820.46 421.00 C 820.57 413.86 820.36 406.71 819.43 399.63 C 816.33 398.50 813.22 397.38 810.07 396.43 C 805.63 400.47 798.11 396.04 800.00 390.29 C 804.06 382.57 814.41 383.71 821.77 384.10 Z" />
<path fill="#32c5d2" opacity="1.00" d=" M 587.50 393.42 C 588.39 388.74 592.34 385.75 596.95 385.27 C 599.19 386.98 601.46 388.67 603.74 390.35 C 614.17 390.14 624.62 390.57 635.05 390.19 C 642.17 389.12 649.29 387.78 656.54 388.37 C 657.83 389.86 659.13 391.34 660.44 392.82 C 660.52 395.34 660.58 397.87 660.65 400.40 C 659.81 401.07 658.99 401.75 658.17 402.43 C 643.43 402.86 628.68 402.41 613.94 402.63 C 609.67 402.81 604.11 404.03 602.83 408.78 C 601.73 414.71 603.35 420.71 603.45 426.67 C 606.01 429.15 609.41 430.24 612.88 430.72 C 614.22 429.69 615.58 428.67 616.94 427.65 C 628.86 428.57 642.28 424.64 652.61 432.46 C 652.62 433.86 652.63 435.27 652.66 436.68 C 646.28 441.54 637.77 441.16 630.33 439.48 C 622.73 437.11 615.22 441.64 607.49 440.56 C 603.06 447.25 604.64 456.22 610.40 461.59 C 620.88 461.45 631.46 461.62 641.68 458.85 C 649.42 456.46 657.55 457.43 665.51 457.43 C 668.37 459.92 671.03 462.63 673.50 465.51 C 673.51 466.50 673.51 468.48 673.51 469.47 C 665.92 477.57 653.59 478.69 643.11 478.13 C 640.58 475.85 637.69 473.50 634.08 473.67 C 622.38 473.64 610.68 473.64 598.98 473.75 C 586.68 461.41 591.62 442.71 590.59 427.16 C 590.33 415.87 584.95 404.73 587.50 393.42 Z" />
<path fill="#32c5d2" opacity="1.00" d=" M 986.85 397.80 C 995.63 392.51 1006.08 388.33 1016.46 390.82 C 1022.30 392.64 1027.83 395.48 1032.67 399.23 C 1032.66 399.87 1032.64 401.16 1032.62 401.81 C 1023.60 409.14 1012.46 398.97 1002.68 403.75 C 990.17 409.65 981.67 421.42 975.26 433.30 C 970.98 440.85 968.90 451.70 975.17 458.77 C 978.06 462.44 983.26 461.74 987.06 460.03 C 995.65 456.20 1002.82 449.84 1009.30 443.13 C 1009.09 442.44 1008.68 441.07 1008.48 440.39 C 1000.27 440.37 992.06 440.53 983.85 440.37 C 983.62 439.00 983.41 437.64 983.22 436.29 C 994.30 430.56 1006.58 427.05 1018.99 425.75 C 1028.27 422.53 1039.59 422.06 1047.78 428.23 C 1050.13 429.73 1049.36 432.79 1049.65 435.15 C 1043.04 436.87 1035.58 437.42 1030.55 442.60 C 1031.42 448.89 1030.83 455.52 1033.56 461.43 C 1035.30 465.22 1035.86 469.37 1035.78 473.51 C 1032.96 473.57 1030.14 473.63 1027.33 473.70 C 1020.89 468.63 1018.48 460.69 1016.23 453.18 C 1008.61 459.18 1000.60 464.63 992.11 469.32 C 984.58 469.69 976.31 470.82 969.71 466.30 C 959.02 460.48 955.29 446.72 958.36 435.49 C 961.85 419.47 973.78 406.89 986.85 397.80 Z" />
</g>
</svg>
