<?xml version="1.0" encoding="UTF-8" ?>
<!DOCTYPE svg PUBLIC "-//W3C//DTD SVG 1.1//EN" "http://www.w3.org/Graphics/SVG/1.1/DTD/svg11.dtd">
<svg width="567pt" height="355pt" viewBox="0 0 567 355" version="1.1" xmlns="http://www.w3.org/2000/svg">
<g id="#00151f2e">
<path fill="#00151f" opacity="0.18" d=" M 335.65 0.00 L 355.35 0.00 C 410.96 2.62 466.77 21.35 510.09 56.89 C 532.67 74.31 550.99 98.20 558.97 125.82 C 559.66 128.63 559.75 131.54 559.85 134.42 C 555.06 127.88 555.27 119.37 551.83 112.23 C 542.74 91.84 528.55 73.77 511.16 59.83 C 462.88 19.86 399.29 0.27 336.99 1.75 C 322.65 1.69 308.35 4.57 295.13 10.11 C 278.02 16.37 260.78 22.79 242.74 25.80 C 234.13 27.91 229.04 16.99 220.45 19.17 C 194.71 23.66 170.68 34.64 147.63 46.59 C 143.52 48.71 139.71 51.32 135.92 53.95 C 129.93 57.78 124.40 62.27 118.99 66.87 C 97.98 83.59 83.68 108.23 77.14 134.13 C 68.56 171.63 81.33 210.96 103.78 241.20 C 116.14 257.96 131.05 273.31 149.00 284.08 C 152.84 286.90 156.75 289.65 160.87 292.07 C 192.49 313.17 230.44 323.34 267.96 327.03 C 303.70 329.03 339.33 321.84 373.32 311.30 C 425.45 294.23 475.94 268.96 516.30 231.29 C 531.15 217.30 544.28 201.04 552.18 182.07 C 555.22 175.08 555.81 167.18 559.85 160.60 C 559.92 165.00 559.66 169.52 557.85 173.60 C 553.77 183.02 550.56 193.00 544.20 201.22 C 527.17 226.79 503.24 247.02 477.68 263.70 C 433.92 292.41 384.70 312.67 333.52 323.55 C 304.22 328.98 273.82 332.26 244.40 325.70 C 186.68 315.94 131.52 284.74 97.71 236.31 C 90.29 223.19 81.65 210.39 78.08 195.54 C 68.70 168.54 70.67 138.18 82.17 112.15 C 89.79 97.20 98.70 82.60 111.20 71.20 C 125.92 55.12 145.63 45.00 165.23 36.16 C 178.60 29.83 192.32 24.06 206.67 20.37 C 212.62 18.83 218.73 16.78 224.95 17.58 C 230.84 18.36 234.67 24.63 240.75 24.41 C 262.66 20.90 283.32 12.46 304.11 5.07 C 314.20 1.29 324.98 0.43 335.65 0.00 Z" />
</g>
<g id="#003b557d">
<path fill="#003b55" opacity="0.49" d=" M 295.13 10.11 C 308.35 4.57 322.65 1.69 336.99 1.75 C 399.29 0.27 462.88 19.86 511.16 59.83 C 528.55 73.77 542.74 91.84 551.83 112.23 C 555.27 119.37 555.06 127.88 559.85 134.42 C 560.14 143.15 559.97 151.87 559.85 160.60 C 555.81 167.18 555.22 175.08 552.18 182.07 C 544.28 201.04 531.15 217.30 516.30 231.29 C 475.94 268.96 425.45 294.23 373.32 311.30 C 339.33 321.84 303.70 329.03 267.96 327.03 C 230.44 323.34 192.49 313.17 160.87 292.07 C 169.72 295.60 177.61 301.11 186.49 304.57 C 224.94 321.22 267.85 330.06 309.66 323.79 C 327.45 322.02 344.90 317.90 362.10 313.14 C 411.21 298.74 458.38 276.46 498.70 244.71 C 517.32 229.72 534.66 212.38 546.10 191.17 C 555.55 172.29 560.11 150.04 554.80 129.28 C 550.51 107.19 537.77 87.66 522.25 71.74 C 479.47 30.41 420.85 8.07 362.04 3.78 C 340.22 2.22 317.46 2.59 296.92 10.96 C 279.15 17.56 261.21 24.10 242.53 27.55 C 234.26 29.59 229.34 19.49 221.18 20.88 C 190.55 25.08 163.30 40.67 135.92 53.95 C 139.71 51.32 143.52 48.71 147.63 46.59 C 170.68 34.64 194.71 23.66 220.45 19.17 C 229.04 16.99 234.13 27.91 242.74 25.80 C 260.78 22.79 278.02 16.37 295.13 10.11 Z" />
</g>
<g id="#005c85c3">
<path fill="#005c85" opacity="0.76" d=" M 296.92 10.96 C 317.46 2.59 340.22 2.22 362.04 3.78 C 420.85 8.07 479.47 30.41 522.25 71.74 C 537.77 87.66 550.51 107.19 554.80 129.28 C 560.11 150.04 555.55 172.29 546.10 191.17 C 534.66 212.38 517.32 229.72 498.70 244.71 C 458.38 276.46 411.21 298.74 362.10 313.14 C 344.90 317.90 327.45 322.02 309.66 323.79 C 267.85 330.06 224.94 321.22 186.49 304.57 C 177.61 301.11 169.72 295.60 160.87 292.07 C 156.75 289.65 152.84 286.90 149.00 284.08 C 140.23 276.14 130.53 269.25 122.43 260.58 C 94.06 232.25 74.25 192.76 76.87 151.95 C 77.90 128.53 87.22 105.88 101.27 87.27 C 106.70 80.07 113.36 73.91 118.99 66.87 C 124.40 62.27 129.93 57.78 135.92 53.95 C 163.30 40.67 190.55 25.08 221.18 20.88 C 229.34 19.49 234.26 29.59 242.53 27.55 C 261.21 24.10 279.15 17.56 296.92 10.96 M 329.40 5.59 C 306.90 6.40 286.97 17.57 265.68 23.51 C 256.06 26.02 246.39 30.40 236.24 28.63 C 231.63 27.75 228.52 23.39 223.90 22.67 C 205.97 23.94 189.12 30.82 172.73 37.73 C 156.13 45.55 139.19 53.23 124.80 64.81 C 104.24 82.84 87.03 106.38 81.84 133.69 C 72.73 172.52 85.97 213.90 110.52 244.45 C 138.85 280.28 180.11 304.89 224.23 315.82 C 235.93 318.50 247.41 322.64 259.58 322.48 C 309.29 327.57 358.84 314.92 404.73 296.62 C 438.20 282.87 470.50 265.55 498.55 242.53 C 512.77 231.57 525.71 218.79 535.93 203.97 C 558.66 173.99 559.74 130.31 540.67 98.25 C 533.68 87.81 526.34 77.49 516.91 69.09 C 496.36 50.12 472.23 34.97 446.04 25.08 C 427.04 16.17 406.24 12.75 386.02 8.02 C 367.18 6.80 348.31 3.33 329.40 5.59 Z" />
</g>
<g id="#0079afff">
<path fill="#0079af" opacity="1.00" d=" M 329.40 5.59 C 348.31 3.33 367.18 6.80 386.02 8.02 C 406.24 12.75 427.04 16.17 446.04 25.08 C 472.23 34.97 496.36 50.12 516.91 69.09 C 526.34 77.49 533.68 87.81 540.67 98.25 C 559.74 130.31 558.66 173.99 535.93 203.97 C 525.71 218.79 512.77 231.57 498.55 242.53 C 470.50 265.55 438.20 282.87 404.73 296.62 C 358.84 314.92 309.29 327.57 259.58 322.48 C 247.41 322.64 235.93 318.50 224.23 315.82 C 180.11 304.89 138.85 280.28 110.52 244.45 C 85.97 213.90 72.73 172.52 81.84 133.69 C 87.03 106.38 104.24 82.84 124.80 64.81 C 139.19 53.23 156.13 45.55 172.73 37.73 C 189.12 30.82 205.97 23.94 223.90 22.67 C 228.52 23.39 231.63 27.75 236.24 28.63 C 246.39 30.40 256.06 26.02 265.68 23.51 C 286.97 17.57 306.90 6.40 329.40 5.59 M 328.40 21.52 C 324.75 21.81 320.96 22.08 317.63 23.74 C 315.59 26.84 319.70 29.80 322.43 30.47 C 334.62 32.70 347.14 32.26 359.31 34.62 C 376.25 37.54 393.69 36.21 410.45 40.41 C 422.43 41.39 434.22 44.02 445.38 48.51 C 449.06 49.46 455.14 51.51 457.12 46.90 C 456.74 44.60 454.53 43.36 452.74 42.21 C 437.34 33.85 420.41 28.39 403.05 26.01 C 378.65 20.20 353.30 20.96 328.40 21.52 M 293.44 40.36 C 273.58 41.49 253.40 41.67 234.16 47.30 C 207.98 55.22 182.97 66.73 159.20 80.21 C 143.04 90.13 126.22 100.18 114.34 115.32 C 106.52 125.72 99.77 137.27 96.98 150.10 C 95.16 160.79 95.52 171.82 97.47 182.47 C 103.63 205.06 117.42 224.77 133.78 241.22 C 151.04 256.92 170.08 270.86 191.25 280.83 C 207.01 289.11 224.29 293.68 241.24 298.76 C 261.34 302.16 282.00 305.87 302.32 301.52 C 329.25 297.34 354.91 287.78 380.33 278.27 C 406.26 267.21 431.12 253.76 455.28 239.28 C 477.06 224.56 499.14 209.49 516.26 189.27 C 526.90 177.05 537.28 162.82 538.02 146.03 C 536.21 127.20 524.15 111.67 511.71 98.29 C 497.65 84.54 481.45 72.73 463.51 64.59 C 445.84 58.16 427.85 51.86 409.07 49.79 C 397.68 46.04 385.55 46.99 373.98 44.09 C 347.20 41.94 320.32 39.81 293.44 40.36 Z" />
<path fill="#0079af" opacity="1.00" d=" M 68.52 247.46 C 73.32 240.74 76.01 232.78 81.09 226.28 C 86.09 232.32 83.43 240.87 80.03 247.02 C 71.73 261.17 60.34 273.30 52.84 287.96 C 43.19 303.83 36.13 321.61 23.88 335.70 C 21.52 333.11 20.49 329.58 22.40 326.40 C 35.93 299.05 53.04 273.71 68.52 247.46 Z" />
<path fill="#0079af" opacity="1.00" d=" M 9.06 288.33 C 22.67 304.34 7.37 325.92 13.31 343.73 C 17.91 347.22 24.59 344.30 29.67 342.88 C 46.09 337.84 60.06 325.71 77.43 323.94 C 72.36 330.63 64.51 334.11 57.57 338.44 C 44.66 346.02 30.12 349.85 16.18 355.00 L 11.50 355.00 C 4.56 342.45 4.72 327.63 5.81 313.75 C 6.72 305.26 6.65 296.59 9.06 288.33 Z" />
</g>
<g id="#00567db7">
<path fill="#00567d" opacity="0.72" d=" M 328.40 21.52 C 353.30 20.96 378.65 20.20 403.05 26.01 C 420.41 28.39 437.34 33.85 452.74 42.21 C 454.53 43.36 456.74 44.60 457.12 46.90 C 455.14 51.51 449.06 49.46 445.38 48.51 C 434.22 44.02 422.43 41.39 410.45 40.41 C 393.69 36.21 376.25 37.54 359.31 34.62 C 347.14 32.26 334.62 32.70 322.43 30.47 C 319.70 29.80 315.59 26.84 317.63 23.74 C 320.96 22.08 324.75 21.81 328.40 21.52 M 322.23 26.03 C 334.64 31.71 348.66 31.46 361.99 32.84 C 381.67 34.88 401.45 36.32 420.90 40.02 C 432.16 40.36 442.12 48.17 453.41 46.97 C 448.21 40.36 439.70 37.93 432.21 34.91 C 402.48 25.63 371.11 22.07 340.01 23.05 C 334.02 23.23 327.21 21.79 322.23 26.03 Z" />
</g>
<g id="#002e4362">
<path fill="#002e43" opacity="0.38" d=" M 322.23 26.03 C 327.21 21.79 334.02 23.23 340.01 23.05 C 371.11 22.07 402.48 25.63 432.21 34.91 C 439.70 37.93 448.21 40.36 453.41 46.97 C 442.12 48.17 432.16 40.36 420.90 40.02 C 401.45 36.32 381.67 34.88 361.99 32.84 C 348.66 31.46 334.64 31.71 322.23 26.03 M 328.97 25.34 C 333.25 27.19 337.71 28.79 342.39 29.27 C 370.27 31.78 398.24 33.91 425.79 39.03 C 431.90 40.39 437.79 43.02 444.17 42.85 C 437.41 37.60 428.98 35.51 420.87 33.32 C 390.87 26.43 359.73 22.49 328.97 25.34 Z" />
</g>
<g id="#005378af">
<path fill="#005378" opacity="0.69" d=" M 293.44 40.36 C 320.32 39.81 347.20 41.94 373.98 44.09 C 385.55 46.99 397.68 46.04 409.07 49.79 C 427.85 51.86 445.84 58.16 463.51 64.59 C 481.45 72.73 497.65 84.54 511.71 98.29 C 524.15 111.67 536.21 127.20 538.02 146.03 C 537.28 162.82 526.90 177.05 516.26 189.27 C 499.14 209.49 477.06 224.56 455.28 239.28 C 431.12 253.76 406.26 267.21 380.33 278.27 C 354.91 287.78 329.25 297.34 302.32 301.52 C 282.00 305.87 261.34 302.16 241.24 298.76 C 224.29 293.68 207.01 289.11 191.25 280.83 C 170.08 270.86 151.04 256.92 133.78 241.22 C 117.42 224.77 103.63 205.06 97.47 182.47 C 95.52 171.82 95.16 160.79 96.98 150.10 C 99.77 137.27 106.52 125.72 114.34 115.32 C 126.22 100.18 143.04 90.13 159.20 80.21 C 182.97 66.73 207.98 55.22 234.16 47.30 C 253.40 41.67 273.58 41.49 293.44 40.36 M 306.26 42.59 C 279.35 42.98 251.68 42.89 226.01 52.03 C 202.11 60.00 179.29 70.99 157.43 83.44 C 141.66 93.08 125.52 103.37 114.63 118.66 C 106.38 129.21 101.17 141.92 98.96 155.08 C 96.23 175.47 102.74 196.14 113.81 213.16 C 137.01 248.64 173.89 273.12 213.02 287.98 C 244.13 299.28 278.19 304.85 310.94 297.89 C 369.30 285.24 423.92 258.58 472.98 224.96 C 494.87 208.90 516.51 190.79 529.55 166.51 C 534.78 157.29 536.90 145.94 533.24 135.78 C 525.23 111.72 505.84 93.59 485.57 79.44 C 462.29 62.55 433.69 55.84 405.83 51.14 C 373.02 45.26 339.59 42.89 306.26 42.59 Z" />
</g>
<g id="#00273853">
<path fill="#002738" opacity="0.33" d=" M 306.26 42.59 C 339.59 42.89 373.02 45.26 405.83 51.14 C 433.69 55.84 462.29 62.55 485.57 79.44 C 505.84 93.59 525.23 111.72 533.24 135.78 C 536.90 145.94 534.78 157.29 529.55 166.51 C 516.51 190.79 494.87 208.90 472.98 224.96 C 423.92 258.58 369.30 285.24 310.94 297.89 C 278.19 304.85 244.13 299.28 213.02 287.98 C 173.89 273.12 137.01 248.64 113.81 213.16 C 102.74 196.14 96.23 175.47 98.96 155.08 C 101.17 141.92 106.38 129.21 114.63 118.66 C 125.52 103.37 141.66 93.08 157.43 83.44 C 179.29 70.99 202.11 60.00 226.01 52.03 C 251.68 42.89 279.35 42.98 306.26 42.59 M 273.41 45.52 C 246.97 46.65 221.35 54.25 197.46 65.36 C 179.48 73.45 161.64 82.15 145.44 93.48 C 124.57 106.36 106.73 126.68 102.46 151.43 C 98.97 165.01 102.02 179.15 105.90 192.29 C 118.57 223.57 143.74 248.42 172.23 265.72 C 212.16 290.59 260.61 303.94 307.60 296.39 C 367.07 284.01 422.95 257.20 472.65 222.64 C 488.10 211.00 503.51 198.87 515.51 183.54 C 524.99 171.94 534.06 157.72 531.89 142.04 C 529.38 125.34 518.22 111.87 507.20 99.78 C 489.32 82.76 468.18 68.41 444.09 61.95 C 430.55 57.17 416.21 55.85 402.28 52.67 C 359.74 45.74 316.47 43.49 273.41 45.52 Z" />
</g>
<g id="#003c577f">
<path fill="#003c57" opacity="0.50" d=" M 77.14 134.13 C 83.68 108.23 97.98 83.59 118.99 66.87 C 113.36 73.91 106.70 80.07 101.27 87.27 C 87.22 105.88 77.90 128.53 76.87 151.95 C 74.25 192.76 94.06 232.25 122.43 260.58 C 130.53 269.25 140.23 276.14 149.00 284.08 C 131.05 273.31 116.14 257.96 103.78 241.20 C 81.33 210.96 68.56 171.63 77.14 134.13 Z" />
</g>
<g id="#797978ff">
<path fill="#797978" opacity="1.00" d=" M 314.54 92.23 C 314.34 89.26 319.20 88.20 319.91 91.20 C 321.00 97.09 319.40 103.07 319.45 109.00 C 318.57 124.12 320.41 139.21 320.01 154.30 C 313.31 156.56 313.17 149.01 312.85 144.41 C 303.96 144.70 294.47 142.44 287.98 136.04 C 282.19 129.60 283.93 116.65 292.68 113.71 C 299.77 111.75 306.11 116.59 311.76 120.15 C 312.43 110.82 313.30 101.50 314.54 92.23 M 292.89 132.15 C 298.11 137.12 305.47 138.69 312.33 139.97 C 314.53 129.58 304.31 120.15 294.23 121.79 C 290.01 123.20 289.78 129.46 292.89 132.15 Z" />
<path fill="#797978" opacity="1.00" d=" M 209.30 112.11 C 213.07 106.18 215.84 98.22 223.11 95.81 C 228.24 95.13 229.11 101.98 228.67 105.73 C 227.29 114.87 218.04 119.67 210.10 122.32 C 210.02 133.27 216.16 145.29 210.22 155.50 C 208.49 152.65 207.18 149.54 206.78 146.21 C 204.62 131.59 203.24 116.82 203.14 102.03 C 203.91 101.97 205.46 101.85 206.23 101.79 C 207.41 105.18 208.38 108.64 209.30 112.11 M 209.54 118.91 C 218.03 115.99 227.19 108.43 224.15 98.37 C 216.30 102.37 211.87 110.76 209.54 118.91 Z" />
<path fill="#797978" opacity="1.00" d=" M 258.61 110.45 C 259.24 110.33 260.48 110.10 261.10 109.98 C 261.71 114.30 261.63 118.66 261.54 123.00 C 261.40 133.34 264.60 143.27 267.03 153.20 C 265.05 153.97 262.24 155.86 260.73 153.29 C 256.20 146.34 256.90 137.58 255.48 129.71 C 251.15 135.96 249.67 144.73 242.60 148.66 C 239.35 150.71 234.71 149.15 233.71 145.35 C 231.32 135.87 235.43 125.01 243.77 119.76 C 248.46 116.12 255.89 116.46 258.61 110.45 M 242.15 144.35 C 249.92 138.10 252.91 127.77 255.97 118.65 C 244.64 121.21 239.04 133.67 242.15 144.35 Z" />
<path fill="#797978" opacity="1.00" d=" M 274.23 110.11 C 275.44 110.13 276.66 110.16 277.88 110.19 C 277.88 111.38 277.89 112.57 277.90 113.76 C 276.67 113.78 275.44 113.80 274.21 113.83 C 274.22 112.59 274.22 111.35 274.23 110.11 Z" />
<path fill="#797978" opacity="1.00" d=" M 273.68 116.73 C 274.55 116.84 276.28 117.06 277.15 117.16 C 279.85 125.91 278.54 135.17 279.66 144.14 C 279.63 147.75 281.13 151.93 278.86 155.12 C 274.63 154.51 273.94 149.83 273.58 146.36 C 272.69 136.53 271.61 126.49 273.68 116.73 Z" />
<path fill="#797978" opacity="1.00" d=" M 377.91 166.18 C 380.20 166.97 383.21 167.61 383.31 170.60 C 385.21 185.72 383.79 201.16 386.27 216.23 C 387.94 207.13 387.67 196.58 394.37 189.38 C 396.99 186.23 401.99 188.36 403.17 191.77 C 405.70 198.34 404.98 205.54 405.57 212.42 C 405.91 218.88 407.60 225.24 407.21 231.74 C 404.77 230.76 401.86 229.91 400.79 227.21 C 395.61 216.72 398.51 204.73 397.02 193.57 C 391.21 203.10 391.26 214.58 389.12 225.20 C 388.60 229.02 385.09 231.02 381.98 232.60 C 375.84 218.00 377.82 201.49 377.15 186.00 C 377.19 179.39 376.67 172.72 377.91 166.18 Z" />
<path fill="#797978" opacity="1.00" d=" M 203.32 187.69 C 201.36 179.77 209.15 172.13 216.94 172.89 C 223.57 173.31 228.73 178.90 230.43 185.05 C 225.64 183.29 219.69 178.64 214.97 183.06 C 211.46 186.08 216.39 188.78 218.80 190.23 C 229.91 196.29 235.84 211.05 230.96 222.92 C 228.31 229.94 219.68 233.75 212.68 231.26 C 205.25 228.36 201.10 218.50 205.18 211.39 C 207.34 215.06 206.97 219.50 208.64 223.32 C 212.55 229.44 223.38 225.76 224.07 218.93 C 224.97 211.59 222.18 203.40 215.74 199.30 C 211.16 196.06 204.78 193.75 203.32 187.69 Z" />
<path fill="#797978" opacity="1.00" d=" M 238.50 199.41 C 240.54 193.70 244.88 188.16 251.14 187.01 C 259.21 185.13 268.06 193.94 265.07 202.02 C 262.36 210.20 254.38 215.19 246.47 217.46 C 247.46 221.35 249.92 226.31 254.73 225.65 C 260.46 223.03 260.59 215.10 266.20 212.29 C 265.11 218.70 261.73 224.61 257.14 229.15 C 252.00 234.27 242.27 232.36 239.19 225.84 C 235.08 217.74 235.69 207.83 238.50 199.41 M 252.75 194.66 C 246.38 198.90 245.70 207.46 246.07 214.42 C 253.51 212.83 261.23 207.11 261.74 198.99 C 261.99 194.55 256.12 192.13 252.75 194.66 Z" />
<path fill="#797978" opacity="1.00" d=" M 289.80 193.92 C 294.14 192.95 297.20 189.75 299.95 186.49 C 302.15 192.40 300.86 198.72 301.28 204.85 C 301.81 213.57 304.30 222.01 306.67 230.37 C 304.73 231.05 301.88 233.13 300.34 230.70 C 295.74 223.72 296.39 214.88 294.92 206.95 C 291.45 212.78 289.56 219.75 284.47 224.46 C 281.47 227.41 275.20 228.10 273.55 223.37 C 269.56 211.22 277.76 197.47 289.80 193.92 M 281.38 221.52 C 289.61 215.88 292.52 204.99 295.40 195.89 C 284.32 198.85 278.75 210.74 281.38 221.52 Z" />
<path fill="#797978" opacity="1.00" d=" M 312.13 188.14 C 313.68 187.77 315.25 187.42 316.82 187.09 C 318.39 190.74 319.72 194.50 320.91 198.30 C 324.32 194.02 327.28 187.09 333.61 187.15 C 338.22 191.76 336.99 199.32 335.99 205.17 C 333.46 200.67 333.13 195.45 332.00 190.52 C 326.71 195.13 321.39 201.40 322.04 208.89 C 322.80 216.38 324.78 223.75 324.56 231.34 C 322.44 231.60 320.32 231.84 318.20 232.07 C 314.68 217.69 313.40 202.86 312.13 188.14 Z" />
<path fill="#797978" opacity="1.00" d=" M 346.73 197.70 C 349.19 191.68 355.04 186.34 361.93 187.10 C 367.18 187.06 372.89 191.37 371.29 197.10 C 367.58 194.94 362.23 189.55 358.32 194.25 C 352.53 202.25 350.30 214.29 354.90 223.20 C 361.15 228.64 363.84 218.30 368.06 215.49 C 368.15 222.22 364.41 229.60 357.71 231.74 C 351.29 233.58 345.33 228.14 343.87 222.20 C 341.93 214.03 343.65 205.37 346.73 197.70 Z" />
</g>
<g id="#000e151f">
<path fill="#000e15" opacity="0.12" d=" M 75.24 226.27 C 76.49 223.66 79.37 220.71 82.50 222.26 C 87.71 226.07 90.48 233.56 87.87 239.69 C 82.54 253.36 72.22 264.14 64.37 276.32 C 50.38 296.75 42.11 320.94 25.40 339.48 C 43.44 335.55 58.12 322.68 76.33 319.21 C 78.90 318.88 81.48 319.33 84.04 319.63 C 82.93 323.25 81.55 327.09 78.23 329.27 C 62.87 340.52 46.04 350.54 27.37 355.00 L 21.32 355.00 C 41.60 349.70 61.04 340.62 77.44 327.50 C 79.04 325.93 79.90 323.80 80.92 321.85 C 72.19 320.61 64.21 325.00 56.54 328.46 C 43.14 334.73 29.75 343.23 14.43 342.97 C 12.34 326.81 20.82 310.62 15.44 294.76 C 14.10 291.52 12.40 286.53 8.17 286.70 C 4.62 288.56 5.31 293.56 4.68 296.97 C 3.76 316.22 -0.67 337.20 9.11 355.00 L 0.00 355.00 L 0.00 310.25 C 3.83 303.18 1.84 295.06 3.46 287.56 C 4.84 282.69 11.69 283.30 13.82 287.28 C 22.52 299.00 17.59 314.05 17.41 327.32 C 22.50 319.79 25.28 310.99 30.29 303.39 C 44.55 277.27 62.42 253.19 75.24 226.27 M 79.42 225.09 C 76.54 227.57 75.28 231.33 73.44 234.56 C 56.55 265.08 36.34 293.70 20.88 325.02 C 19.12 328.29 18.67 332.64 21.46 335.51 C 23.32 337.88 26.68 336.07 28.09 334.12 C 41.61 315.28 50.54 293.64 63.39 274.37 C 70.23 263.89 79.21 254.75 84.27 243.17 C 86.56 238.05 87.50 231.66 84.31 226.71 C 83.41 225.06 81.11 223.88 79.42 225.09 Z" />
</g>
<g id="#00476898">
<path fill="#004768" opacity="0.60" d=" M 79.42 225.09 C 81.11 223.88 83.41 225.06 84.31 226.71 C 87.50 231.66 86.56 238.05 84.27 243.17 C 79.21 254.75 70.23 263.89 63.39 274.37 C 50.54 293.64 41.61 315.28 28.09 334.12 C 26.68 336.07 23.32 337.88 21.46 335.51 C 18.67 332.64 19.12 328.29 20.88 325.02 C 36.34 293.70 56.55 265.08 73.44 234.56 C 75.28 231.33 76.54 227.57 79.42 225.09 M 68.52 247.46 C 53.04 273.71 35.93 299.05 22.40 326.40 C 20.49 329.58 21.52 333.11 23.88 335.70 C 36.13 321.61 43.19 303.83 52.84 287.96 C 60.34 273.30 71.73 261.17 80.03 247.02 C 83.43 240.87 86.09 232.32 81.09 226.28 C 76.01 232.78 73.32 240.74 68.52 247.46 Z" />
</g>
<g id="#0042608c">
<path fill="#004260" opacity="0.55" d=" M 4.68 296.97 C 5.31 293.56 4.62 288.56 8.17 286.70 C 12.40 286.53 14.10 291.52 15.44 294.76 C 20.82 310.62 12.34 326.81 14.43 342.97 C 29.75 343.23 43.14 334.73 56.54 328.46 C 64.21 325.00 72.19 320.61 80.92 321.85 C 79.90 323.80 79.04 325.93 77.44 327.50 C 61.04 340.62 41.60 349.70 21.32 355.00 L 16.18 355.00 C 30.12 349.85 44.66 346.02 57.57 338.44 C 64.51 334.11 72.36 330.63 77.43 323.94 C 60.06 325.71 46.09 337.84 29.67 342.88 C 24.59 344.30 17.91 347.22 13.31 343.73 C 7.37 325.92 22.67 304.34 9.06 288.33 C 6.65 296.59 6.72 305.26 5.81 313.75 C 4.72 327.63 4.56 342.45 11.50 355.00 L 9.11 355.00 C -0.67 337.20 3.76 316.22 4.68 296.97 Z" />
</g>
</svg>
