<?xml version="1.0" encoding="UTF-8" ?>
<!DOCTYPE svg PUBLIC "-//W3C//DTD SVG 1.1//EN" "http://www.w3.org/Graphics/SVG/1.1/DTD/svg11.dtd">
<svg width="567pt" height="355pt" viewBox="0 0 567 355" version="1.1" xmlns="http://www.w3.org/2000/svg">
<g id="#0000002e">
<path fill="#000000" opacity="0.18" d=" M 335.65 0.00 L 355.34 0.00 C 367.12 1.28 379.18 0.57 390.63 4.16 C 423.59 8.89 455.12 21.32 483.75 38.13 C 494.12 43.31 502.34 51.65 511.82 58.16 C 532.36 74.66 549.44 96.38 557.60 121.66 C 559.41 125.68 560.24 130.06 559.88 134.46 C 555.19 129.37 555.69 121.98 553.17 115.89 C 546.36 97.97 534.79 82.18 521.30 68.70 C 472.57 23.37 405.11 0.52 339.01 1.82 C 326.87 1.70 314.66 3.27 303.12 7.13 C 283.11 14.57 263.03 22.48 241.87 25.94 C 233.83 27.69 229.39 17.26 221.33 19.18 C 199.71 22.62 179.16 30.91 159.63 40.58 C 151.48 44.59 143.17 48.45 135.89 53.95 C 119.11 64.75 105.17 79.46 94.05 95.96 C 75.45 121.90 70.28 156.33 77.87 187.10 C 86.65 221.34 107.66 251.82 134.83 274.16 C 139.10 278.08 143.93 281.31 149.04 284.04 C 152.84 286.91 156.73 289.67 160.85 292.08 C 192.78 313.34 231.10 323.46 268.95 327.12 C 321.05 329.19 372.27 314.21 419.64 293.63 C 430.85 287.86 442.98 283.72 453.15 276.08 C 463.35 270.16 473.49 264.09 482.98 257.07 C 488.55 254.61 493.51 251.06 498.10 247.09 C 521.88 227.95 544.67 205.05 554.55 175.46 C 556.13 170.09 556.86 164.41 559.78 159.53 C 561.45 167.15 557.54 174.00 554.79 180.79 C 549.82 195.40 539.98 207.56 530.46 219.43 C 497.50 255.58 454.30 280.60 409.76 299.82 C 379.30 312.01 347.77 322.40 315.08 326.33 C 280.45 333.24 244.80 327.65 211.29 317.89 C 170.94 304.29 133.09 281.15 106.28 247.64 C 95.98 235.58 88.88 221.24 81.84 207.15 C 78.39 196.17 74.08 185.28 73.16 173.70 C 67.70 136.37 83.64 98.19 110.16 72.15 C 124.83 56.10 144.25 45.53 163.89 36.79 C 182.02 28.14 200.95 20.34 220.92 17.42 C 227.87 16.19 232.64 22.05 238.42 24.54 C 243.37 24.76 248.08 22.51 252.96 21.84 C 281.05 16.32 306.35 -0.66 335.65 0.00 Z" />
</g>
<g id="#0000007f">
<path fill="#000000" opacity="0.50" d=" M 303.12 7.13 C 314.66 3.27 326.87 1.70 339.01 1.82 C 405.11 0.52 472.57 23.37 521.30 68.70 C 534.79 82.18 546.36 97.97 553.17 115.89 C 555.69 121.98 555.19 129.37 559.88 134.46 C 560.01 142.82 560.20 151.18 559.78 159.53 C 556.86 164.41 556.13 170.09 554.55 175.46 C 544.67 205.05 521.88 227.95 498.10 247.09 C 493.51 251.06 488.55 254.61 482.98 257.07 C 507.35 238.40 531.87 218.14 546.46 190.53 C 555.08 172.47 559.86 151.56 555.31 131.73 C 549.86 101.19 529.49 75.12 505.01 57.01 C 460.62 21.43 403.34 4.68 347.02 3.01 C 331.88 3.24 316.41 3.88 302.02 9.05 C 282.34 16.52 262.45 23.97 241.68 27.71 C 233.85 29.24 229.38 19.51 221.64 20.73 C 190.84 25.03 163.42 40.60 135.89 53.95 C 143.17 48.45 151.48 44.59 159.63 40.58 C 179.16 30.91 199.71 22.62 221.33 19.18 C 229.39 17.26 233.83 27.69 241.87 25.94 C 263.03 22.48 283.11 14.57 303.12 7.13 Z" />
</g>
<g id="#000000c2">
<path fill="#000000" opacity="0.76" d=" M 302.02 9.05 C 316.41 3.88 331.88 3.24 347.02 3.01 C 403.34 4.68 460.62 21.43 505.01 57.01 C 529.49 75.12 549.86 101.19 555.31 131.73 C 559.86 151.56 555.08 172.47 546.46 190.53 C 531.87 218.14 507.35 238.40 482.98 257.07 C 473.49 264.09 463.35 270.16 453.15 276.08 C 448.92 277.73 444.77 279.55 440.85 281.84 C 403.83 300.78 364.15 314.76 323.18 322.09 C 302.75 324.90 282.00 327.63 261.42 324.70 C 234.61 321.82 208.29 314.51 183.72 303.38 C 175.70 300.40 168.99 294.79 160.85 292.08 C 156.73 289.67 152.84 286.91 149.04 284.04 C 141.43 276.91 132.69 271.08 125.29 263.70 C 95.35 234.56 73.72 193.64 76.91 150.95 C 77.18 131.29 85.94 113.36 94.05 95.96 C 105.17 79.46 119.11 64.75 135.89 53.95 C 163.42 40.60 190.84 25.03 221.64 20.73 C 229.38 19.51 233.85 29.24 241.68 27.71 C 262.45 23.97 282.34 16.52 302.02 9.05 M 329.39 5.58 C 321.25 7.05 312.76 6.84 304.96 9.90 C 289.31 15.54 273.74 21.51 257.65 25.80 C 251.06 28.04 244.08 29.56 237.09 28.89 C 232.29 28.26 229.15 24.00 224.74 22.47 C 201.08 24.72 178.97 34.48 157.85 44.84 C 141.68 52.75 125.51 61.80 113.71 75.71 C 84.97 103.74 72.38 146.97 82.09 185.99 C 89.86 222.45 113.78 253.57 142.58 276.39 C 166.99 295.53 195.61 308.75 225.62 316.32 C 235.81 318.13 245.47 322.61 256.00 322.16 C 284.93 325.37 314.29 323.14 342.56 316.43 C 396.99 303.34 449.60 280.31 494.13 246.12 C 513.00 231.74 530.15 214.78 542.34 194.26 C 554.06 174.07 556.24 149.53 552.04 126.86 C 546.86 102.86 531.61 82.48 513.84 66.17 C 494.62 49.71 473.17 35.56 449.44 26.51 C 435.96 20.42 421.91 15.63 407.40 12.72 C 398.13 11.65 389.51 7.24 380.04 7.64 C 363.23 5.97 346.29 3.65 329.39 5.58 Z" />
</g>
<g id="#000000ff">
<path fill="#000000" opacity="1.00" d=" M 329.39 5.58 C 346.29 3.65 363.23 5.97 380.04 7.64 C 389.51 7.24 398.13 11.65 407.40 12.72 C 421.91 15.63 435.96 20.42 449.44 26.51 C 473.17 35.56 494.62 49.71 513.84 66.17 C 531.61 82.48 546.86 102.86 552.04 126.86 C 556.24 149.53 554.06 174.07 542.34 194.26 C 530.15 214.78 513.00 231.74 494.13 246.12 C 449.60 280.31 396.99 303.34 342.56 316.43 C 314.29 323.14 284.93 325.37 256.00 322.16 C 245.47 322.61 235.81 318.13 225.62 316.32 C 195.61 308.75 166.99 295.53 142.58 276.39 C 113.78 253.57 89.86 222.45 82.09 185.99 C 72.38 146.97 84.97 103.74 113.71 75.71 C 125.51 61.80 141.68 52.75 157.85 44.84 C 178.97 34.48 201.08 24.72 224.74 22.47 C 229.15 24.00 232.29 28.26 237.09 28.89 C 244.08 29.56 251.06 28.04 257.65 25.80 C 273.74 21.51 289.31 15.54 304.96 9.90 C 312.76 6.84 321.25 7.05 329.39 5.58 M 316.01 24.27 C 316.24 28.76 321.00 31.04 324.96 31.35 C 333.81 31.97 342.61 33.01 351.46 33.58 C 370.84 37.51 390.85 36.12 410.16 40.61 C 421.55 41.66 432.96 43.80 443.57 48.22 C 448.05 49.37 456.13 52.37 457.89 46.12 C 441.52 33.67 420.63 28.47 400.56 25.43 C 378.85 19.82 356.18 21.30 333.97 21.29 C 327.95 21.57 321.36 20.99 316.01 24.27 M 293.43 40.38 C 280.27 40.87 267.15 41.93 254.05 43.13 C 233.91 45.83 215.02 53.68 196.35 61.33 C 170.30 73.31 144.56 86.87 122.84 105.84 C 116.50 112.01 111.28 119.22 106.67 126.74 C 95.63 143.55 93.67 164.79 97.86 184.14 C 108.25 218.01 133.78 245.03 162.77 264.26 C 187.65 281.96 216.73 292.74 246.22 299.77 C 255.33 299.71 263.89 303.55 273.00 303.20 C 299.92 304.65 326.28 297.04 351.59 288.68 C 387.79 277.19 421.52 259.34 454.09 240.04 C 478.50 223.78 503.12 206.69 521.22 183.22 C 530.03 172.71 537.26 159.96 538.03 146.02 C 536.39 133.88 531.51 121.90 523.48 112.55 C 509.03 92.19 488.19 77.11 466.22 65.74 C 447.54 58.42 428.23 52.05 408.25 49.70 C 398.11 45.79 387.07 47.59 376.75 44.48 C 349.07 41.90 321.24 39.97 293.43 40.38 Z" />
<path fill="#000000" opacity="1.00" d=" M 75.16 236.20 C 76.87 232.90 78.04 229.15 80.99 226.70 C 85.78 230.69 83.71 238.02 81.96 243.09 C 76.01 255.18 67.01 265.40 59.50 276.50 C 47.83 295.10 38.86 315.34 26.37 333.42 C 22.59 337.71 19.73 330.07 22.12 327.12 C 37.60 295.58 57.78 266.67 75.16 236.20 Z" />
<path fill="#000000" opacity="1.00" d=" M 9.00 288.72 C 14.14 292.42 14.37 299.30 14.70 305.05 C 15.34 317.30 9.95 329.32 12.42 341.55 C 13.09 346.46 19.22 345.37 22.75 344.83 C 39.02 341.07 53.09 331.56 68.47 325.47 C 71.24 324.36 74.22 324.05 77.17 323.93 C 74.74 328.92 69.28 330.98 64.94 333.93 C 49.83 343.92 32.48 349.49 15.39 355.00 L 11.75 355.00 C 3.53 340.92 4.86 323.81 6.38 308.23 C 7.33 301.73 6.63 294.95 9.00 288.72 Z" />
</g>
<g id="#000000b5">
<path fill="#000000" opacity="0.71" d=" M 316.01 24.27 C 321.36 20.99 327.95 21.57 333.97 21.29 C 356.18 21.30 378.85 19.82 400.56 25.43 C 420.63 28.47 441.52 33.67 457.89 46.12 C 456.13 52.37 448.05 49.37 443.57 48.22 C 432.96 43.80 421.55 41.66 410.16 40.61 C 390.85 36.12 370.84 37.51 351.46 33.58 C 342.61 33.01 333.81 31.97 324.96 31.35 C 321.00 31.04 316.24 28.76 316.01 24.27 M 324.26 26.04 C 332.67 29.59 341.86 31.26 350.97 31.43 C 378.11 34.46 405.53 35.74 432.16 41.93 C 439.15 43.21 445.76 48.89 453.00 46.83 C 452.12 44.22 449.50 43.04 447.30 41.74 C 435.58 35.25 422.58 31.08 409.27 29.57 C 385.30 23.78 360.54 22.80 335.96 22.87 C 331.92 23.07 327.30 22.87 324.26 26.04 Z" />
</g>
<g id="#0000005b">
<path fill="#000000" opacity="0.36" d=" M 324.26 26.04 C 327.30 22.87 331.92 23.07 335.96 22.87 C 360.54 22.80 385.30 23.78 409.27 29.57 C 422.58 31.08 435.58 35.25 447.30 41.74 C 449.50 43.04 452.12 44.22 453.00 46.83 C 445.76 48.89 439.15 43.21 432.16 41.93 C 405.53 35.74 378.11 34.46 350.97 31.43 C 341.86 31.26 332.67 29.59 324.26 26.04 M 331.86 25.34 C 335.61 28.23 340.42 28.76 344.99 29.06 C 372.87 32.26 401.04 33.66 428.60 39.37 C 433.42 40.56 438.00 42.83 443.06 42.89 C 438.24 38.23 431.43 36.71 425.22 34.81 C 394.90 26.70 363.21 23.43 331.86 25.34 Z" />
</g>
<g id="#000000ac">
<path fill="#000000" opacity="0.67" d=" M 293.43 40.38 C 321.24 39.97 349.07 41.90 376.75 44.48 C 387.07 47.59 398.11 45.79 408.25 49.70 C 428.23 52.05 447.54 58.42 466.22 65.74 C 488.19 77.11 509.03 92.19 523.48 112.55 C 531.51 121.90 536.39 133.88 538.03 146.02 C 537.26 159.96 530.03 172.71 521.22 183.22 C 503.12 206.69 478.50 223.78 454.09 240.04 C 421.52 259.34 387.79 277.19 351.59 288.68 C 326.28 297.04 299.92 304.65 273.00 303.20 C 263.89 303.55 255.33 299.71 246.22 299.77 C 216.73 292.74 187.65 281.96 162.77 264.26 C 133.78 245.03 108.25 218.01 97.86 184.14 C 93.67 164.79 95.63 143.55 106.67 126.74 C 111.28 119.22 116.50 112.01 122.84 105.84 C 144.56 86.87 170.30 73.31 196.35 61.33 C 215.02 53.68 233.91 45.83 254.05 43.13 C 267.15 41.93 280.27 40.87 293.43 40.38 M 307.15 42.65 C 283.08 42.87 258.63 42.95 235.20 49.23 C 220.99 53.30 207.30 58.95 193.73 64.76 C 169.63 76.20 145.50 88.58 125.46 106.45 C 106.53 124.09 94.78 150.73 99.32 176.77 C 104.99 209.19 128.10 235.06 153.01 254.99 C 191.92 284.04 240.06 302.50 289.04 300.75 C 316.26 298.82 342.32 289.94 367.84 280.81 C 405.18 266.45 440.64 247.24 473.55 224.54 C 494.32 208.98 515.00 191.86 528.09 169.04 C 534.03 159.23 537.21 146.99 533.18 135.85 C 524.94 111.11 504.68 92.63 483.69 78.31 C 460.36 61.84 431.83 55.70 404.22 50.83 C 372.20 45.46 339.65 42.93 307.15 42.65 Z" />
</g>
<g id="#00000051">
<path fill="#000000" opacity="0.32" d=" M 307.15 42.65 C 339.65 42.93 372.20 45.46 404.22 50.83 C 431.83 55.70 460.36 61.84 483.69 78.31 C 504.68 92.63 524.94 111.11 533.18 135.85 C 537.21 146.99 534.03 159.23 528.09 169.04 C 515.00 191.86 494.32 208.98 473.55 224.54 C 440.64 247.24 405.18 266.45 367.84 280.81 C 342.32 289.94 316.26 298.82 289.04 300.75 C 240.06 302.50 191.92 284.04 153.01 254.99 C 128.10 235.06 104.99 209.19 99.32 176.77 C 94.78 150.73 106.53 124.09 125.46 106.45 C 145.50 88.58 169.63 76.20 193.73 64.76 C 207.30 58.95 220.99 53.30 235.20 49.23 C 258.63 42.95 283.08 42.87 307.15 42.65 M 273.40 45.52 C 262.67 45.98 252.15 48.22 241.53 49.62 C 212.16 57.25 184.62 70.55 158.16 85.18 C 144.34 94.32 129.55 102.95 119.21 116.20 C 105.27 133.09 97.79 155.97 102.35 177.72 C 107.56 208.42 129.50 232.99 152.77 252.24 C 195.82 285.30 251.37 304.58 305.87 296.71 C 356.59 286.62 404.55 265.32 448.57 238.51 C 468.86 226.06 488.19 211.90 505.27 195.27 C 513.75 185.89 522.38 176.30 527.74 164.71 C 532.50 156.11 533.24 145.61 530.72 136.21 C 523.14 113.35 505.02 95.77 485.73 82.25 C 467.09 68.16 444.31 60.60 421.55 56.49 C 372.95 46.22 323.00 43.39 273.40 45.52 Z" />
</g>
<g id="#32c5d2ff">
<path fill="#32c5d2" opacity="1.00" d=" M 315.92 82.17 C 316.06 79.55 318.99 79.65 320.91 79.66 C 322.27 82.21 322.64 85.08 322.31 87.93 C 320.36 108.26 321.48 128.71 322.29 149.05 C 323.16 153.47 318.33 155.09 315.22 152.73 C 314.79 149.21 314.36 145.70 313.95 142.18 C 304.35 142.75 294.51 140.11 286.98 134.01 C 278.30 127.04 280.60 109.56 292.08 106.93 C 299.90 105.61 306.66 110.72 312.73 114.89 C 313.19 103.93 314.57 93.03 315.92 82.17 M 292.49 116.48 C 288.01 118.22 287.60 125.05 290.98 128.10 C 296.86 133.72 305.18 135.93 313.07 136.90 C 316.17 125.09 303.67 114.59 292.49 116.48 Z" />
<path fill="#32c5d2" opacity="1.00" d=" M 196.37 105.91 C 199.96 98.60 203.62 89.48 212.06 86.80 C 217.64 86.45 218.40 93.86 218.13 97.98 C 216.62 108.51 206.03 113.98 196.98 117.14 C 196.97 129.41 203.14 142.39 197.85 154.18 C 193.95 152.24 193.86 147.47 193.15 143.73 C 190.79 127.25 189.02 110.57 189.25 93.91 C 190.43 93.95 191.61 94.00 192.79 94.09 C 194.73 97.80 194.40 102.23 196.37 105.91 M 196.11 112.98 C 205.71 110.31 216.22 101.49 213.07 90.45 C 203.65 93.51 199.41 104.40 196.11 112.98 Z" />
<path fill="#32c5d2" opacity="1.00" d=" M 249.27 108.27 C 250.44 106.17 251.03 103.17 253.83 102.80 C 256.87 105.73 255.39 110.30 255.59 114.02 C 254.72 126.32 258.14 138.27 261.14 150.05 C 262.21 154.00 255.54 155.34 254.17 151.82 C 249.52 143.66 250.01 133.92 248.61 124.90 C 244.43 131.65 242.54 140.00 236.41 145.40 C 233.31 148.23 227.21 149.42 224.75 145.18 C 221.70 139.55 223.16 132.69 224.94 126.88 C 228.72 116.58 239.07 110.65 249.27 108.27 M 233.85 141.77 C 238.04 139.50 239.80 134.91 241.93 130.94 C 244.80 125.15 247.88 119.33 249.07 112.91 C 236.76 115.68 229.07 130.18 233.85 141.77 Z" />
<path fill="#32c5d2" opacity="1.00" d=" M 270.16 103.03 C 271.33 103.08 272.50 103.13 273.68 103.18 C 274.05 104.17 274.48 105.12 274.97 106.05 C 273.47 107.39 271.60 108.16 269.71 107.07 C 269.87 105.73 270.02 104.38 270.16 103.03 Z" />
<path fill="#32c5d2" opacity="1.00" d=" M 268.62 113.57 C 268.51 111.66 270.47 111.32 271.85 110.79 C 276.96 116.58 274.74 124.95 275.40 131.97 C 275.18 139.35 277.75 146.89 275.86 154.14 C 271.96 154.44 269.92 150.73 269.65 147.34 C 268.27 136.16 267.24 124.79 268.62 113.57 Z" />
<path fill="#32c5d2" opacity="1.00" d=" M 388.14 167.57 C 391.10 167.17 394.00 168.92 394.09 172.11 C 396.08 189.72 394.70 207.66 397.44 225.19 C 398.96 214.40 398.88 202.15 406.46 193.49 C 409.72 189.46 415.97 192.65 416.96 197.04 C 419.96 207.08 418.52 217.76 420.17 228.04 C 420.35 232.41 422.16 236.78 420.99 241.14 C 417.45 241.14 414.66 238.65 413.48 235.45 C 408.32 223.53 411.17 210.29 409.81 197.79 C 402.82 208.72 403.18 222.27 400.54 234.56 C 399.70 238.47 396.28 241.57 392.31 242.02 C 389.60 238.24 389.30 233.52 388.81 229.07 C 386.51 211.81 387.21 194.36 386.95 177.00 C 387.02 173.84 386.48 170.43 388.14 167.57 Z" />
<path fill="#32c5d2" opacity="1.00" d=" M 196.53 176.48 C 205.91 170.83 217.86 178.45 220.10 188.26 C 215.66 187.98 212.62 183.52 208.03 183.98 C 204.65 183.90 199.91 186.55 201.35 190.53 C 202.89 192.09 204.86 193.10 206.71 194.22 C 219.52 201.04 226.28 218.10 220.65 231.65 C 217.19 240.57 204.68 245.29 196.76 239.27 C 190.61 235.14 188.48 227.02 190.01 220.03 C 190.78 219.97 192.32 219.84 193.09 219.78 C 193.60 224.61 193.00 230.48 197.05 234.00 C 202.98 238.12 212.93 233.41 212.99 226.02 C 213.57 218.39 210.86 210.12 204.56 205.43 C 199.97 201.65 193.48 199.96 190.49 194.45 C 186.84 188.11 190.12 179.57 196.53 176.48 Z" />
<path fill="#32c5d2" opacity="1.00" d=" M 244.67 190.56 C 253.45 189.25 262.61 198.71 259.51 207.47 C 256.52 216.86 247.44 223.10 238.11 225.11 C 239.24 229.59 242.20 235.32 247.66 234.65 C 253.38 231.86 255.06 224.99 258.25 219.95 C 258.96 219.92 260.37 219.86 261.08 219.83 C 259.35 227.07 255.36 233.86 250.01 239.02 C 243.87 244.78 232.94 241.79 229.76 234.23 C 225.50 224.95 226.17 213.88 229.46 204.40 C 231.77 197.66 237.26 191.41 244.67 190.56 M 244.79 199.77 C 238.36 204.93 237.13 214.18 238.03 221.90 C 246.49 220.03 255.39 213.27 255.73 203.98 C 255.71 198.69 248.48 196.52 244.79 199.77 Z" />
<path fill="#32c5d2" opacity="1.00" d=" M 294.27 196.27 C 295.44 194.18 296.03 191.17 298.83 190.80 C 301.88 193.72 300.38 198.30 300.59 202.02 C 299.72 214.32 303.14 226.28 306.14 238.05 C 307.21 242.01 300.54 243.33 299.17 239.82 C 294.52 231.66 295.01 221.91 293.61 212.90 C 289.43 219.65 287.53 228.00 281.41 233.41 C 278.31 236.24 272.21 237.42 269.76 233.18 C 266.70 227.55 268.16 220.69 269.94 214.88 C 273.72 204.58 284.07 198.65 294.27 196.27 M 278.85 229.78 C 281.84 228.10 283.76 225.23 285.23 222.22 C 288.69 215.36 292.61 208.54 294.06 200.91 C 281.75 203.69 274.07 218.18 278.85 229.78 Z" />
<path fill="#32c5d2" opacity="1.00" d=" M 313.07 192.06 C 314.86 191.42 316.71 191.05 318.62 191.13 C 320.70 195.18 321.72 199.64 322.97 204.00 C 326.79 198.87 330.24 190.42 337.74 190.86 C 342.32 196.40 341.41 204.48 340.78 211.18 C 335.86 207.37 338.19 200.10 335.82 194.89 C 329.94 198.82 325.64 205.32 324.23 212.23 C 324.10 221.86 327.75 231.23 327.10 240.89 C 324.90 241.72 322.59 242.09 320.25 241.96 C 315.56 225.80 314.67 208.75 313.07 192.06 Z" />
<path fill="#32c5d2" opacity="1.00" d=" M 348.89 214.99 C 350.54 205.39 354.56 193.63 365.17 191.03 C 371.76 188.98 383.16 193.87 379.95 202.11 C 375.94 199.79 371.71 194.39 366.70 197.65 C 359.62 205.33 358.30 216.65 359.48 226.64 C 359.77 230.43 363.08 234.99 367.34 233.44 C 371.89 231.54 372.18 225.58 375.99 222.76 C 378.57 232.59 367.45 245.89 357.01 240.89 C 347.91 235.92 347.14 224.08 348.89 214.99 Z" />
</g>
<g id="#0000007e">
<path fill="#000000" opacity="0.49" d=" M 77.87 187.10 C 70.28 156.33 75.45 121.90 94.05 95.96 C 85.94 113.36 77.18 131.29 76.91 150.95 C 73.72 193.64 95.35 234.56 125.29 263.70 C 132.69 271.08 141.43 276.91 149.04 284.04 C 143.93 281.31 139.10 278.08 134.83 274.16 C 107.66 251.82 86.65 221.34 77.87 187.10 Z" />
<path fill="#000000" opacity="0.49" d=" M 440.85 281.84 C 444.77 279.55 448.92 277.73 453.15 276.08 C 442.98 283.72 430.85 287.86 419.64 293.63 C 372.27 314.21 321.05 329.19 268.95 327.12 C 231.10 323.46 192.78 313.34 160.85 292.08 C 168.99 294.79 175.70 300.40 183.72 303.38 C 208.29 314.51 234.61 321.82 261.42 324.70 C 282.00 327.63 302.75 324.90 323.18 322.09 C 364.15 314.76 403.83 300.78 440.85 281.84 Z" />
</g>
<g id="#00000020">
<path fill="#000000" opacity="0.13" d=" M 72.57 231.80 C 74.44 227.63 76.54 220.39 82.57 222.22 C 87.63 225.76 90.38 233.04 88.08 238.95 C 83.95 250.51 75.98 260.00 68.86 269.79 C 57.08 285.70 49.19 303.97 38.86 320.78 C 35.29 327.60 30.90 333.96 25.35 339.32 C 44.57 335.46 60.14 320.89 79.91 318.68 C 85.05 318.81 83.34 325.37 80.40 327.39 C 65.00 339.67 47.41 349.53 28.43 355.00 L 21.38 355.00 C 42.34 349.37 62.47 339.95 79.18 326.01 C 80.21 325.01 80.08 323.42 80.20 322.12 C 76.06 320.48 71.77 322.33 67.84 323.68 C 54.49 328.53 42.54 336.64 28.92 340.83 C 24.36 342.24 19.51 344.14 14.73 342.57 C 11.56 324.75 23.42 305.15 12.29 288.73 C 9.53 284.19 4.71 288.18 5.26 292.36 C 4.12 313.10 -1.20 335.68 9.14 355.00 L 0.00 355.00 L 0.00 310.07 C 4.74 303.06 1.09 294.34 3.76 286.82 C 6.00 282.36 12.34 283.91 14.21 287.91 C 22.43 299.54 17.64 314.12 17.27 327.12 C 22.52 320.29 24.77 311.75 29.60 304.65 C 43.06 279.85 59.66 256.89 72.57 231.80 M 79.38 225.07 C 76.82 227.17 75.75 230.46 74.19 233.27 C 56.95 264.73 35.91 294.05 20.32 326.43 C 17.23 330.70 21.81 340.03 27.11 335.22 C 42.89 314.18 52.16 288.99 67.93 267.90 C 75.14 257.69 84.71 247.91 86.35 234.99 C 86.58 231.03 84.76 223.16 79.38 225.07 Z" />
</g>
<g id="#00000098">
<path fill="#000000" opacity="0.60" d=" M 79.38 225.07 C 84.76 223.16 86.58 231.03 86.35 234.99 C 84.71 247.91 75.14 257.69 67.93 267.90 C 52.16 288.99 42.89 314.18 27.11 335.22 C 21.81 340.03 17.23 330.70 20.32 326.43 C 35.91 294.05 56.95 264.73 74.19 233.27 C 75.75 230.46 76.82 227.17 79.38 225.07 M 75.16 236.20 C 57.78 266.67 37.60 295.58 22.12 327.12 C 19.73 330.07 22.59 337.71 26.37 333.42 C 38.86 315.34 47.83 295.10 59.50 276.50 C 67.01 265.40 76.01 255.18 81.96 243.09 C 83.71 238.02 85.78 230.69 80.99 226.70 C 78.04 229.15 76.87 232.90 75.16 236.20 Z" />
</g>
<g id="#0000008c">
<path fill="#000000" opacity="0.55" d=" M 5.26 292.36 C 4.71 288.18 9.53 284.19 12.29 288.73 C 23.42 305.15 11.56 324.75 14.73 342.57 C 19.51 344.14 24.36 342.24 28.92 340.83 C 42.54 336.64 54.49 328.53 67.84 323.68 C 71.77 322.33 76.06 320.48 80.20 322.12 C 80.08 323.42 80.21 325.01 79.18 326.01 C 62.47 339.95 42.34 349.37 21.38 355.00 L 15.39 355.00 C 32.48 349.49 49.83 343.92 64.94 333.93 C 69.28 330.98 74.74 328.92 77.17 323.93 C 74.22 324.05 71.24 324.36 68.47 325.47 C 53.09 331.56 39.02 341.07 22.75 344.83 C 19.22 345.37 13.09 346.46 12.42 341.55 C 9.95 329.32 15.34 317.30 14.70 305.05 C 14.37 299.30 14.14 292.42 9.00 288.72 C 6.63 294.95 7.33 301.73 6.38 308.23 C 4.86 323.81 3.53 340.92 11.75 355.00 L 9.14 355.00 C -1.20 335.68 4.12 313.10 5.26 292.36 Z" />
</g>
</svg>
