<?xml version="1.0" encoding="UTF-8" ?>
<!DOCTYPE svg PUBLIC "-//W3C//DTD SVG 1.1//EN" "http://www.w3.org/Graphics/SVG/1.1/DTD/svg11.dtd">
<svg width="830pt" height="418pt" viewBox="0 0 830 418" version="1.1" xmlns="http://www.w3.org/2000/svg">
<g id="#00223148">
<path fill="#002231" opacity="0.28" d=" M 268.18 0.00 L 273.38 0.00 C 264.82 6.28 251.66 6.46 246.41 16.78 C 263.31 17.16 279.86 11.18 296.82 13.24 C 353.05 19.43 406.37 40.55 456.91 65.08 C 487.01 80.24 516.39 97.21 542.96 118.05 C 576.01 144.98 603.01 182.09 610.19 224.82 C 614.49 249.96 610.03 276.77 596.58 298.57 C 586.27 315.76 570.94 329.40 554.32 340.32 C 524.39 358.90 490.33 369.33 456.26 377.30 C 404.33 388.54 351.13 393.96 298.00 393.19 C 248.21 393.96 198.32 389.02 149.70 378.29 C 141.60 376.26 133.34 374.67 125.62 371.39 L 126.49 371.43 C 130.00 371.58 133.55 371.87 136.92 372.97 C 152.00 377.45 167.56 379.89 182.95 382.98 C 195.47 383.42 207.46 387.80 220.03 387.62 C 231.17 387.53 242.08 390.18 253.19 390.63 C 292.42 392.79 331.94 392.88 370.97 387.90 C 382.80 387.96 394.47 386.37 406.03 383.97 C 417.86 383.61 429.20 380.13 440.89 378.68 C 481.93 369.83 523.86 358.95 558.98 334.98 C 583.33 318.96 602.36 293.83 607.87 264.90 C 609.61 249.50 609.71 233.79 607.26 218.47 C 596.87 172.89 565.32 134.68 527.46 108.51 C 496.49 86.74 462.82 69.14 428.33 53.66 C 396.22 39.61 363.10 27.43 328.76 20.15 C 320.55 17.59 311.89 17.88 303.49 16.47 C 283.64 11.83 263.80 19.61 243.80 18.78 C 244.29 16.30 244.46 13.36 246.89 11.92 C 253.50 7.15 261.10 3.98 268.18 0.00 Z" />
</g>
<g id="#005176ac">
<path fill="#005176" opacity="0.67" d=" M 273.38 0.00 L 287.00 0.00 C 274.97 6.00 258.48 3.64 249.78 15.57 C 270.94 11.47 292.97 9.45 314.31 13.58 C 355.30 20.30 394.56 34.83 432.45 51.52 C 462.25 64.99 491.21 80.42 518.55 98.40 C 563.73 126.89 602.53 171.06 612.21 224.88 C 615.40 238.70 614.84 253.26 611.17 266.93 C 605.71 294.23 587.59 317.25 566.06 334.07 C 541.84 352.41 513.11 363.53 484.19 372.03 C 443.07 384.14 400.49 389.67 357.97 393.80 C 337.97 394.13 318.01 395.72 298.00 395.28 C 278.65 395.75 259.37 394.06 240.04 393.82 C 198.94 389.79 157.70 384.36 118.22 371.68 C 111.79 369.89 105.55 367.50 99.67 364.33 C 108.50 366.08 116.58 370.70 125.62 371.39 C 133.34 374.67 141.60 376.26 149.70 378.29 C 198.32 389.02 248.21 393.96 298.00 393.19 C 351.13 393.96 404.33 388.54 456.26 377.30 C 490.33 369.33 524.39 358.90 554.32 340.32 C 570.94 329.40 586.27 315.76 596.58 298.57 C 610.03 276.77 614.49 249.96 610.19 224.82 C 603.01 182.09 576.01 144.98 542.96 118.05 C 516.39 97.21 487.01 80.24 456.91 65.08 C 406.37 40.55 353.05 19.43 296.82 13.24 C 279.86 11.18 263.31 17.16 246.41 16.78 C 251.66 6.46 264.82 6.28 273.38 0.00 Z" />
</g>
<g id="#0079afff">
<path fill="#0079af" opacity="1.00" d=" M 287.00 0.00 L 292.97 0.00 C 304.23 4.98 316.78 3.81 328.54 6.60 C 381.99 18.04 432.71 39.66 480.86 65.18 C 510.52 81.66 539.85 99.18 565.85 121.13 C 592.70 142.29 614.20 171.26 623.47 204.41 C 626.98 220.47 629.97 237.18 626.54 253.55 C 622.42 288.81 601.98 320.58 575.21 343.18 C 559.74 355.78 542.71 366.64 524.14 374.07 C 480.89 391.64 434.61 400.38 388.55 406.45 C 377.19 409.10 365.46 408.42 353.94 409.83 C 323.48 413.90 292.64 413.38 261.97 412.80 C 251.49 412.81 241.05 411.75 230.70 410.18 C 220.29 408.57 209.62 409.12 199.35 406.53 C 151.14 399.07 102.81 387.38 59.30 364.68 C 38.58 353.13 18.00 338.46 7.47 316.48 C 2.12 306.63 2.71 295.13 0.00 284.52 L 0.00 278.47 C 1.94 269.58 2.52 260.51 3.57 251.51 C 8.78 226.16 18.56 201.86 31.32 179.39 C 34.99 173.30 38.97 167.38 42.00 160.93 C 56.59 140.44 75.11 122.67 96.82 109.86 C 99.33 108.66 101.92 107.62 104.41 106.38 C 140.69 86.05 181.59 76.23 222.00 67.93 C 229.48 66.90 236.66 63.84 244.32 64.24 C 235.28 69.78 224.84 72.25 215.01 76.01 C 194.02 83.98 171.94 89.12 151.50 98.44 C 124.38 108.40 97.32 120.23 75.10 139.09 C 62.30 149.47 52.46 162.94 43.84 176.86 C 29.23 197.55 20.65 222.15 15.80 246.88 C 12.92 258.29 13.24 270.29 14.25 281.93 C 17.35 296.20 24.29 309.97 34.98 320.08 C 51.99 340.50 74.63 355.60 99.67 364.33 C 105.55 367.50 111.79 369.89 118.22 371.68 C 157.70 384.36 198.94 389.79 240.04 393.82 C 259.37 394.06 278.65 395.75 298.00 395.28 C 318.01 395.72 337.97 394.13 357.97 393.80 C 400.49 389.67 443.07 384.14 484.19 372.03 C 513.11 363.53 541.84 352.41 566.06 334.07 C 587.59 317.25 605.71 294.23 611.17 266.93 C 614.84 253.26 615.40 238.70 612.21 224.88 C 602.53 171.06 563.73 126.89 518.55 98.40 C 491.21 80.42 462.25 64.99 432.45 51.52 C 394.56 34.83 355.30 20.30 314.31 13.58 C 292.97 9.45 270.94 11.47 249.78 15.57 C 258.48 3.64 274.97 6.00 287.00 0.00 Z" />
<path fill="#0079af" opacity="1.00" d=" M 521.74 60.77 C 527.31 58.14 533.78 59.74 539.73 59.61 C 581.41 64.47 616.47 89.36 654.78 104.22 C 673.70 112.61 692.44 121.70 709.47 133.57 C 747.36 159.57 778.97 194.57 801.24 234.75 C 806.76 243.28 809.52 253.43 816.36 261.10 C 817.92 258.94 819.56 256.68 819.83 253.93 C 821.34 242.08 821.46 230.07 823.48 218.28 C 823.92 214.37 827.40 212.10 830.00 209.60 L 830.00 223.30 C 825.48 236.40 826.15 250.35 825.22 263.98 C 824.58 274.98 828.75 287.54 820.83 296.88 C 807.29 286.86 798.80 271.66 788.07 258.92 C 784.86 255.36 782.18 251.29 780.76 246.68 C 784.03 248.43 787.21 250.40 790.03 252.84 C 795.93 260.96 804.41 266.78 809.79 275.30 C 811.45 277.67 814.14 280.62 817.36 279.42 C 820.60 275.96 818.91 270.68 818.76 266.44 C 815.42 266.43 812.09 266.39 808.77 266.35 C 801.45 248.16 793.16 230.22 782.03 214.01 C 756.66 175.07 719.43 145.42 679.43 122.57 C 636.97 99.40 591.94 81.22 546.17 65.75 C 538.30 62.30 528.29 67.69 521.74 60.77 Z" />
</g>
<g id="#004e71a5">
<path fill="#004e71" opacity="0.65" d=" M 292.97 0.00 L 311.62 0.00 C 316.98 3.22 323.18 4.08 329.27 4.86 C 362.96 11.69 395.34 23.66 426.90 37.08 C 465.17 53.90 502.30 73.53 536.83 97.14 C 557.81 111.73 578.34 127.51 594.77 147.24 C 611.45 167.53 624.09 191.75 628.23 217.88 C 632.44 239.46 628.95 261.93 621.34 282.35 C 604.96 324.62 568.57 356.73 527.64 374.62 C 481.99 393.72 432.89 402.63 384.08 409.19 C 363.18 410.76 342.43 414.18 321.44 414.52 C 306.14 414.60 290.86 417.02 275.56 415.49 C 219.55 413.45 163.47 405.20 110.04 387.90 C 77.43 377.20 45.53 362.36 20.16 338.78 C 10.77 328.47 2.71 316.30 0.00 302.42 L 0.00 284.52 C 2.71 295.13 2.12 306.63 7.47 316.48 C 18.00 338.46 38.58 353.13 59.30 364.68 C 102.81 387.38 151.14 399.07 199.35 406.53 C 209.62 409.12 220.29 408.57 230.70 410.18 C 241.05 411.75 251.49 412.81 261.97 412.80 C 292.64 413.38 323.48 413.90 353.94 409.83 C 365.46 408.42 377.19 409.10 388.55 406.45 C 434.61 400.38 480.89 391.64 524.14 374.07 C 542.71 366.64 559.74 355.78 575.21 343.18 C 601.98 320.58 622.42 288.81 626.54 253.55 C 629.97 237.18 626.98 220.47 623.47 204.41 C 614.20 171.26 592.70 142.29 565.85 121.13 C 539.85 99.18 510.52 81.66 480.86 65.18 C 432.71 39.66 381.99 18.04 328.54 6.60 C 316.78 3.81 304.23 4.98 292.97 0.00 Z" />
</g>
<g id="#00213046">
<path fill="#002130" opacity="0.27" d=" M 311.62 0.00 L 320.63 0.00 C 326.40 2.74 332.74 3.60 338.91 4.97 C 390.40 17.68 439.37 38.97 485.96 64.05 C 528.37 88.09 571.25 114.44 601.66 153.38 C 619.63 177.99 633.16 207.95 631.13 239.00 C 631.54 248.08 631.12 257.26 628.20 265.95 C 618.87 305.57 590.87 338.49 557.34 360.42 C 542.04 370.89 524.82 378.06 507.46 384.33 C 473.62 395.83 438.52 403.25 403.21 408.33 C 390.12 411.63 376.46 410.55 363.29 413.35 C 352.22 415.81 340.45 413.57 329.78 418.00 L 248.21 418.00 C 243.70 416.16 238.94 414.89 234.04 414.85 C 223.88 414.69 214.08 411.59 203.96 411.03 C 193.72 410.61 183.95 407.20 173.78 406.16 C 130.21 397.32 86.39 385.19 48.09 361.94 C 37.87 355.44 27.67 348.43 20.16 338.78 C 45.53 362.36 77.43 377.20 110.04 387.90 C 163.47 405.20 219.55 413.45 275.56 415.49 C 290.86 417.02 306.14 414.60 321.44 414.52 C 342.43 414.18 363.18 410.76 384.08 409.19 C 432.89 402.63 481.99 393.72 527.64 374.62 C 568.57 356.73 604.96 324.62 621.34 282.35 C 628.95 261.93 632.44 239.46 628.23 217.88 C 624.09 191.75 611.45 167.53 594.77 147.24 C 578.34 127.51 557.81 111.73 536.83 97.14 C 502.30 73.53 465.17 53.90 426.90 37.08 C 395.34 23.66 362.96 11.69 329.27 4.86 C 323.18 4.08 316.98 3.22 311.62 0.00 Z" />
</g>
<g id="#001d2a3e">
<path fill="#001d2a" opacity="0.24" d=" M 518.27 58.16 C 528.94 56.66 539.78 57.17 550.50 57.53 C 582.28 64.03 610.55 80.67 639.56 94.42 C 649.89 98.66 660.47 102.35 670.34 107.65 C 725.46 133.13 771.82 176.63 801.69 229.40 C 807.85 237.75 810.79 247.88 816.62 256.40 C 818.47 243.15 815.38 229.21 820.33 216.46 C 821.92 211.64 826.17 208.67 830.00 205.72 L 830.00 207.63 C 826.69 210.49 822.85 213.32 821.82 217.84 C 818.20 230.86 819.85 244.56 817.89 257.83 C 817.20 257.82 815.81 257.81 815.12 257.80 C 801.34 229.10 784.09 201.95 762.78 178.23 C 733.39 144.88 695.61 119.38 654.65 102.34 C 625.40 91.62 599.17 73.99 569.36 64.59 C 554.10 58.79 537.68 57.03 521.47 58.47 C 521.22 59.18 520.72 60.61 520.47 61.32 C 527.56 69.87 539.08 64.06 548.01 68.06 C 610.15 90.20 673.25 114.20 725.58 155.42 C 761.72 183.24 789.50 221.20 806.03 263.64 C 805.49 264.03 804.43 264.79 803.89 265.18 C 799.52 260.79 794.94 256.62 790.03 252.84 C 787.21 250.40 784.03 248.43 780.76 246.68 C 780.26 247.10 779.24 247.94 778.73 248.36 C 789.23 263.61 800.63 278.26 812.68 292.33 C 814.98 295.01 817.91 297.05 820.86 298.97 C 823.67 295.45 826.72 291.67 826.99 286.95 C 828.30 269.70 824.91 251.90 830.00 235.05 L 830.00 250.32 C 828.39 258.33 827.56 266.53 828.59 274.68 C 829.61 283.70 829.35 295.16 820.81 300.61 C 815.96 299.24 812.98 294.78 809.72 291.28 C 798.21 278.59 788.94 264.12 778.08 250.91 C 775.64 248.43 775.80 245.05 777.44 242.17 C 787.22 245.84 793.76 254.16 801.89 260.24 C 799.17 249.64 793.31 240.26 788.48 230.55 C 771.77 200.61 748.29 174.74 721.16 153.89 C 671.09 115.87 611.88 92.71 553.11 71.86 C 546.77 68.94 539.86 67.69 532.90 68.04 C 526.59 68.35 518.98 65.26 518.27 58.16 Z" />
</g>
<g id="#00314869">
<path fill="#003148" opacity="0.41" d=" M 240.95 60.86 C 246.17 60.01 252.09 56.45 256.75 60.70 C 254.67 62.60 252.60 64.57 250.12 65.95 C 199.95 88.07 144.73 98.12 97.13 126.14 C 56.62 149.78 32.34 193.63 21.07 237.96 C 17.89 256.31 15.48 275.77 21.21 293.86 C 28.73 311.53 42.03 326.19 56.79 338.20 C 76.94 354.93 102.50 362.24 126.49 371.43 L 125.62 371.39 C 116.58 370.70 108.50 366.08 99.67 364.33 C 74.63 355.60 51.99 340.50 34.98 320.08 C 27.74 309.13 19.19 298.35 16.83 285.07 C 12.87 260.16 18.52 234.73 27.42 211.46 C 31.95 199.49 38.51 188.46 43.84 176.86 C 52.46 162.94 62.30 149.47 75.10 139.09 C 97.32 120.23 124.38 108.40 151.50 98.44 C 178.52 90.56 205.13 81.13 231.64 71.62 C 237.59 69.42 243.72 67.40 248.94 63.68 C 241.55 60.53 233.90 64.29 226.57 65.61 C 186.92 72.99 147.20 82.77 110.99 101.01 C 105.95 103.42 101.32 106.55 96.82 109.86 C 75.11 122.67 56.59 140.44 42.00 160.93 C 31.43 173.60 24.63 188.84 17.46 203.57 C 8.80 222.29 3.26 242.32 0.00 262.65 L 0.00 252.66 C 7.14 214.63 24.93 178.97 48.49 148.45 C 65.93 126.77 88.90 110.00 113.77 97.76 C 153.62 78.07 197.51 68.74 240.95 60.86 Z" />
</g>
<g id="#004c6fa2">
<path fill="#004c6f" opacity="0.64" d=" M 521.47 58.47 C 537.68 57.03 554.10 58.79 569.36 64.59 C 599.17 73.99 625.40 91.62 654.65 102.34 C 695.61 119.38 733.39 144.88 762.78 178.23 C 784.09 201.95 801.34 229.10 815.12 257.80 C 815.81 257.81 817.20 257.82 817.89 257.83 C 819.85 244.56 818.20 230.86 821.82 217.84 C 822.85 213.32 826.69 210.49 830.00 207.63 L 830.00 209.60 C 827.40 212.10 823.92 214.37 823.48 218.28 C 821.46 230.07 821.34 242.08 819.83 253.93 C 819.56 256.68 817.92 258.94 816.36 261.10 C 809.52 253.43 806.76 243.28 801.24 234.75 C 778.97 194.57 747.36 159.57 709.47 133.57 C 692.44 121.70 673.70 112.61 654.78 104.22 C 616.47 89.36 581.41 64.47 539.73 59.61 C 533.78 59.74 527.31 58.14 521.74 60.77 C 528.29 67.69 538.30 62.30 546.17 65.75 C 591.94 81.22 636.97 99.40 679.43 122.57 C 719.43 145.42 756.66 175.07 782.03 214.01 C 793.16 230.22 801.45 248.16 808.77 266.35 C 812.09 266.39 815.42 266.43 818.76 266.44 C 818.91 270.68 820.60 275.96 817.36 279.42 C 814.14 280.62 811.45 277.67 809.79 275.30 C 804.41 266.78 795.93 260.96 790.03 252.84 C 794.94 256.62 799.52 260.79 803.89 265.18 C 804.43 264.79 805.49 264.03 806.03 263.64 C 789.50 221.20 761.72 183.24 725.58 155.42 C 673.25 114.20 610.15 90.20 548.01 68.06 C 539.08 64.06 527.56 69.87 520.47 61.32 C 520.72 60.61 521.22 59.18 521.47 58.47 M 810.25 270.42 C 809.26 274.62 813.28 276.77 816.79 277.24 C 817.70 274.15 817.91 270.89 817.04 267.76 C 814.71 268.46 812.23 268.93 810.25 270.42 Z" />
</g>
<g id="#005379b1">
<path fill="#005379" opacity="0.69" d=" M 226.57 65.61 C 233.90 64.29 241.55 60.53 248.94 63.68 C 243.72 67.40 237.59 69.42 231.64 71.62 C 205.13 81.13 178.52 90.56 151.50 98.44 C 171.94 89.12 194.02 83.98 215.01 76.01 C 224.84 72.25 235.28 69.78 244.32 64.24 C 236.66 63.84 229.48 66.90 222.00 67.93 C 181.59 76.23 140.69 86.05 104.41 106.38 C 101.92 107.62 99.33 108.66 96.82 109.86 C 101.32 106.55 105.95 103.42 110.99 101.01 C 147.20 82.77 186.92 72.99 226.57 65.61 Z" />
<path fill="#005379" opacity="0.69" d=" M 15.80 246.88 C 20.65 222.15 29.23 197.55 43.84 176.86 C 38.51 188.46 31.95 199.49 27.42 211.46 C 18.52 234.73 12.87 260.16 16.83 285.07 C 19.19 298.35 27.74 309.13 34.98 320.08 C 24.29 309.97 17.35 296.20 14.25 281.93 C 13.24 270.29 12.92 258.29 15.80 246.88 Z" />
</g>
<g id="#797978ff">
<path fill="#797978" opacity="1.00" d=" M 286.99 157.68 C 288.25 157.76 289.52 157.83 290.78 157.88 C 290.84 161.15 290.84 164.42 290.88 167.69 C 294.57 167.92 298.34 168.46 301.52 170.52 C 297.95 170.95 294.36 171.07 290.78 171.13 C 290.87 186.86 289.10 203.29 294.94 218.29 C 289.01 218.68 285.43 213.49 284.86 208.14 C 283.28 195.88 284.12 183.45 284.87 171.16 C 280.73 171.08 276.57 171.03 272.47 170.43 C 276.05 167.74 280.70 168.19 284.90 167.77 C 285.61 164.41 286.29 161.04 286.99 157.68 Z" />
<path fill="#797978" opacity="1.00" d=" M 351.99 157.69 C 353.25 157.76 354.52 157.83 355.78 157.88 C 355.84 161.15 355.84 164.42 355.88 167.70 C 359.57 167.92 363.34 168.46 366.52 170.52 C 362.95 170.95 359.36 171.07 355.78 171.13 C 355.87 186.86 354.10 203.29 359.94 218.29 C 354.01 218.68 350.42 213.49 349.87 208.14 C 348.27 195.88 349.12 183.45 349.86 171.16 C 345.72 171.08 341.57 171.03 337.47 170.42 C 341.05 167.76 345.69 168.18 349.90 167.77 C 350.60 164.41 351.29 161.05 351.99 157.69 Z" />
<path fill="#797978" opacity="1.00" d=" M 164.54 171.89 C 168.64 167.30 173.33 162.07 180.15 162.73 C 182.76 171.25 173.81 176.18 167.91 180.07 C 176.47 189.07 182.75 201.97 179.82 214.56 C 176.27 211.61 176.31 206.74 175.26 202.61 C 173.82 195.26 170.70 188.05 165.09 182.91 C 165.03 193.50 170.19 204.36 165.95 214.67 C 163.73 213.46 162.14 211.48 162.03 208.89 C 160.35 196.02 158.89 183.03 159.07 170.04 C 158.75 167.92 161.13 167.58 162.47 166.67 C 163.17 168.40 163.86 170.14 164.54 171.89 M 165.68 176.22 C 170.93 174.02 176.59 170.88 178.17 164.96 C 172.32 166.31 168.22 171.03 165.68 176.22 Z" />
<path fill="#797978" opacity="1.00" d=" M 197.40 175.31 C 204.49 172.56 213.19 180.27 210.77 187.63 C 208.62 195.02 201.39 199.19 194.52 201.44 C 195.63 204.80 197.65 208.80 201.80 208.61 C 206.42 205.76 207.19 199.49 211.83 196.61 C 210.05 204.57 204.32 216.09 194.42 213.60 C 185.50 210.51 185.27 199.02 186.33 191.20 C 187.35 184.68 190.63 177.45 197.40 175.31 M 199.75 181.67 C 194.40 185.38 193.97 192.64 193.99 198.56 C 200.43 197.50 206.84 192.62 207.70 185.86 C 208.32 181.66 202.89 179.25 199.75 181.67 Z" />
<path fill="#797978" opacity="1.00" d=" M 218.19 174.64 C 223.64 175.19 223.74 181.25 224.93 185.36 C 228.84 180.54 235.00 172.80 241.84 177.41 C 243.81 187.07 235.22 195.67 226.28 197.64 C 226.02 210.01 231.62 222.10 228.91 234.46 C 226.94 233.33 224.91 231.99 224.33 229.65 C 220.24 217.83 219.90 205.19 217.98 192.93 C 217.03 186.88 216.35 180.60 218.19 174.64 M 226.85 191.94 C 232.00 189.46 237.40 185.70 238.02 179.49 C 232.16 181.09 228.79 186.58 226.85 191.94 Z" />
<path fill="#797978" opacity="1.00" d=" M 247.70 174.79 C 248.57 174.79 250.30 174.78 251.17 174.77 C 253.43 183.85 252.03 193.34 254.14 202.43 C 257.45 194.81 257.65 185.81 263.15 179.21 C 264.33 177.70 266.45 178.02 268.12 177.60 C 269.08 188.06 266.64 198.50 267.86 208.97 C 268.64 212.21 265.60 213.67 263.09 214.53 C 259.61 207.40 260.93 199.36 260.85 191.74 C 258.85 196.41 258.78 203.20 253.38 205.38 C 250.19 206.84 247.90 203.26 247.40 200.57 C 245.59 192.13 245.42 183.17 247.70 174.79 Z" />
<path fill="#797978" opacity="1.00" d=" M 317.47 181.60 C 321.58 180.34 325.06 177.84 327.96 174.71 C 329.37 180.38 328.20 186.22 328.92 191.95 C 329.64 199.15 332.04 206.02 333.28 213.13 C 331.36 213.38 328.79 214.66 327.69 212.30 C 324.13 206.14 324.52 198.69 323.50 191.86 C 320.53 197.03 318.76 203.09 314.37 207.30 C 311.75 209.97 306.01 210.41 304.78 206.13 C 301.80 196.30 307.84 185.00 317.47 181.60 M 312.00 205.28 C 318.33 199.36 321.37 190.85 323.92 182.78 C 313.98 185.01 309.12 195.94 312.00 205.28 Z" />
<path fill="#797978" opacity="1.00" d=" M 369.97 174.47 C 371.25 175.57 372.45 176.76 373.56 178.05 C 370.42 179.64 368.33 177.62 369.97 174.47 Z" />
<path fill="#797978" opacity="1.00" d=" M 393.37 175.24 C 397.59 173.89 401.92 176.60 403.43 180.57 C 407.57 190.50 408.09 203.77 399.59 211.62 C 393.09 217.26 382.52 212.10 380.88 204.19 C 378.26 193.63 382.06 178.99 393.37 175.24 M 395.28 179.31 C 390.15 183.12 388.92 190.17 388.34 196.16 C 387.66 201.55 390.64 208.65 396.87 208.61 C 402.52 207.56 403.45 200.63 403.55 195.89 C 403.15 189.94 402.40 180.72 395.28 179.31 Z" />
<path fill="#797978" opacity="1.00" d=" M 409.43 180.36 C 409.85 178.36 409.82 174.14 412.83 174.95 C 416.13 182.36 414.54 190.78 415.84 198.62 C 420.21 190.28 421.85 177.74 431.93 174.47 C 435.76 185.23 431.13 196.69 433.27 207.74 C 434.41 211.56 431.11 212.99 427.94 213.49 C 424.15 202.06 427.88 190.19 428.79 178.64 C 419.94 188.37 417.93 201.82 415.19 214.17 C 414.39 214.08 412.79 213.90 411.99 213.82 C 408.28 203.10 408.86 191.51 409.43 180.36 Z" />
<path fill="#797978" opacity="1.00" d=" M 368.27 185.95 C 368.06 183.74 369.39 181.98 370.81 180.45 C 373.01 183.88 373.78 187.93 373.60 191.96 C 373.36 199.49 375.14 207.01 374.06 214.52 C 372.18 213.69 369.93 212.78 369.71 210.42 C 368.01 202.40 368.22 194.11 368.27 185.95 Z" />
<path fill="#797978" opacity="1.00" d=" M 483.99 232.69 C 485.25 232.76 486.51 232.83 487.78 232.88 C 487.83 236.15 487.84 239.42 487.88 242.70 C 491.57 242.92 495.34 243.46 498.51 245.52 C 494.95 245.95 491.36 246.06 487.78 246.13 C 487.86 261.86 486.11 278.29 491.94 293.29 C 486.01 293.68 482.43 288.49 481.86 283.13 C 480.28 270.88 481.12 258.45 481.87 246.16 C 477.73 246.09 473.57 246.03 469.47 245.43 C 473.05 242.74 477.70 243.18 481.90 242.77 C 482.60 239.41 483.29 236.05 483.99 232.69 Z" />
<path fill="#797978" opacity="1.00" d=" M 180.65 257.78 C 186.85 251.24 190.46 241.88 198.70 237.58 C 201.64 245.46 199.22 253.81 199.17 261.91 C 198.63 270.70 200.54 279.68 198.17 288.31 C 196.37 288.34 194.56 288.38 192.76 288.42 C 189.90 276.48 192.76 264.18 192.67 252.09 C 188.69 255.74 186.26 261.81 181.14 263.75 C 174.99 260.16 171.61 253.26 166.06 248.84 C 166.00 260.50 165.64 272.22 163.78 283.76 C 163.57 286.24 161.97 288.15 160.16 289.72 C 157.51 282.39 159.08 274.54 159.15 266.96 C 159.72 257.71 158.94 248.30 161.06 239.20 C 168.59 244.23 174.35 251.37 180.65 257.78 Z" />
<path fill="#797978" opacity="1.00" d=" M 217.47 256.60 C 221.58 255.34 225.06 252.84 227.96 249.71 C 229.37 255.38 228.21 261.22 228.92 266.95 C 229.64 274.15 232.05 281.03 233.29 288.13 C 231.36 288.38 228.79 289.68 227.70 287.30 C 224.12 281.15 224.52 273.69 223.51 266.85 C 220.53 272.02 218.77 278.09 214.37 282.30 C 211.75 284.97 206.01 285.41 204.78 281.13 C 201.80 271.29 207.84 260.00 217.47 256.60 M 212.01 280.28 C 218.33 274.35 221.38 265.85 223.92 257.78 C 213.98 260.01 209.11 270.94 212.01 280.28 Z" />
<path fill="#797978" opacity="1.00" d=" M 238.43 255.36 C 238.86 253.37 238.81 249.10 241.82 249.97 C 245.16 257.36 243.52 265.79 244.84 273.62 C 249.22 265.28 250.85 252.72 260.94 249.48 C 264.76 260.24 260.13 271.69 262.27 282.75 C 263.41 286.56 260.12 287.99 256.94 288.49 C 253.14 277.06 256.88 265.19 257.80 253.64 C 248.94 263.37 246.94 276.82 244.19 289.16 C 243.39 289.08 241.79 288.91 240.99 288.82 C 237.28 278.10 237.86 266.51 238.43 255.36 Z" />
<path fill="#797978" opacity="1.00" d=" M 280.47 256.60 C 284.58 255.34 288.06 252.84 290.96 249.71 C 292.38 255.38 291.20 261.22 291.92 266.95 C 292.64 274.15 295.04 281.03 296.28 288.13 C 294.36 288.38 291.79 289.66 290.69 287.30 C 287.13 281.14 287.52 273.69 286.50 266.86 C 283.53 272.03 281.77 278.09 277.37 282.30 C 274.75 284.97 269.01 285.40 267.78 281.13 C 264.79 271.30 270.84 260.00 280.47 256.60 M 275.00 280.29 C 281.33 274.36 284.38 265.85 286.92 257.77 C 276.97 260.01 272.12 270.94 275.00 280.29 Z" />
<path fill="#797978" opacity="1.00" d=" M 309.32 261.33 C 314.06 255.59 322.88 256.18 327.07 249.79 C 331.44 262.34 330.68 275.93 329.97 288.98 C 329.21 298.02 323.25 308.72 313.09 308.74 C 302.81 308.02 297.95 295.09 302.93 286.75 C 304.49 286.79 306.05 286.84 307.62 286.88 C 307.04 291.15 304.95 296.77 308.96 300.03 C 313.10 302.90 318.47 299.34 320.17 295.27 C 323.55 287.27 323.33 278.35 324.15 269.85 C 319.96 274.00 313.78 278.76 307.69 275.54 C 302.15 272.16 305.54 264.71 309.32 261.33 M 310.76 271.49 C 318.56 271.90 323.32 263.75 324.43 256.98 C 318.56 260.28 312.88 264.82 310.76 271.49 Z" />
<path fill="#797978" opacity="1.00" d=" M 347.40 250.31 C 354.48 247.56 363.19 255.26 360.76 262.62 C 358.62 270.01 351.39 274.19 344.52 276.44 C 345.63 279.80 347.64 283.81 351.79 283.61 C 356.42 280.76 357.19 274.49 361.83 271.61 C 360.05 279.57 354.32 291.09 344.42 288.59 C 335.50 285.51 335.28 274.02 336.33 266.21 C 337.35 259.69 340.63 252.46 347.40 250.31 M 349.75 256.67 C 344.40 260.38 343.98 267.64 343.99 273.57 C 350.43 272.50 356.84 267.62 357.70 260.86 C 358.32 256.67 352.89 254.24 349.75 256.67 Z" />
<path fill="#797978" opacity="1.00" d=" M 367.29 250.14 C 368.00 250.10 369.43 250.03 370.14 250.00 C 371.97 254.48 372.64 259.28 373.30 264.04 C 375.36 260.58 376.11 254.55 380.90 254.02 C 385.94 254.88 386.16 261.07 387.33 265.01 C 390.20 259.38 393.11 250.88 400.72 251.08 C 405.23 254.45 404.80 260.92 405.05 265.97 C 404.57 273.04 404.97 280.15 404.14 287.19 C 402.71 287.19 401.29 287.19 399.88 287.20 C 397.80 276.00 401.32 264.85 400.82 253.63 C 389.99 259.63 388.79 273.69 387.59 284.73 C 387.78 287.79 382.41 290.10 381.83 286.24 C 379.29 276.56 382.06 266.57 381.76 256.75 C 373.68 265.59 375.12 278.25 374.25 289.26 C 372.86 289.09 371.48 288.94 370.11 288.79 C 366.76 276.22 366.74 263.04 367.29 250.14 Z" />
<path fill="#797978" opacity="1.00" d=" M 421.40 250.31 C 428.49 247.56 437.18 255.26 434.77 262.62 C 432.62 270.01 425.39 274.19 418.52 276.44 C 419.63 279.80 421.65 283.80 425.80 283.61 C 430.42 280.76 431.19 274.49 435.83 271.61 C 434.05 279.57 428.32 291.09 418.42 288.59 C 409.51 285.51 409.28 274.02 410.33 266.21 C 411.35 259.69 414.63 252.45 421.40 250.31 M 423.75 256.67 C 418.40 260.39 417.97 267.64 417.99 273.56 C 424.43 272.51 430.84 267.62 431.70 260.86 C 432.32 256.66 426.89 254.24 423.75 256.67 Z" />
<path fill="#797978" opacity="1.00" d=" M 441.43 255.36 C 441.83 253.34 441.83 249.20 444.84 249.94 C 448.12 257.36 446.55 265.78 447.84 273.62 C 452.22 265.28 453.85 252.73 463.93 249.47 C 467.39 258.01 464.08 267.17 464.81 276.00 C 465.03 280.88 467.41 288.53 459.94 288.48 C 456.14 277.06 459.88 265.19 460.80 253.65 C 451.94 263.37 449.94 276.82 447.19 289.16 C 446.39 289.08 444.79 288.91 443.99 288.82 C 440.29 278.10 440.86 266.51 441.43 255.36 Z" />
</g>
<g id="#004f72a7">
<path fill="#004f72" opacity="0.65" d=" M 17.46 203.57 C 24.63 188.84 31.43 173.60 42.00 160.93 C 38.97 167.38 34.99 173.30 31.32 179.39 C 18.56 201.86 8.78 226.16 3.57 251.51 C 2.52 260.51 1.94 269.58 0.00 278.47 L 0.00 262.65 C 3.26 242.32 8.80 222.29 17.46 203.57 Z" />
</g>
<g id="#00486999">
<path fill="#004869" opacity="0.60" d=" M 825.22 263.98 C 826.15 250.35 825.48 236.40 830.00 223.30 L 830.00 235.05 C 824.91 251.90 828.30 269.70 826.99 286.95 C 826.72 291.67 823.67 295.45 820.86 298.97 C 817.91 297.05 814.98 295.01 812.68 292.33 C 800.63 278.26 789.23 263.61 778.73 248.36 C 779.24 247.94 780.26 247.10 780.76 246.68 C 782.18 251.29 784.86 255.36 788.07 258.92 C 798.80 271.66 807.29 286.86 820.83 296.88 C 828.75 287.54 824.58 274.98 825.22 263.98 Z" />
</g>
<g id="#00090d13">
<path fill="#00090d" opacity="0.07" d=" M 810.25 270.42 C 812.23 268.93 814.71 268.46 817.04 267.76 C 817.91 270.89 817.70 274.15 816.79 277.24 C 813.28 276.77 809.26 274.62 810.25 270.42 Z" />
</g>
</svg>
