<?xml version="1.0" encoding="UTF-8" ?>
<!DOCTYPE svg PUBLIC "-//W3C//DTD SVG 1.1//EN" "http://www.w3.org/Graphics/SVG/1.1/DTD/svg11.dtd">
<svg width="661pt" height="325pt" viewBox="0 0 661 325" version="1.1" xmlns="http://www.w3.org/2000/svg">
<g id="#0024344c">
<path fill="#002434" opacity="0.30" d=" M 132.25 2.74 C 155.92 0.86 180.63 4.45 201.24 16.80 C 215.86 25.31 230.88 33.98 242.20 46.79 C 247.30 52.06 241.42 60.30 246.21 65.66 C 258.31 79.45 275.52 87.63 287.70 101.29 C 315.69 139.93 322.40 192.31 307.20 237.31 C 298.37 268.20 277.54 295.82 249.13 311.16 C 227.32 321.43 202.46 325.93 178.58 321.49 C 151.82 317.76 126.48 307.66 102.56 295.45 C 73.69 279.37 46.73 258.81 26.64 232.34 C 6.05 206.64 0.11 172.15 2.88 140.03 C 8.98 85.50 44.50 33.94 95.60 12.52 C 107.05 6.96 119.71 4.41 132.25 2.74 M 138.47 4.47 C 117.00 5.66 95.94 12.32 77.67 23.66 C 30.89 52.12 1.65 107.09 4.34 161.79 C 5.71 182.53 10.33 203.62 21.61 221.36 C 36.19 245.18 57.67 263.79 80.41 279.57 C 103.84 295.32 129.73 307.60 157.01 314.97 C 183.46 321.68 212.61 324.38 238.31 313.37 C 270.24 301.66 294.03 273.12 304.20 241.16 C 317.42 203.58 315.59 160.99 299.41 124.61 C 294.14 114.14 288.74 103.10 279.40 95.61 C 267.45 86.29 254.50 77.95 244.29 66.63 C 239.07 61.41 245.33 53.09 240.20 47.81 C 231.18 37.20 219.28 29.57 207.39 22.56 C 187.01 9.43 162.67 3.03 138.47 4.47 Z" />
</g>
<g id="#005074aa">
<path fill="#005074" opacity="0.67" d=" M 138.47 4.47 C 162.67 3.03 187.01 9.43 207.39 22.56 C 219.28 29.57 231.18 37.20 240.20 47.81 C 245.33 53.09 239.07 61.41 244.29 66.63 C 254.50 77.95 267.45 86.29 279.40 95.61 C 288.74 103.10 294.14 114.14 299.41 124.61 C 315.59 160.99 317.42 203.58 304.20 241.16 C 294.03 273.12 270.24 301.66 238.31 313.37 C 212.61 324.38 183.46 321.68 157.01 314.97 C 129.73 307.60 103.84 295.32 80.41 279.57 C 57.67 263.79 36.19 245.18 21.61 221.36 C 10.33 203.62 5.71 182.53 4.34 161.79 C 1.65 107.09 30.89 52.12 77.67 23.66 C 95.94 12.32 117.00 5.66 138.47 4.47 M 60.34 38.36 C 20.74 71.35 -0.51 125.69 8.22 176.72 C 10.70 198.49 20.75 218.73 34.26 235.74 C 57.81 264.54 89.70 285.11 123.00 300.95 C 155.36 314.60 191.55 323.76 226.53 315.45 C 244.19 310.14 260.86 301.02 274.19 288.20 C 290.71 271.38 301.46 249.47 306.59 226.58 C 314.19 193.10 311.73 156.90 297.54 125.44 C 291.83 112.55 283.78 100.11 271.91 92.10 C 261.51 85.04 251.72 77.03 242.89 68.09 C 238.19 64.21 239.68 57.98 241.52 53.07 C 226.78 33.76 204.40 22.07 182.57 12.48 C 141.04 -1.43 93.03 9.57 60.34 38.36 Z" />
</g>
<g id="#0079afff">
<path fill="#0079af" opacity="1.00" d=" M 60.34 38.36 C 93.03 9.57 141.04 -1.43 182.57 12.48 C 204.40 22.07 226.78 33.76 241.52 53.07 C 239.68 57.98 238.19 64.21 242.89 68.09 C 251.72 77.03 261.51 85.04 271.91 92.10 C 283.78 100.11 291.83 112.55 297.54 125.44 C 311.73 156.90 314.19 193.10 306.59 226.58 C 301.46 249.47 290.71 271.38 274.19 288.20 C 260.86 301.02 244.19 310.14 226.53 315.45 C 191.55 323.76 155.36 314.60 123.00 300.95 C 89.70 285.11 57.81 264.54 34.26 235.74 C 20.75 218.73 10.70 198.49 8.22 176.72 C -0.51 125.69 20.74 71.35 60.34 38.36 M 124.37 24.53 C 93.24 24.33 65.25 44.49 49.04 70.03 C 25.79 106.71 17.03 154.35 32.28 195.72 C 38.35 212.65 51.20 225.92 64.51 237.50 C 86.92 255.83 112.12 270.46 138.27 282.73 C 162.05 292.36 186.87 301.35 212.85 301.54 C 224.09 301.75 236.14 301.03 245.89 294.87 C 263.36 281.95 274.43 262.10 280.66 241.62 C 283.58 230.70 286.49 219.42 285.27 208.02 C 283.60 189.91 278.75 172.26 272.87 155.10 C 262.61 126.80 249.88 98.78 230.65 75.36 C 216.18 59.81 197.49 48.79 178.69 39.26 C 161.69 31.21 143.63 23.28 124.37 24.53 M 266.78 109.22 C 265.27 118.37 270.13 126.57 272.96 134.92 C 277.76 148.76 284.20 162.01 288.04 176.19 C 291.28 185.20 291.08 194.87 292.26 204.25 C 301.24 205.64 300.54 195.32 300.56 189.22 C 299.66 162.31 288.53 136.93 274.77 114.20 C 273.04 111.35 269.65 110.45 266.78 109.22 Z" />
</g>
<g id="#005277ae">
<path fill="#005277" opacity="0.68" d=" M 124.37 24.53 C 143.63 23.28 161.69 31.21 178.69 39.26 C 197.49 48.79 216.18 59.81 230.65 75.36 C 249.88 98.78 262.61 126.80 272.87 155.10 C 278.75 172.26 283.60 189.91 285.27 208.02 C 286.49 219.42 283.58 230.70 280.66 241.62 C 274.43 262.10 263.36 281.95 245.89 294.87 C 236.14 301.03 224.09 301.75 212.85 301.54 C 186.87 301.35 162.05 292.36 138.27 282.73 C 112.12 270.46 86.92 255.83 64.51 237.50 C 51.20 225.92 38.35 212.65 32.28 195.72 C 17.03 154.35 25.79 106.71 49.04 70.03 C 65.25 44.49 93.24 24.33 124.37 24.53 M 120.47 26.53 C 99.15 27.84 79.11 38.13 64.34 53.33 C 41.76 77.13 29.37 109.47 27.12 141.96 C 25.30 166.29 29.46 192.13 43.44 212.56 C 59.02 232.83 79.99 248.25 101.80 261.25 C 132.11 279.27 165.23 293.96 200.42 298.74 C 215.97 300.25 233.28 300.99 246.80 291.81 C 264.73 278.57 274.73 257.27 280.23 236.20 C 284.37 221.47 283.86 205.94 280.85 191.06 C 273.34 155.38 258.74 121.38 239.45 90.52 C 227.53 70.54 207.58 57.42 187.74 46.28 C 167.07 35.25 144.53 24.64 120.47 26.53 Z" />
</g>
<g id="#00263752">
<path fill="#002637" opacity="0.32" d=" M 120.47 26.53 C 144.53 24.64 167.07 35.25 187.74 46.28 C 207.58 57.42 227.53 70.54 239.45 90.52 C 258.74 121.38 273.34 155.38 280.85 191.06 C 283.86 205.94 284.37 221.47 280.23 236.20 C 274.73 257.27 264.73 278.57 246.80 291.81 C 233.28 300.99 215.97 300.25 200.42 298.74 C 165.23 293.96 132.11 279.27 101.80 261.25 C 79.99 248.25 59.02 232.83 43.44 212.56 C 29.46 192.13 25.30 166.29 27.12 141.96 C 29.37 109.47 41.76 77.13 64.34 53.33 C 79.11 38.13 99.15 27.84 120.47 26.53 M 120.37 28.56 C 106.55 30.22 92.50 33.97 80.89 41.90 C 50.66 62.37 33.88 98.42 30.03 133.98 C 26.12 160.51 30.41 189.09 45.25 211.79 C 55.81 226.48 70.50 237.43 84.84 248.18 C 116.64 269.88 152.11 287.10 189.97 294.95 C 210.45 298.64 235.18 301.14 251.65 285.65 C 275.87 261.71 285.56 224.88 278.96 191.77 C 272.61 162.37 261.50 134.12 247.35 107.62 C 239.24 92.81 230.14 77.87 216.52 67.47 C 202.04 56.34 186.12 47.23 169.70 39.32 C 154.22 32.59 137.48 27.05 120.37 28.56 Z" />
</g>
<g id="#00577eb8">
<path fill="#00577e" opacity="0.72" d=" M 266.78 109.22 C 269.65 110.45 273.04 111.35 274.77 114.20 C 288.53 136.93 299.66 162.31 300.56 189.22 C 300.54 195.32 301.24 205.64 292.26 204.25 C 291.08 194.87 291.28 185.20 288.04 176.19 C 284.20 162.01 277.76 148.76 272.96 134.92 C 270.13 126.57 265.27 118.37 266.78 109.22 M 269.17 113.41 C 269.51 117.26 269.98 121.13 271.21 124.81 C 277.66 143.27 286.19 161.04 290.79 180.11 C 292.46 187.04 292.35 194.30 294.47 201.15 C 299.41 197.99 298.77 191.27 298.76 186.17 C 296.51 163.14 288.29 141.05 277.07 120.93 C 275.45 117.51 272.28 115.33 269.17 113.41 Z" />
</g>
<g id="#002d4160">
<path fill="#002d41" opacity="0.38" d=" M 269.17 113.41 C 272.28 115.33 275.45 117.51 277.07 120.93 C 288.29 141.05 296.51 163.14 298.76 186.17 C 298.77 191.27 299.41 197.99 294.47 201.15 C 292.35 194.30 292.46 187.04 290.79 180.11 C 286.19 161.04 277.66 143.27 271.21 124.81 C 269.98 121.13 269.51 117.26 269.17 113.41 M 273.20 119.53 C 273.45 123.85 273.98 128.22 275.69 132.25 C 283.58 151.82 290.93 171.68 295.50 192.33 C 297.04 185.03 296.34 177.54 294.49 170.37 C 290.07 152.58 284.50 134.22 273.20 119.53 Z" />
</g>
<g id="#00213047">
<path fill="#002130" opacity="0.28" d=" M 631.87 123.88 C 638.73 120.33 645.35 114.76 653.36 114.55 C 658.79 118.75 658.02 126.77 655.52 132.41 C 650.72 143.59 645.53 154.72 642.87 166.66 C 641.01 175.30 638.86 183.97 634.97 191.95 C 633.94 193.84 632.86 196.53 630.23 196.12 C 625.19 192.46 624.35 185.54 625.81 179.88 C 627.56 170.04 633.45 161.52 634.89 151.60 C 622.12 162.75 609.59 174.46 594.70 182.80 C 551.80 211.97 499.69 226.90 447.91 226.38 C 431.70 225.93 415.56 227.68 399.48 229.42 C 374.88 230.22 348.54 231.09 326.41 218.49 C 323.20 217.05 322.62 213.34 321.62 210.36 C 326.92 209.27 332.63 208.74 337.59 211.40 C 346.13 215.79 355.92 214.91 365.20 215.39 C 381.44 216.01 397.70 215.58 413.94 215.95 C 435.02 216.47 455.95 213.67 476.92 212.05 C 516.33 206.15 556.28 195.50 589.22 172.20 C 601.41 164.39 614.21 156.20 622.58 144.14 C 616.56 145.35 611.11 148.25 605.25 149.91 C 600.98 151.48 597.82 143.96 601.74 141.86 C 611.28 135.07 621.86 129.93 631.87 123.88 M 616.78 134.80 C 611.69 137.35 607.07 140.68 602.48 144.03 C 603.08 145.34 603.57 146.70 604.01 148.07 C 612.17 145.98 619.71 142.12 627.72 139.59 C 627.83 140.44 628.04 142.15 628.14 143.01 C 616.11 154.10 604.20 165.55 590.18 174.16 C 545.55 204.11 491.00 215.36 437.99 217.07 C 408.10 218.57 378.15 218.03 348.28 216.53 C 340.39 215.94 333.36 209.43 325.24 212.81 C 325.22 213.61 325.18 215.21 325.16 216.01 C 348.66 229.47 376.86 228.18 402.98 226.74 C 425.29 224.45 447.77 225.40 470.11 223.47 C 526.53 219.85 580.56 195.80 623.50 159.48 C 627.50 156.00 630.90 151.57 636.00 149.62 C 637.81 156.24 633.14 162.22 631.40 168.36 C 628.55 176.84 624.08 187.72 631.58 195.15 C 638.54 182.57 639.54 167.93 644.56 154.64 C 647.36 145.80 651.83 137.62 654.92 128.90 C 656.55 124.70 656.39 118.66 651.68 116.56 C 639.06 120.46 628.45 128.84 616.78 134.80 Z" />
</g>
<g id="#004a6b9d">
<path fill="#004a6b" opacity="0.62" d=" M 616.78 134.80 C 628.45 128.84 639.06 120.46 651.68 116.56 C 656.39 118.66 656.55 124.70 654.92 128.90 C 651.83 137.62 647.36 145.80 644.56 154.64 C 639.54 167.93 638.54 182.57 631.58 195.15 C 624.08 187.72 628.55 176.84 631.40 168.36 C 633.14 162.22 637.81 156.24 636.00 149.62 C 630.90 151.57 627.50 156.00 623.50 159.48 C 580.56 195.80 526.53 219.85 470.11 223.47 C 447.77 225.40 425.29 224.45 402.98 226.74 C 376.86 228.18 348.66 229.47 325.16 216.01 C 325.18 215.21 325.22 213.61 325.24 212.81 C 333.36 209.43 340.39 215.94 348.28 216.53 C 378.15 218.03 408.10 218.57 437.99 217.07 C 491.00 215.36 545.55 204.11 590.18 174.16 C 604.20 165.55 616.11 154.10 628.14 143.01 C 628.04 142.15 627.83 140.44 627.72 139.59 C 619.71 142.12 612.17 145.98 604.01 148.07 C 603.57 146.70 603.08 145.34 602.48 144.03 C 607.07 140.68 611.69 137.35 616.78 134.80 M 628.79 129.85 C 620.78 135.15 611.27 138.27 604.55 145.38 C 613.30 144.51 620.86 139.64 629.13 137.10 C 633.95 135.61 637.88 128.22 643.28 131.58 C 647.12 135.25 642.78 139.72 640.34 142.69 C 637.98 141.57 635.63 140.45 633.27 139.35 C 625.82 149.21 615.44 156.16 606.40 164.42 C 575.24 189.33 537.38 205.25 498.24 212.41 C 455.32 220.63 411.43 220.20 367.92 219.48 C 358.04 219.02 347.74 219.54 338.49 215.45 C 334.97 213.81 331.06 213.58 327.26 214.03 C 337.36 222.64 351.29 223.97 363.99 224.95 C 388.68 227.15 413.35 223.70 437.98 222.61 C 483.78 223.67 530.28 214.52 570.84 192.80 C 589.20 183.71 605.88 171.59 621.81 158.81 C 627.02 154.91 630.86 148.10 637.90 147.50 C 639.78 152.78 636.59 157.99 635.05 162.92 C 631.85 172.50 627.09 182.80 630.69 192.96 C 633.84 187.46 635.79 181.39 637.04 175.19 C 640.21 160.51 645.74 146.49 651.78 132.79 C 653.20 128.31 656.18 121.90 651.72 118.27 C 643.73 121.34 636.41 125.97 628.79 129.85 M 635.26 136.14 C 635.59 138.96 638.49 140.95 641.11 139.39 C 642.69 137.74 642.52 135.10 643.15 133.00 C 640.41 133.51 636.40 132.86 635.26 136.14 Z" />
</g>
<g id="#0077acfb">
<path fill="#0077ac" opacity="1.00" d=" M 628.79 129.85 C 636.41 125.97 643.73 121.34 651.72 118.27 C 656.18 121.90 653.20 128.31 651.78 132.79 C 645.74 146.49 640.21 160.51 637.04 175.19 C 635.79 181.39 633.84 187.46 630.69 192.96 C 627.09 182.80 631.85 172.50 635.05 162.92 C 636.59 157.99 639.78 152.78 637.90 147.50 C 630.86 148.10 627.02 154.91 621.81 158.81 C 605.88 171.59 589.20 183.71 570.84 192.80 C 530.28 214.52 483.78 223.67 437.98 222.61 C 413.35 223.70 388.68 227.15 363.99 224.95 C 351.29 223.97 337.36 222.64 327.26 214.03 C 331.06 213.58 334.97 213.81 338.49 215.45 C 347.74 219.54 358.04 219.02 367.92 219.48 C 411.43 220.20 455.32 220.63 498.24 212.41 C 537.38 205.25 575.24 189.33 606.40 164.42 C 615.44 156.16 625.82 149.21 633.27 139.35 C 635.63 140.45 637.98 141.57 640.34 142.69 C 642.78 139.72 647.12 135.25 643.28 131.58 C 637.88 128.22 633.95 135.61 629.13 137.10 C 620.86 139.64 613.30 144.51 604.55 145.38 C 611.27 138.27 620.78 135.15 628.79 129.85 Z" />
</g>
<g id="#000e141e">
<path fill="#000e14" opacity="0.12" d=" M 635.26 136.14 C 636.40 132.86 640.41 133.51 643.15 133.00 C 642.52 135.10 642.69 137.74 641.11 139.39 C 638.49 140.95 635.59 138.96 635.26 136.14 Z" />
</g>
<g id="#797978ff">
<path fill="#797978" opacity="1.00" d=" M 102.27 150.57 C 100.42 142.65 108.96 135.35 116.57 137.33 C 122.18 138.23 125.34 143.44 127.72 148.07 C 122.30 145.75 114.45 142.06 111.14 149.40 C 122.38 154.95 132.02 166.58 129.05 179.84 C 128.02 189.41 115.42 195.83 107.73 189.29 C 102.96 185.82 102.53 179.51 102.48 174.12 C 103.21 174.11 104.66 174.08 105.39 174.07 C 105.96 177.91 105.56 182.60 108.66 185.48 C 113.37 188.67 120.96 185.30 121.60 179.58 C 122.46 172.73 119.63 165.19 113.63 161.46 C 109.40 158.44 103.51 156.22 102.27 150.57 Z" />
<path fill="#797978" opacity="1.00" d=" M 133.01 143.94 C 133.30 141.28 133.35 136.74 137.10 137.11 C 146.38 137.09 156.85 135.99 164.91 141.53 C 156.95 142.14 149.00 140.89 141.04 140.94 C 141.43 141.93 141.82 142.92 142.21 143.92 C 148.58 143.82 155.46 143.56 160.85 147.58 C 154.70 148.16 148.52 148.04 142.35 148.07 C 141.93 159.05 142.42 170.04 142.30 181.03 C 142.46 182.87 142.10 185.11 143.64 186.48 C 150.43 187.73 157.55 186.09 164.19 188.47 C 157.02 192.16 148.72 190.96 140.96 191.28 C 136.15 191.70 134.60 186.50 134.36 182.68 C 133.22 169.81 132.76 156.86 133.01 143.94 Z" />
<path fill="#797978" opacity="1.00" d=" M 186.52 137.47 C 195.13 134.43 201.83 143.44 201.68 151.28 C 201.98 164.76 198.97 180.12 188.48 189.46 C 181.26 195.73 170.34 189.43 169.18 180.77 C 165.89 165.19 169.87 143.66 186.52 137.47 M 191.46 143.37 C 180.70 147.08 176.71 159.61 176.66 170.00 C 176.60 175.63 177.18 183.42 183.50 185.54 C 188.29 187.11 191.51 181.99 193.34 178.37 C 197.38 169.44 199.41 159.17 197.55 149.46 C 196.73 146.65 195.35 141.78 191.46 143.37 Z" />
</g>
</svg>
