<?xml version="1.0" encoding="UTF-8" ?>
<!DOCTYPE svg PUBLIC "-//W3C//DTD SVG 1.1//EN" "http://www.w3.org/Graphics/SVG/1.1/DTD/svg11.dtd">
<svg width="661pt" height="325pt" viewBox="0 0 661 325" version="1.1" xmlns="http://www.w3.org/2000/svg">
<g id="#0000004c">
<path fill="#000000" opacity="0.30" d=" M 132.26 2.70 C 156.18 0.85 181.13 4.53 201.89 17.15 C 216.69 25.77 231.90 34.61 243.09 47.86 C 247.74 52.83 240.85 60.29 245.81 65.14 C 257.69 78.79 274.32 87.20 286.87 100.12 C 307.83 128.21 317.02 164.28 314.90 199.04 C 311.92 229.55 302.49 260.57 282.20 284.19 C 275.17 293.53 265.37 300.16 256.18 307.16 C 232.07 321.40 202.60 326.57 175.12 320.89 C 142.26 315.46 111.10 301.78 83.19 283.84 C 62.55 270.00 43.08 253.90 27.96 234.02 C 15.88 219.38 7.92 201.53 5.02 182.78 C 1.14 168.83 2.39 154.28 2.81 140.01 C 9.05 85.26 44.76 33.36 96.32 12.26 C 107.47 6.63 120.03 4.55 132.26 2.70 M 138.49 4.46 C 109.81 6.00 82.00 17.62 60.23 36.24 C 22.05 67.81 0.16 118.58 4.79 168.05 C 6.80 186.17 11.08 204.49 20.86 220.10 C 36.31 245.97 59.85 265.76 84.59 282.39 C 99.61 292.04 115.56 300.22 132.15 306.81 C 159.35 317.28 189.08 323.93 218.24 319.27 C 227.79 318.07 236.55 313.87 245.46 310.47 C 274.32 296.95 295.50 269.85 304.69 239.64 C 317.53 202.22 315.34 159.94 299.08 123.91 C 294.28 114.51 289.41 104.71 281.58 97.42 C 268.77 86.95 254.29 78.20 243.43 65.52 C 238.73 60.78 245.80 53.72 241.04 48.93 C 229.39 34.70 212.96 25.59 197.10 16.82 C 179.27 7.09 158.63 3.63 138.49 4.46 Z" />
</g>
<g id="#000000aa">
<path fill="#000000" opacity="0.67" d=" M 138.49 4.46 C 158.63 3.63 179.27 7.09 197.10 16.82 C 212.96 25.59 229.39 34.70 241.04 48.93 C 245.80 53.72 238.73 60.78 243.43 65.52 C 254.29 78.20 268.77 86.95 281.58 97.42 C 289.41 104.71 294.28 114.51 299.08 123.91 C 315.34 159.94 317.53 202.22 304.69 239.64 C 295.50 269.85 274.32 296.95 245.46 310.47 C 236.55 313.87 227.79 318.07 218.24 319.27 C 189.08 323.93 159.35 317.28 132.15 306.81 C 115.56 300.22 99.61 292.04 84.59 282.39 C 59.85 265.76 36.31 245.97 20.86 220.10 C 11.08 204.49 6.80 186.17 4.79 168.05 C 0.16 118.58 22.05 67.81 60.23 36.24 C 82.00 17.62 109.81 6.00 138.49 4.46 M 137.47 6.60 C 121.62 8.09 105.76 11.30 91.40 18.38 C 33.42 45.25 -2.56 112.76 8.14 175.86 C 11.14 203.59 26.01 229.01 45.71 248.29 C 67.16 270.67 94.06 286.82 121.70 300.37 C 152.89 313.70 187.44 322.95 221.47 316.55 C 247.26 310.62 271.44 295.49 286.41 273.42 C 307.90 242.25 313.95 202.67 309.32 165.64 C 304.84 140.81 296.78 114.87 278.11 96.90 C 265.18 87.01 251.11 77.97 240.69 65.28 C 236.63 61.04 243.24 55.84 240.44 51.61 C 228.11 36.13 210.48 25.76 192.92 17.17 C 176.08 8.02 156.32 6.11 137.47 6.60 Z" />
</g>
<g id="#000000ff">
<path fill="#000000" opacity="1.00" d=" M 137.47 6.60 C 156.32 6.11 176.08 8.02 192.92 17.17 C 210.48 25.76 228.11 36.13 240.44 51.61 C 243.24 55.84 236.63 61.04 240.69 65.28 C 251.11 77.97 265.18 87.01 278.11 96.90 C 296.78 114.87 304.84 140.81 309.32 165.64 C 313.95 202.67 307.90 242.25 286.41 273.42 C 271.44 295.49 247.26 310.62 221.47 316.55 C 187.44 322.95 152.89 313.70 121.70 300.37 C 94.06 286.82 67.16 270.67 45.71 248.29 C 26.01 229.01 11.14 203.59 8.14 175.86 C -2.56 112.76 33.42 45.25 91.40 18.38 C 105.76 11.30 121.62 8.09 137.47 6.60 M 124.39 24.69 C 104.05 24.47 84.69 33.46 69.34 46.34 C 43.35 70.09 28.83 104.60 25.46 139.26 C 24.63 156.63 24.76 174.52 30.92 191.03 C 35.77 209.40 49.21 223.65 62.93 236.04 C 85.91 255.24 112.06 270.27 139.13 282.87 C 162.86 292.44 187.61 301.32 213.53 301.36 C 226.42 301.40 241.13 300.44 250.76 290.76 C 268.41 275.32 278.73 252.94 283.26 230.25 C 288.30 209.62 282.35 188.54 277.20 168.57 C 267.57 138.55 255.13 109.02 236.69 83.26 C 224.35 65.35 205.12 54.01 186.64 43.40 C 167.22 33.81 146.68 23.40 124.39 24.69 M 266.17 114.85 C 273.01 139.34 285.49 162.04 290.81 187.00 C 291.58 192.46 290.28 198.30 292.65 203.45 C 296.16 205.49 300.21 202.92 299.98 198.91 C 302.62 168.28 289.92 138.56 273.90 113.14 C 272.16 108.73 264.84 109.57 266.17 114.85 Z" />
</g>
<g id="#00000095">
<path fill="#000000" opacity="0.58" d=" M 124.39 24.69 C 146.68 23.40 167.22 33.81 186.64 43.40 C 205.12 54.01 224.35 65.35 236.69 83.26 C 255.13 109.02 267.57 138.55 277.20 168.57 C 282.35 188.54 288.30 209.62 283.26 230.25 C 278.73 252.94 268.41 275.32 250.76 290.76 C 241.13 300.44 226.42 301.40 213.53 301.36 C 187.61 301.32 162.86 292.44 139.13 282.87 C 112.06 270.27 85.91 255.24 62.93 236.04 C 49.21 223.65 35.77 209.40 30.92 191.03 C 24.76 174.52 24.63 156.63 25.46 139.26 C 28.83 104.60 43.35 70.09 69.34 46.34 C 84.69 33.46 104.05 24.47 124.39 24.69 M 121.40 26.62 C 103.92 27.66 86.86 34.14 73.37 45.37 C 44.65 68.69 30.11 105.78 27.13 141.92 C 25.31 170.07 31.03 200.83 51.16 221.83 C 72.99 244.70 100.29 261.52 128.33 275.69 C 155.80 288.47 185.20 299.33 215.87 299.57 C 227.94 299.58 240.83 297.40 250.19 289.19 C 267.25 274.19 276.86 252.32 281.41 230.43 C 284.95 215.30 282.65 199.59 279.32 184.66 C 270.72 148.86 255.52 114.55 234.94 84.02 C 224.31 68.82 208.31 58.79 192.81 49.20 C 170.87 37.24 147.17 24.87 121.40 26.62 Z" />
<path fill="#000000" opacity="0.58" d=" M 630.60 126.60 C 637.24 122.94 643.88 119.05 650.93 116.30 C 655.99 117.42 657.00 124.11 655.26 128.30 C 651.24 139.17 645.82 149.52 642.73 160.75 C 638.69 171.80 638.75 185.33 631.03 194.47 C 624.96 189.60 627.43 180.75 629.30 174.38 C 630.88 166.16 636.48 158.88 636.53 150.44 C 631.42 149.40 628.81 155.59 625.23 158.24 C 588.98 189.10 545.11 211.51 498.09 220.11 C 475.64 224.17 452.74 224.99 429.98 225.13 C 397.11 226.48 362.09 232.90 330.91 219.13 C 328.50 217.92 324.49 216.85 325.17 213.36 C 332.71 207.85 339.86 216.35 347.56 216.41 C 390.01 218.32 432.73 218.82 475.02 214.09 C 527.77 207.88 580.31 188.28 619.20 151.20 C 622.26 147.72 627.90 145.40 628.03 140.19 C 619.56 140.83 612.76 147.34 604.17 147.62 C 603.18 146.75 602.57 145.55 602.28 144.29 C 610.51 136.58 621.48 133.03 630.60 126.60 M 621.84 133.89 C 616.02 137.48 608.41 139.43 604.94 145.81 C 614.63 145.36 622.04 136.25 631.96 137.92 C 631.74 140.75 630.78 143.66 628.42 145.42 C 619.74 152.37 611.86 160.28 603.01 167.03 C 559.72 200.35 504.95 215.39 450.99 218.10 C 441.61 218.50 432.31 219.97 422.90 219.65 C 396.72 219.42 370.42 220.70 344.37 217.59 C 338.83 217.14 332.62 209.97 327.64 215.04 C 333.16 219.28 340.18 221.01 346.75 223.01 C 372.71 227.41 399.17 225.64 425.25 223.39 C 437.17 222.25 449.15 223.26 461.07 222.16 C 524.86 220.11 586.85 192.59 632.94 148.84 C 634.57 147.37 637.40 147.09 638.72 149.14 C 637.83 157.90 633.27 165.74 631.29 174.25 C 629.92 180.14 627.15 187.02 630.98 192.55 C 634.44 187.38 635.59 181.14 637.07 175.20 C 640.32 160.53 645.85 146.51 651.81 132.75 C 653.19 128.27 656.53 121.64 651.59 118.25 C 641.45 122.83 631.38 128.00 621.84 133.89 Z" />
</g>
<g id="#00000060">
<path fill="#000000" opacity="0.38" d=" M 121.40 26.62 C 147.17 24.87 170.87 37.24 192.81 49.20 C 208.31 58.79 224.31 68.82 234.94 84.02 C 255.52 114.55 270.72 148.86 279.32 184.66 C 282.65 199.59 284.95 215.30 281.41 230.43 C 276.86 252.32 267.25 274.19 250.19 289.19 C 240.83 297.40 227.94 299.58 215.87 299.57 C 185.20 299.33 155.80 288.47 128.33 275.69 C 100.29 261.52 72.99 244.70 51.16 221.83 C 31.03 200.83 25.31 170.07 27.13 141.92 C 30.11 105.78 44.65 68.69 73.37 45.37 C 86.86 34.14 103.92 27.66 121.40 26.62 M 120.41 28.44 C 101.91 30.22 83.91 37.45 70.22 50.20 C 40.84 76.86 28.31 117.74 28.39 156.56 C 30.15 178.34 35.28 201.09 50.07 217.93 C 69.04 238.98 93.04 254.70 117.72 268.26 C 148.32 283.83 181.24 296.92 216.00 297.94 C 227.36 297.57 239.18 295.51 248.44 288.44 C 264.75 274.62 274.18 254.46 278.93 233.95 C 286.49 200.51 273.18 167.41 261.43 136.63 C 251.19 114.08 240.41 91.03 223.05 72.97 C 210.85 62.38 197.19 53.51 182.83 46.13 C 163.84 35.61 142.50 27.04 120.41 28.44 Z" />
<path fill="#000000" opacity="0.38" d=" M 269.16 114.05 C 274.84 114.42 276.64 120.79 279.14 124.91 C 288.79 142.20 295.25 161.21 298.22 180.80 C 299.18 187.57 299.64 195.07 295.81 201.11 C 291.81 197.27 293.00 191.01 291.98 186.01 C 288.70 167.73 280.67 150.84 274.44 133.46 C 272.08 127.19 269.09 120.90 269.16 114.05 M 273.12 119.94 C 272.53 125.60 275.24 130.76 277.22 135.87 C 284.16 154.34 291.63 172.73 295.23 192.22 C 297.10 187.36 296.66 182.07 295.80 177.05 C 292.84 159.94 287.05 143.34 278.99 127.97 C 277.40 125.08 276.43 121.33 273.12 119.94 Z" />
</g>
<g id="#000000b8">
<path fill="#000000" opacity="0.72" d=" M 266.17 114.85 C 264.84 109.57 272.16 108.73 273.90 113.14 C 289.92 138.56 302.62 168.28 299.98 198.91 C 300.21 202.92 296.16 205.49 292.65 203.45 C 290.28 198.30 291.58 192.46 290.81 187.00 C 285.49 162.04 273.01 139.34 266.17 114.85 M 269.16 114.05 C 269.09 120.90 272.08 127.19 274.44 133.46 C 280.67 150.84 288.70 167.73 291.98 186.01 C 293.00 191.01 291.81 197.27 295.81 201.11 C 299.64 195.07 299.18 187.57 298.22 180.80 C 295.25 161.21 288.79 142.20 279.14 124.91 C 276.64 120.79 274.84 114.42 269.16 114.05 Z" />
</g>
<g id="#00000044">
<path fill="#000000" opacity="0.27" d=" M 640.06 119.10 C 644.41 117.27 648.64 113.99 653.56 114.36 C 658.45 118.14 658.48 125.82 656.13 131.11 C 649.98 145.43 643.58 159.87 641.03 175.35 C 639.10 181.76 636.86 188.12 634.23 194.28 C 632.98 197.60 628.51 196.17 627.57 193.35 C 622.60 186.60 626.23 178.31 628.27 171.22 C 630.06 164.64 634.18 158.84 635.04 152.00 C 630.77 153.81 628.10 157.76 624.77 160.78 C 618.40 166.85 610.88 171.50 604.17 177.17 C 585.69 188.42 567.67 200.93 546.96 207.92 C 515.87 220.59 482.26 226.75 448.71 226.42 C 432.23 226.06 415.81 227.64 399.45 229.52 C 374.13 230.46 346.98 230.94 324.46 217.57 C 322.11 216.02 321.77 212.94 322.21 210.39 C 330.77 206.46 338.40 212.37 346.31 214.51 C 387.22 216.09 428.41 217.41 469.16 212.51 C 480.53 212.71 491.30 208.84 502.46 207.42 C 528.78 202.01 554.40 192.87 577.85 179.84 C 588.68 171.58 601.42 165.87 611.05 156.02 C 614.67 152.07 621.11 149.91 622.04 144.09 C 615.53 145.48 609.77 149.07 603.34 150.65 C 600.80 148.99 599.10 145.54 600.28 142.58 C 613.20 134.18 626.66 126.70 640.06 119.10 M 630.60 126.60 C 621.48 133.03 610.51 136.58 602.28 144.29 C 602.57 145.55 603.18 146.75 604.17 147.62 C 612.76 147.34 619.56 140.83 628.03 140.19 C 627.90 145.40 622.26 147.72 619.20 151.20 C 580.31 188.28 527.77 207.88 475.02 214.09 C 432.73 218.82 390.01 218.32 347.56 216.41 C 339.86 216.35 332.71 207.85 325.17 213.36 C 324.49 216.85 328.50 217.92 330.91 219.13 C 362.09 232.90 397.11 226.48 429.98 225.13 C 452.74 224.99 475.64 224.17 498.09 220.11 C 545.11 211.51 588.98 189.10 625.23 158.24 C 628.81 155.59 631.42 149.40 636.53 150.44 C 636.48 158.88 630.88 166.16 629.30 174.38 C 627.43 180.75 624.96 189.60 631.03 194.47 C 638.75 185.33 638.69 171.80 642.73 160.75 C 645.82 149.52 651.24 139.17 655.26 128.30 C 657.00 124.11 655.99 117.42 650.93 116.30 C 643.88 119.05 637.24 122.94 630.60 126.60 Z" />
</g>
<g id="#000000fa">
<path fill="#000000" opacity="0.98" d=" M 621.84 133.89 C 631.38 128.00 641.45 122.83 651.59 118.25 C 656.53 121.64 653.19 128.27 651.81 132.75 C 645.85 146.51 640.32 160.53 637.07 175.20 C 635.59 181.14 634.44 187.38 630.98 192.55 C 627.15 187.02 629.92 180.14 631.29 174.25 C 633.27 165.74 637.83 157.90 638.72 149.14 C 637.40 147.09 634.57 147.37 632.94 148.84 C 586.85 192.59 524.86 220.11 461.07 222.16 C 449.15 223.26 437.17 222.25 425.25 223.39 C 399.17 225.64 372.71 227.41 346.75 223.01 C 340.18 221.01 333.16 219.28 327.64 215.04 C 332.62 209.97 338.83 217.14 344.37 217.59 C 370.42 220.70 396.72 219.42 422.90 219.65 C 432.31 219.97 441.61 218.50 450.99 218.10 C 504.95 215.39 559.72 200.35 603.01 167.03 C 611.86 160.28 619.74 152.37 628.42 145.42 C 630.78 143.66 631.74 140.75 631.96 137.92 C 622.04 136.25 614.63 145.36 604.94 145.81 C 608.41 139.43 616.02 137.48 621.84 133.89 M 634.95 134.07 C 632.25 137.68 637.69 142.86 641.29 140.45 C 644.42 138.99 644.39 134.69 642.63 132.17 C 640.02 131.56 636.65 131.71 634.95 134.07 Z" />
</g>
<g id="#32c5d2ff">
<path fill="#32c5d2" opacity="1.00" d=" M 90.58 146.39 C 87.83 138.48 94.23 130.06 102.10 128.81 C 110.78 127.11 119.06 134.18 121.09 142.29 C 116.49 141.66 113.00 137.22 108.13 138.04 C 105.03 138.25 100.96 140.92 102.36 144.49 C 105.70 147.67 110.30 149.14 113.62 152.38 C 122.27 160.67 126.46 174.31 121.65 185.64 C 118.26 194.33 106.33 199.08 98.34 193.68 C 91.89 189.68 89.28 181.26 91.08 174.08 C 91.82 174.02 93.29 173.89 94.03 173.83 C 94.75 178.62 93.95 184.52 98.07 188.01 C 104.00 192.12 113.95 187.39 113.99 179.99 C 114.57 172.37 111.86 164.11 105.56 159.43 C 100.42 155.31 92.78 153.30 90.58 146.39 Z" />
<path fill="#32c5d2" opacity="1.00" d=" M 128.34 134.21 C 129.37 126.58 138.74 129.66 143.96 129.58 C 151.27 130.84 161.15 128.72 166.31 135.14 C 156.89 135.99 147.52 133.79 138.09 134.18 C 138.37 135.40 138.73 136.61 139.25 137.76 C 146.52 138.97 156.54 135.83 161.36 143.08 C 154.11 143.58 146.72 142.05 139.57 143.53 C 138.52 156.68 139.75 169.89 139.30 183.06 C 139.57 185.10 138.72 187.95 140.74 189.29 C 148.58 191.83 157.87 187.44 165.08 192.06 C 165.05 192.51 165.01 193.40 164.98 193.85 C 155.72 195.07 146.31 195.15 136.99 195.31 C 131.65 195.37 129.95 189.55 129.71 185.22 C 128.27 168.27 127.47 151.20 128.34 134.21 Z" />
<path fill="#32c5d2" opacity="1.00" d=" M 192.45 129.45 C 199.19 126.60 207.48 130.10 209.97 137.01 C 215.05 149.95 211.30 164.29 206.95 176.90 C 203.85 184.58 198.98 192.98 190.58 195.57 C 182.40 197.97 174.43 191.04 172.58 183.38 C 169.55 171.02 170.77 157.61 176.00 146.00 C 179.26 138.80 184.80 132.12 192.45 129.45 M 185.33 150.31 C 181.30 160.10 179.92 171.49 183.35 181.66 C 184.99 186.81 192.12 191.10 196.65 186.69 C 203.86 179.32 206.24 168.65 207.61 158.75 C 208.37 150.95 208.65 141.75 202.81 135.69 C 194.78 136.62 188.42 143.15 185.33 150.31 Z" />
</g>
<g id="#00000034">
<path fill="#000000" opacity="0.20" d=" M 634.95 134.07 C 636.65 131.71 640.02 131.56 642.63 132.17 C 644.39 134.69 644.42 138.99 641.29 140.45 C 637.69 142.86 632.25 137.68 634.95 134.07 Z" />
</g>
</svg>
