<?xml version="1.0" encoding="UTF-8" ?>
<!DOCTYPE svg PUBLIC "-//W3C//DTD SVG 1.1//EN" "http://www.w3.org/Graphics/SVG/1.1/DTD/svg11.dtd">
<svg width="514pt" height="351pt" viewBox="0 0 514 351" version="1.1" xmlns="http://www.w3.org/2000/svg">
<g id="#00202e44">
<path fill="#00202e" opacity="0.27" d=" M 57.72 35.62 C 102.86 6.62 158.45 -0.16 211.02 2.52 C 252.15 6.11 294.67 15.44 328.36 40.63 C 358.39 65.37 379.92 100.44 387.68 138.62 C 391.76 156.32 394.16 174.73 392.03 192.87 C 389.05 242.51 365.23 292.09 324.25 321.30 C 300.15 339.05 270.14 349.96 239.99 348.50 C 220.42 348.92 200.11 347.96 181.91 340.10 C 174.48 337.68 176.88 326.80 169.56 324.50 C 151.28 318.20 131.78 317.35 112.85 314.19 C 104.40 312.39 96.97 307.72 89.60 303.45 C 51.09 280.58 22.86 242.39 9.06 200.07 C 4.54 182.86 0.22 165.42 0.00 147.53 L 0.00 142.49 C 0.81 100.32 22.56 59.11 57.72 35.62 M 106.38 15.21 C 101.04 16.52 95.65 18.01 91.03 21.12 C 59.23 32.42 30.56 55.06 16.13 86.05 C 1.93 110.16 0.19 139.64 3.00 166.92 C 7.09 188.65 11.86 211.14 24.14 229.88 C 39.24 259.30 62.26 285.29 90.96 302.02 C 101.69 310.81 115.78 313.89 129.31 314.89 C 143.45 317.08 158.01 318.30 171.41 323.62 C 177.99 326.00 175.67 335.41 181.70 338.32 C 190.89 343.00 201.28 344.29 211.38 345.60 C 227.12 348.03 243.16 347.60 258.99 346.20 C 264.09 345.79 269.17 344.86 273.93 342.92 C 318.97 331.50 357.00 297.59 374.75 254.82 C 382.41 241.61 385.41 226.32 388.52 211.54 C 393.64 178.19 390.74 143.39 378.16 111.95 C 374.53 102.98 370.89 93.76 364.75 86.16 C 353.63 67.55 339.04 50.29 320.91 38.15 C 315.64 32.54 308.32 29.74 301.61 26.29 C 272.47 12.09 240.02 6.84 208.02 3.89 C 173.86 2.54 139.20 5.20 106.38 15.21 Z" />
</g>
<g id="#00567cb5">
<path fill="#00567c" opacity="0.71" d=" M 106.38 15.21 C 139.20 5.20 173.86 2.54 208.02 3.89 C 240.02 6.84 272.47 12.09 301.61 26.29 C 308.32 29.74 315.64 32.54 320.91 38.15 C 289.65 19.26 253.61 9.10 217.28 6.79 C 174.76 1.31 131.73 8.79 91.03 21.12 C 95.65 18.01 101.04 16.52 106.38 15.21 Z" />
</g>
<g id="#0079afff">
<path fill="#0079af" opacity="1.00" d=" M 91.03 21.12 C 131.73 8.79 174.76 1.31 217.28 6.79 C 253.61 9.10 289.65 19.26 320.91 38.15 C 339.04 50.29 353.63 67.55 364.75 86.16 C 376.58 109.22 386.14 133.79 388.52 159.82 C 389.49 178.53 390.17 197.54 386.04 215.95 C 383.95 229.36 378.91 241.98 374.75 254.82 C 357.00 297.59 318.97 331.50 273.93 342.92 C 256.70 343.99 239.44 347.14 222.17 344.78 C 209.34 343.55 196.03 343.25 184.08 337.88 C 177.28 334.72 178.63 324.27 171.10 321.93 C 154.91 316.13 137.63 314.17 120.62 312.37 C 110.06 311.17 100.42 306.54 90.96 302.02 C 62.26 285.29 39.24 259.30 24.14 229.88 C 17.25 213.37 9.69 196.91 6.78 179.10 C -0.71 148.11 3.45 115.12 16.13 86.05 C 30.56 55.06 59.23 32.42 91.03 21.12 M 174.99 34.99 C 163.62 35.92 152.03 34.89 140.90 37.78 C 125.11 40.38 108.29 41.41 93.91 48.92 C 77.30 53.48 61.55 61.33 48.01 72.00 C 36.41 80.68 30.04 94.78 27.98 108.82 C 23.88 117.86 24.98 128.22 25.37 137.86 C 27.65 151.38 28.23 165.77 35.11 177.98 C 42.80 200.31 59.98 217.37 75.75 234.25 C 102.48 259.23 131.95 281.81 164.81 298.14 C 171.45 303.48 180.03 305.38 188.02 307.81 C 198.31 309.39 208.53 312.07 219.01 311.85 C 241.13 312.23 263.57 313.25 285.31 308.39 C 294.17 306.35 303.67 304.62 311.06 298.97 C 336.54 286.71 355.92 263.07 364.01 236.09 C 370.54 222.16 371.13 206.19 370.72 191.01 C 371.12 180.56 370.43 169.97 366.89 160.04 C 360.75 129.92 347.34 101.13 327.17 77.84 C 318.11 68.08 307.69 59.39 295.87 53.19 C 291.04 48.86 284.64 47.27 278.61 45.38 C 263.48 40.50 247.71 38.18 232.02 36.02 C 213.02 35.29 193.98 33.18 174.99 34.99 M 34.97 210.13 C 35.16 213.04 35.10 216.07 36.33 218.78 C 50.18 246.79 74.36 268.34 100.99 283.96 C 106.68 287.23 112.33 292.07 119.38 291.01 C 116.91 284.72 110.58 281.56 106.16 276.86 C 83.08 255.00 54.64 237.71 38.00 209.88 C 37.25 209.94 35.73 210.07 34.97 210.13 Z" />
<path fill="#0079af" opacity="1.00" d=" M 464.93 98.96 C 484.35 104.47 501.51 117.87 513.03 134.15 C 511.45 145.76 500.39 153.22 491.30 159.29 C 484.58 163.32 478.29 168.21 470.87 170.95 C 473.97 153.20 496.03 151.44 505.71 138.74 C 503.80 129.97 494.87 125.07 488.68 119.32 C 480.48 112.93 470.14 108.47 464.93 98.96 Z" />
<path fill="#0079af" opacity="1.00" d=" M 452.58 136.65 C 467.05 135.33 481.60 134.02 496.14 134.44 C 495.73 140.58 489.11 142.01 484.07 142.12 C 455.59 143.37 427.01 142.78 398.64 145.84 C 399.68 141.31 403.20 137.74 407.80 136.87 C 422.66 134.21 437.68 138.72 452.58 136.65 Z" />
</g>
<g id="#00577eb8">
<path fill="#00577e" opacity="0.72" d=" M 174.99 34.99 C 193.98 33.18 213.02 35.29 232.02 36.02 C 247.71 38.18 263.48 40.50 278.61 45.38 C 284.64 47.27 291.04 48.86 295.87 53.19 C 273.33 43.02 248.62 39.04 224.17 36.75 C 180.48 34.06 136.07 36.39 93.91 48.92 C 108.29 41.41 125.11 40.38 140.90 37.78 C 152.03 34.89 163.62 35.92 174.99 34.99 Z" />
</g>
<g id="#00334b6e">
<path fill="#00334b" opacity="0.43" d=" M 93.91 48.92 C 136.07 36.39 180.48 34.06 224.17 36.75 C 248.62 39.04 273.33 43.02 295.87 53.19 C 307.69 59.39 318.11 68.08 327.17 77.84 C 347.34 101.13 360.75 129.92 366.89 160.04 C 367.79 171.37 370.18 182.58 369.86 194.00 C 370.19 208.26 367.21 222.28 364.01 236.09 C 355.92 263.07 336.54 286.71 311.06 298.97 C 294.25 306.37 276.02 309.11 257.88 310.79 C 226.53 311.92 193.76 311.90 164.81 298.14 C 131.95 281.81 102.48 259.23 75.75 234.25 C 59.98 217.37 42.80 200.31 35.11 177.98 C 28.15 155.69 24.57 132.10 27.98 108.82 C 30.04 94.78 36.41 80.68 48.01 72.00 C 61.55 61.33 77.30 53.48 93.91 48.92 M 177.42 37.48 C 164.19 37.27 151.17 39.80 138.04 40.93 C 106.92 46.10 74.70 53.64 49.21 73.20 C 35.20 83.84 29.66 102.03 29.03 118.96 C 27.14 138.41 30.79 157.91 36.60 176.42 C 42.60 193.75 54.09 208.33 66.24 221.76 C 84.29 240.91 104.73 257.64 126.13 272.87 C 150.25 288.84 175.91 305.87 205.71 307.50 C 227.73 310.75 250.23 310.61 272.22 307.22 C 296.30 305.45 320.14 295.54 336.99 278.00 C 358.40 257.34 367.01 226.92 368.26 197.94 C 368.85 185.71 366.41 173.65 365.24 161.54 C 356.01 120.08 335.05 77.90 297.14 55.89 C 278.47 46.50 257.57 42.06 236.89 40.01 C 217.30 36.47 197.24 37.39 177.42 37.48 Z" />
</g>
<g id="#797978ff">
<path fill="#797978" opacity="1.00" d=" M 273.23 79.49 C 278.23 80.37 278.98 85.75 279.14 89.95 C 279.94 106.09 278.54 122.24 279.11 138.39 C 280.43 138.19 281.76 138.00 283.09 137.83 C 281.46 141.99 278.88 146.09 273.99 146.58 C 269.20 133.31 271.61 118.82 271.16 105.00 C 271.48 96.49 270.56 87.73 273.23 79.49 Z" />
<path fill="#797978" opacity="1.00" d=" M 117.33 101.59 C 115.42 94.36 121.78 86.98 129.01 86.72 C 136.37 86.09 142.76 92.12 144.40 98.99 C 140.69 97.60 137.27 94.84 133.15 94.98 C 130.39 95.10 126.74 97.41 128.01 100.60 C 131.23 103.59 135.52 105.20 138.58 108.41 C 145.72 115.69 148.93 127.27 144.90 136.88 C 141.76 144.79 130.56 148.99 123.60 143.39 C 118.38 139.78 117.18 133.08 117.60 127.15 C 118.62 126.75 119.65 126.35 120.67 125.95 C 121.18 130.30 120.48 135.67 124.09 138.89 C 129.00 142.31 137.23 138.97 138.07 132.93 C 139.15 125.32 135.98 116.91 129.29 112.79 C 124.83 109.72 118.74 107.42 117.33 101.59 Z" />
<path fill="#797978" opacity="1.00" d=" M 164.40 101.41 C 169.07 99.76 174.66 101.62 176.65 106.33 C 181.90 117.84 182.72 133.55 173.01 143.00 C 165.69 149.81 153.07 144.17 151.11 134.93 C 148.00 122.91 152.05 106.55 164.40 101.41 M 166.60 106.48 C 161.40 111.84 159.87 119.82 159.63 127.04 C 159.43 132.39 162.35 138.88 168.23 139.62 C 171.88 140.18 174.85 137.18 175.85 133.93 C 178.31 126.41 177.39 117.95 174.19 110.80 C 172.90 108.10 169.81 104.84 166.60 106.48 Z" />
<path fill="#797978" opacity="1.00" d=" M 196.55 102.52 C 202.83 98.31 215.52 101.89 213.39 110.99 C 209.87 108.85 205.51 104.19 201.24 107.21 C 195.12 114.02 193.92 124.06 195.19 132.82 C 195.45 136.40 199.33 140.42 202.93 138.02 C 205.56 135.32 207.13 131.70 210.17 129.34 C 210.54 137.16 204.72 146.53 196.12 145.96 C 187.97 144.71 184.59 135.40 185.16 128.09 C 185.87 118.79 187.99 107.82 196.55 102.52 Z" />
<path fill="#797978" opacity="1.00" d=" M 257.69 101.51 C 258.29 101.39 259.47 101.14 260.07 101.02 C 260.81 105.29 260.65 109.63 260.51 113.94 C 260.34 123.65 263.29 132.99 265.52 142.33 C 266.69 145.63 260.97 147.40 259.65 144.33 C 255.26 137.33 255.90 128.63 254.52 120.76 C 250.45 126.95 248.81 135.19 242.32 139.45 C 239.25 141.53 234.25 140.99 232.93 137.11 C 230.03 127.48 234.39 116.27 242.86 110.87 C 247.56 107.22 255.08 107.65 257.69 101.51 M 241.08 135.52 C 248.96 129.32 252.00 118.91 255.03 109.73 C 243.79 112.47 238.03 124.76 241.08 135.52 Z" />
<path fill="#797978" opacity="1.00" d=" M 219.23 111.16 C 219.22 109.14 221.43 108.60 222.76 107.58 C 226.28 114.40 225.00 122.18 225.57 129.54 C 225.98 135.16 226.60 140.80 226.06 146.44 C 223.51 145.72 220.82 144.45 220.59 141.45 C 218.95 131.49 218.03 121.23 219.23 111.16 Z" />
<path fill="#797978" opacity="1.00" d=" M 234.16 159.08 C 235.79 158.98 237.42 158.91 239.06 158.84 C 239.92 174.17 237.41 189.59 238.87 204.97 C 238.77 210.95 240.88 217.87 238.30 223.27 C 232.21 226.17 232.44 217.27 231.87 213.46 C 222.72 213.98 212.86 211.45 206.47 204.54 C 201.56 198.10 203.17 186.19 211.26 183.08 C 218.57 180.84 225.45 185.48 230.97 189.73 C 231.53 179.47 232.63 169.24 234.16 159.08 M 211.87 201.16 C 217.15 206.31 224.72 208.10 231.83 208.94 C 233.17 199.18 224.71 190.43 215.03 190.74 C 209.78 190.49 208.44 198.13 211.87 201.16 Z" />
<path fill="#797978" opacity="1.00" d=" M 142.19 187.91 C 149.36 180.37 153.58 169.73 162.84 164.45 C 166.31 172.61 163.99 181.54 163.76 190.04 C 162.86 200.13 164.59 210.31 163.34 220.36 C 162.94 224.05 158.64 223.12 156.04 223.36 C 152.71 209.65 156.40 195.58 155.75 181.70 C 151.27 185.82 148.62 192.24 143.00 194.88 C 135.70 190.88 132.01 182.53 125.30 177.62 C 125.03 193.02 125.55 208.91 120.93 223.77 C 120.18 223.80 118.68 223.87 117.93 223.90 C 115.86 213.71 117.66 203.32 117.56 193.03 C 117.96 184.11 117.42 174.98 119.96 166.32 C 128.33 172.41 135.30 180.24 142.19 187.91 Z" />
<path fill="#797978" opacity="1.00" d=" M 169.78 215.17 C 165.96 202.51 168.15 182.81 183.12 178.79 C 191.10 177.07 199.67 185.77 196.83 193.73 C 194.18 202.07 186.01 207.13 177.94 209.30 C 179.37 213.08 181.69 218.35 186.64 217.53 C 191.54 214.66 193.28 208.74 196.09 204.12 C 196.67 204.37 197.82 204.88 198.39 205.13 C 195.75 211.62 192.75 218.64 186.69 222.64 C 180.25 226.47 171.76 222.04 169.78 215.17 M 184.49 186.37 C 178.10 190.59 176.90 199.34 177.79 206.40 C 184.93 204.46 192.21 199.35 193.43 191.57 C 194.19 186.99 188.15 183.66 184.49 186.37 Z" />
<path fill="#797978" opacity="1.00" d=" M 284.69 179.50 C 285.29 179.38 286.47 179.15 287.07 179.03 C 287.58 192.41 287.69 205.95 292.22 218.80 C 294.66 222.50 288.76 226.11 286.65 222.33 C 282.27 215.33 282.90 206.63 281.52 198.76 C 277.45 204.95 275.80 213.18 269.32 217.45 C 266.25 219.53 261.25 218.99 259.93 215.10 C 257.03 205.48 261.39 194.27 269.86 188.87 C 274.56 185.22 282.08 185.65 284.69 179.50 M 268.08 213.51 C 275.96 207.32 279.01 196.90 282.03 187.73 C 270.80 190.48 265.03 202.75 268.08 213.51 Z" />
<path fill="#797978" opacity="1.00" d=" M 246.61 186.71 C 247.75 186.50 248.90 186.30 250.05 186.10 C 253.31 193.11 251.94 200.94 252.62 208.38 C 253.05 213.72 253.56 219.09 253.06 224.45 C 250.52 223.72 247.82 222.45 247.60 219.46 C 245.79 208.68 244.92 197.57 246.61 186.71 Z" />
</g>
<g id="#005479b1">
<path fill="#005479" opacity="0.69" d=" M 3.00 166.92 C 0.19 139.64 1.93 110.16 16.13 86.05 C 3.45 115.12 -0.71 148.11 6.78 179.10 C 9.69 196.91 17.25 213.37 24.14 229.88 C 11.86 211.14 7.09 188.65 3.00 166.92 Z" />
</g>
<g id="#00557cb5">
<path fill="#00557c" opacity="0.71" d=" M 364.75 86.16 C 370.89 93.76 374.53 102.98 378.16 111.95 C 390.74 143.39 393.64 178.19 388.52 211.54 C 385.41 226.32 382.41 241.61 374.75 254.82 C 378.91 241.98 383.95 229.36 386.04 215.95 C 390.17 197.54 389.49 178.53 388.52 159.82 C 386.14 133.79 376.58 109.22 364.75 86.16 Z" />
</g>
<g id="#00375076">
<path fill="#003750" opacity="0.46" d=" M 461.84 96.06 C 470.26 96.71 477.40 101.50 484.66 105.32 C 496.21 111.49 504.93 121.50 514.00 130.70 L 514.00 140.36 C 508.00 150.09 498.91 157.48 489.04 163.03 C 482.38 166.68 476.32 171.46 469.14 174.13 C 468.93 169.91 468.99 165.30 471.96 161.95 C 479.91 150.72 495.60 148.90 503.59 137.87 C 495.30 121.68 475.93 115.94 464.37 102.63 C 463.00 100.68 462.52 98.30 461.84 96.06 M 464.93 98.96 C 470.14 108.47 480.48 112.93 488.68 119.32 C 494.87 125.07 503.80 129.97 505.71 138.74 C 496.03 151.44 473.97 153.20 470.87 170.95 C 478.29 168.21 484.58 163.32 491.30 159.29 C 500.39 153.22 511.45 145.76 513.03 134.15 C 501.51 117.87 484.35 104.47 464.93 98.96 Z" />
</g>
<g id="#717171ef">
<path fill="#717171" opacity="0.94" d=" M 220.88 100.95 C 221.59 101.01 222.99 101.13 223.70 101.19 C 224.23 102.18 224.77 103.16 225.31 104.14 C 223.83 104.53 222.34 104.91 220.86 105.29 C 220.86 103.84 220.87 102.39 220.88 100.95 Z" />
<path fill="#717171" opacity="0.94" d=" M 247.89 178.95 C 248.59 179.01 250.00 179.13 250.70 179.19 C 251.23 180.18 251.77 181.16 252.31 182.15 C 250.82 182.53 249.34 182.91 247.86 183.28 C 247.86 181.84 247.87 180.40 247.89 178.95 Z" />
</g>
<g id="#00577fb9">
<path fill="#00577f" opacity="0.73" d=" M 25.37 137.86 C 24.98 128.22 23.88 117.86 27.98 108.82 C 24.57 132.10 28.15 155.69 35.11 177.98 C 28.23 165.77 27.65 151.38 25.37 137.86 Z" />
</g>
<g id="#0023324a">
<path fill="#002332" opacity="0.29" d=" M 479.01 131.14 C 484.67 130.95 490.84 129.20 496.19 131.72 C 500.30 135.38 497.01 143.08 491.80 143.81 C 481.08 145.72 470.10 144.62 459.28 145.33 C 438.20 147.82 416.89 148.01 395.72 148.04 C 395.11 138.88 404.50 132.49 412.94 133.04 C 434.98 133.21 457.09 133.91 479.01 131.14 M 439.97 135.23 C 430.18 134.66 420.32 133.34 410.54 134.65 C 403.99 135.54 397.64 140.04 396.56 146.90 C 414.95 146.50 433.33 145.37 451.72 144.54 C 464.96 143.26 478.43 144.94 491.56 142.48 C 495.89 141.99 499.42 134.43 494.52 132.51 C 476.31 131.97 458.19 135.41 439.97 135.23 Z" />
</g>
<g id="#004c6fa2">
<path fill="#004c6f" opacity="0.64" d=" M 439.97 135.23 C 458.19 135.41 476.31 131.97 494.52 132.51 C 499.42 134.43 495.89 141.99 491.56 142.48 C 478.43 144.94 464.96 143.26 451.72 144.54 C 433.33 145.37 414.95 146.50 396.56 146.90 C 397.64 140.04 403.99 135.54 410.54 134.65 C 420.32 133.34 430.18 134.66 439.97 135.23 M 452.58 136.65 C 437.68 138.72 422.66 134.21 407.80 136.87 C 403.20 137.74 399.68 141.31 398.64 145.84 C 427.01 142.78 455.59 143.37 484.07 142.12 C 489.11 142.01 495.73 140.58 496.14 134.44 C 481.60 134.02 467.05 135.33 452.58 136.65 Z" />
</g>
<g id="#005a83bf">
<path fill="#005a83" opacity="0.75" d=" M 366.89 160.04 C 370.43 169.97 371.12 180.56 370.72 191.01 C 371.13 206.19 370.54 222.16 364.01 236.09 C 367.21 222.28 370.19 208.26 369.86 194.00 C 370.18 182.58 367.79 171.37 366.89 160.04 Z" />
</g>
<g id="#003c577f">
<path fill="#003c57" opacity="0.50" d=" M 34.97 210.13 C 35.73 210.07 37.25 209.94 38.00 209.88 C 54.64 237.71 83.08 255.00 106.16 276.86 C 110.58 281.56 116.91 284.72 119.38 291.01 C 112.33 292.07 106.68 287.23 100.99 283.96 C 74.36 268.34 50.18 246.79 36.33 218.78 C 35.10 216.07 35.16 213.04 34.97 210.13 M 36.89 213.08 C 39.21 223.32 45.88 231.80 51.80 240.23 C 67.14 258.76 86.13 274.16 107.19 285.76 C 109.36 286.85 111.73 287.45 114.08 288.04 C 111.63 283.30 107.36 280.02 103.39 276.63 C 87.45 261.48 69.26 248.88 53.70 233.31 C 47.60 226.98 43.05 219.35 36.89 213.08 Z" />
</g>
<g id="#00587fb9">
<path fill="#00587f" opacity="0.73" d=" M 164.81 298.14 C 193.76 311.90 226.53 311.92 257.88 310.79 C 276.02 309.11 294.25 306.37 311.06 298.97 C 303.67 304.62 294.17 306.35 285.31 308.39 C 263.57 313.25 241.13 312.23 219.01 311.85 C 208.53 312.07 198.31 309.39 188.02 307.81 C 180.03 305.38 171.45 303.48 164.81 298.14 Z" />
</g>
<g id="#00557bb4">
<path fill="#00557b" opacity="0.71" d=" M 90.96 302.02 C 100.42 306.54 110.06 311.17 120.62 312.37 C 137.63 314.17 154.91 316.13 171.10 321.93 C 178.63 324.27 177.28 334.72 184.08 337.88 C 196.03 343.25 209.34 343.55 222.17 344.78 C 239.44 347.14 256.70 343.99 273.93 342.92 C 269.17 344.86 264.09 345.79 258.99 346.20 C 243.16 347.60 227.12 348.03 211.38 345.60 C 201.28 344.29 190.89 343.00 181.70 338.32 C 175.67 335.41 177.99 326.00 171.41 323.62 C 158.01 318.30 143.45 317.08 129.31 314.89 C 115.78 313.89 101.69 310.81 90.96 302.02 Z" />
</g>
</svg>
