<?xml version="1.0" encoding="UTF-8" ?>
<!DOCTYPE svg PUBLIC "-//W3C//DTD SVG 1.1//EN" "http://www.w3.org/Graphics/SVG/1.1/DTD/svg11.dtd">
<svg width="514pt" height="351pt" viewBox="0 0 514 351" version="1.1" xmlns="http://www.w3.org/2000/svg">
<g id="#0000007a">
<path fill="#000000" opacity="0.48" d=" M 60.97 33.96 C 101.77 9.07 150.84 1.28 197.99 2.65 C 213.44 2.17 228.68 5.10 243.92 7.13 C 276.40 13.24 309.52 24.00 334.55 46.45 C 360.93 70.91 380.40 103.38 387.34 138.85 C 399.64 189.65 388.49 245.51 357.79 287.81 C 333.41 320.41 295.95 344.01 255.05 347.92 C 230.28 348.73 203.99 349.43 180.91 339.09 C 174.75 336.05 176.91 326.17 169.83 324.20 C 151.57 317.75 132.00 317.13 113.07 313.83 C 102.28 311.37 92.90 305.12 83.58 299.42 C 47.01 275.06 20.15 236.96 8.00 194.88 C 3.91 179.07 0.78 163.05 0.00 146.70 L 0.00 144.31 C 1.34 134.06 1.62 123.64 4.32 113.61 C 11.77 80.97 32.68 51.79 60.97 33.96 M 185.46 4.45 C 166.72 4.97 147.98 6.88 129.58 10.57 C 98.94 16.51 68.29 27.64 44.64 48.64 C 14.92 74.99 0.06 115.69 3.05 155.02 C 6.97 215.75 42.13 274.52 95.53 304.47 C 106.84 311.12 120.05 313.42 132.99 314.21 C 145.92 316.20 159.11 317.86 171.40 322.57 C 178.79 324.94 176.65 335.50 183.61 338.30 C 197.58 344.23 213.06 344.54 227.96 345.94 C 242.49 346.67 257.07 345.49 271.43 343.32 C 288.64 338.42 305.74 331.92 320.28 321.27 C 361.16 294.08 384.75 246.08 389.22 197.99 C 389.92 181.57 390.37 164.90 387.42 148.67 C 380.83 108.96 360.73 71.26 329.93 45.08 C 303.33 23.29 269.31 13.43 235.89 8.10 C 219.15 6.14 202.36 4.18 185.46 4.45 Z" />
</g>
<g id="#000000ff">
<path fill="#000000" opacity="1.00" d=" M 185.46 4.45 C 202.36 4.18 219.15 6.14 235.89 8.10 C 269.31 13.43 303.33 23.29 329.93 45.08 C 360.73 71.26 380.83 108.96 387.42 148.67 C 390.37 164.90 389.92 181.57 389.22 197.99 C 384.75 246.08 361.16 294.08 320.28 321.27 C 305.74 331.92 288.64 338.42 271.43 343.32 C 257.07 345.49 242.49 346.67 227.96 345.94 C 213.06 344.54 197.58 344.23 183.61 338.30 C 176.65 335.50 178.79 324.94 171.40 322.57 C 159.11 317.86 145.92 316.20 132.99 314.21 C 120.05 313.42 106.84 311.12 95.53 304.47 C 42.13 274.52 6.97 215.75 3.05 155.02 C 0.06 115.69 14.92 74.99 44.64 48.64 C 68.29 27.64 98.94 16.51 129.58 10.57 C 147.98 6.88 166.72 4.97 185.46 4.45 M 171.51 35.51 C 161.72 35.97 151.85 36.08 142.21 38.07 C 108.55 42.46 73.78 51.20 46.77 72.79 C 29.81 86.41 26.23 109.57 25.60 130.01 C 27.11 153.10 31.34 177.04 44.22 196.73 C 51.00 208.54 60.93 218.02 69.78 228.23 C 86.95 246.28 106.68 261.72 127.12 275.89 C 139.49 284.98 152.90 292.57 166.67 299.31 C 193.63 313.88 225.34 312.22 254.99 311.67 C 287.19 311.70 320.93 300.33 342.20 275.22 C 358.82 257.18 367.10 233.01 370.00 209.01 C 373.30 166.68 361.10 123.25 336.03 88.94 C 327.73 76.80 316.79 66.62 304.75 58.26 C 283.94 44.13 258.39 40.45 234.06 36.83 C 213.28 35.10 192.35 34.31 171.51 35.51 M 35.16 210.41 C 35.18 213.22 35.01 216.18 36.28 218.79 C 50.46 247.17 75.10 269.02 102.24 284.73 C 107.51 287.78 112.84 292.03 119.34 291.02 C 116.53 284.41 109.86 280.92 105.12 275.87 C 82.27 254.48 54.37 237.29 38.02 209.88 C 37.30 210.02 35.87 210.28 35.16 210.41 Z" />
<path fill="#000000" opacity="1.00" d=" M 464.93 98.96 C 480.52 103.25 494.40 112.87 505.30 124.70 C 508.68 128.40 515.13 132.46 512.30 138.27 C 508.12 147.52 499.69 154.00 491.31 159.29 C 484.57 163.30 478.30 168.23 470.87 170.94 C 473.96 153.19 496.04 151.47 505.70 138.74 C 503.80 129.98 494.88 125.05 488.67 119.32 C 480.49 112.92 470.13 108.47 464.93 98.96 Z" />
<path fill="#000000" opacity="1.00" d=" M 444.02 137.25 C 461.35 136.12 478.69 133.84 496.09 134.43 C 495.85 140.62 489.06 141.96 484.08 142.05 C 455.62 143.52 427.03 142.67 398.68 145.85 C 399.64 140.96 403.76 137.49 408.58 136.72 C 420.35 134.91 432.23 137.10 444.02 137.25 Z" />
</g>
<g id="#00000084">
<path fill="#000000" opacity="0.52" d=" M 171.51 35.51 C 192.35 34.31 213.28 35.10 234.06 36.83 C 258.39 40.45 283.94 44.13 304.75 58.26 C 316.79 66.62 327.73 76.80 336.03 88.94 C 361.10 123.25 373.30 166.68 370.00 209.01 C 367.10 233.01 358.82 257.18 342.20 275.22 C 320.93 300.33 287.19 311.70 254.99 311.67 C 225.34 312.22 193.63 313.88 166.67 299.31 C 152.90 292.57 139.49 284.98 127.12 275.89 C 106.68 261.72 86.95 246.28 69.78 228.23 C 60.93 218.02 51.00 208.54 44.22 196.73 C 31.34 177.04 27.11 153.10 25.60 130.01 C 26.23 109.57 29.81 86.41 46.77 72.79 C 73.78 51.20 108.55 42.46 142.21 38.07 C 151.85 36.08 161.72 35.97 171.51 35.51 M 176.41 37.41 C 141.11 38.99 105.30 44.46 72.79 58.86 C 57.04 66.48 40.08 76.38 33.91 93.81 C 25.30 118.16 27.57 145.10 34.41 169.60 C 41.82 197.95 63.17 219.59 83.76 239.23 C 106.44 259.42 130.85 277.88 157.54 292.46 C 171.59 300.09 186.83 306.21 202.92 307.39 C 231.46 311.71 260.68 310.25 288.95 304.81 C 320.21 297.89 347.52 274.82 358.91 244.80 C 370.37 216.20 370.52 184.19 363.73 154.47 C 354.45 117.94 335.74 81.75 303.92 60.07 C 293.30 52.25 280.44 48.57 267.89 45.14 C 237.99 37.90 207.07 36.40 176.41 37.41 Z" />
</g>
<g id="#32c5d2ff">
<path fill="#32c5d2" opacity="1.00" d=" M 283.04 68.33 C 288.20 69.74 289.01 75.42 289.22 79.97 C 289.97 98.51 288.66 117.06 289.16 135.60 C 290.58 135.14 292.01 134.68 293.45 134.24 C 292.20 139.29 289.06 144.59 283.12 144.27 C 278.15 129.09 280.64 112.72 280.19 97.01 C 280.89 87.47 278.81 77.26 283.04 68.33 Z" />
<path fill="#32c5d2" opacity="1.00" d=" M 104.34 93.60 C 101.94 84.80 110.31 76.19 118.99 76.59 C 126.85 76.65 133.11 83.28 135.24 90.43 C 130.31 89.15 125.84 84.61 120.46 86.39 C 117.93 87.05 115.09 89.62 116.38 92.46 C 119.88 95.82 124.75 97.35 128.13 100.87 C 136.41 109.20 140.38 122.54 135.66 133.65 C 132.32 142.09 120.97 146.85 112.95 142.06 C 105.90 138.20 103.61 129.53 104.82 122.03 C 105.65 121.96 107.32 121.82 108.15 121.75 C 108.57 126.59 108.03 132.49 112.08 136.01 C 118.01 140.11 127.94 135.39 128.00 127.99 C 128.61 120.13 125.65 111.61 118.99 107.01 C 113.72 103.09 106.07 100.74 104.34 93.60 Z" />
<path fill="#32c5d2" opacity="1.00" d=" M 158.41 93.28 C 163.94 90.97 170.35 94.01 172.56 99.45 C 177.98 112.06 179.02 128.48 169.39 139.40 C 163.37 146.81 150.79 144.63 145.96 137.00 C 140.58 128.86 141.35 118.25 144.39 109.39 C 146.79 102.59 151.25 95.67 158.41 93.28 M 162.28 98.41 C 157.98 100.41 156.39 105.67 154.88 109.86 C 152.83 117.45 151.12 126.81 156.57 133.41 C 159.76 137.61 167.40 138.04 170.02 133.02 C 174.43 124.89 173.29 114.91 170.54 106.42 C 169.20 102.84 166.61 98.40 162.28 98.41 Z" />
<path fill="#32c5d2" opacity="1.00" d=" M 182.58 113.59 C 184.44 104.78 189.24 94.50 199.10 92.84 C 205.79 91.37 215.74 96.17 213.18 104.23 C 209.22 101.83 204.72 96.54 199.76 99.64 C 192.60 107.25 191.28 118.67 192.49 128.64 C 192.71 132.75 196.67 137.43 201.03 135.18 C 204.65 132.46 205.92 127.69 209.13 124.53 C 210.67 131.09 206.74 137.80 201.69 141.74 C 197.23 145.25 190.40 144.60 186.64 140.38 C 179.67 133.40 180.60 122.44 182.58 113.59 Z" />
<path fill="#32c5d2" opacity="1.00" d=" M 222.18 92.98 C 223.32 93.05 224.47 93.11 225.62 93.16 C 226.13 94.25 226.61 95.34 227.08 96.45 C 225.35 97.04 223.50 97.13 221.75 97.61 C 221.88 96.06 222.03 94.52 222.18 92.98 Z" />
<path fill="#32c5d2" opacity="1.00" d=" M 261.12 98.26 C 262.33 95.97 263.83 93.83 265.90 92.23 C 268.98 97.34 267.17 103.39 267.48 108.98 C 267.44 119.62 270.74 129.81 273.10 140.05 C 274.25 144.01 267.53 145.38 266.18 141.82 C 261.50 133.66 262.01 123.88 260.57 114.85 C 256.56 121.70 254.47 129.94 248.43 135.40 C 244.97 138.73 237.88 139.24 236.08 133.91 C 233.08 124.03 236.82 112.36 244.94 105.93 C 249.49 101.85 255.42 100.05 261.12 98.26 M 245.76 132.05 C 254.08 124.60 257.94 113.22 261.14 102.79 C 248.64 105.83 241.25 120.09 245.76 132.05 Z" />
<path fill="#32c5d2" opacity="1.00" d=" M 220.47 104.38 C 220.43 102.27 222.44 101.39 223.90 100.34 C 228.53 106.61 226.98 114.68 227.41 121.94 C 227.48 129.46 229.30 136.98 228.03 144.48 C 225.14 143.85 222.31 142.22 222.00 138.97 C 220.12 127.59 219.41 115.89 220.47 104.38 Z" />
<path fill="#32c5d2" opacity="1.00" d=" M 236.96 160.16 C 237.04 157.52 240.32 158.07 242.09 157.29 C 244.55 164.03 242.53 171.15 242.49 178.08 C 242.19 191.37 241.97 204.69 243.05 217.95 C 243.21 222.15 243.82 226.49 242.65 230.59 C 240.98 232.67 238.33 231.38 236.21 230.97 C 235.77 227.38 235.39 223.78 234.97 220.19 C 225.38 220.73 215.50 218.14 207.99 212.02 C 199.29 205.05 201.59 187.50 213.12 184.94 C 220.92 183.66 227.71 188.71 233.73 192.93 C 234.27 181.96 235.44 171.02 236.96 160.16 M 213.54 194.49 C 209.00 196.17 208.62 203.03 211.98 206.10 C 217.89 211.85 226.34 213.79 234.24 215.02 C 236.92 203.17 224.89 192.57 213.54 194.49 Z" />
<path fill="#32c5d2" opacity="1.00" d=" M 132.62 190.88 C 140.65 182.36 145.43 170.26 155.88 164.41 C 159.11 170.70 158.18 177.85 157.61 184.61 C 155.87 198.90 157.82 213.32 156.63 227.61 C 156.30 231.96 151.31 231.38 148.20 231.11 C 144.40 215.56 148.66 199.55 147.99 183.79 C 143.33 188.26 140.27 194.23 135.19 198.26 C 132.93 200.06 130.59 197.47 129.02 195.98 C 123.76 190.26 118.96 184.09 113.15 178.89 C 113.70 193.57 112.77 208.27 110.92 222.84 C 110.49 226.03 109.32 229.03 108.02 231.96 C 107.27 231.93 105.75 231.87 105.00 231.85 C 102.67 220.02 104.80 207.92 104.49 195.98 C 104.94 186.15 104.41 176.07 107.06 166.51 C 116.84 173.07 124.35 182.55 132.62 190.88 Z" />
<path fill="#32c5d2" opacity="1.00" d=" M 180.39 180.48 C 188.93 179.75 197.50 188.93 194.53 197.44 C 191.54 206.92 182.35 213.08 173.00 215.19 C 174.48 219.51 177.12 225.35 182.65 224.66 C 188.28 221.81 190.21 215.09 193.20 209.95 C 193.96 209.95 195.49 209.94 196.26 209.94 C 193.81 217.39 190.16 224.91 183.91 229.89 C 177.55 234.52 167.79 231.30 164.74 224.22 C 160.41 214.71 161.15 203.33 164.74 193.69 C 167.18 187.00 172.97 180.98 180.39 180.48 M 180.40 189.38 C 173.25 194.30 172.33 204.08 172.93 212.04 C 181.15 209.93 189.79 203.85 190.72 194.80 C 191.45 189.45 184.42 186.39 180.40 189.38 Z" />
<path fill="#32c5d2" opacity="1.00" d=" M 253.18 180.98 C 254.32 181.05 255.47 181.11 256.62 181.17 C 257.13 182.25 257.61 183.35 258.08 184.45 C 256.35 185.04 254.50 185.13 252.75 185.61 C 252.88 184.07 253.03 182.52 253.18 180.98 Z" />
<path fill="#32c5d2" opacity="1.00" d=" M 284.71 188.80 C 290.11 188.00 293.68 184.33 296.86 180.20 C 300.02 185.30 298.16 191.38 298.48 196.98 C 298.44 207.62 301.75 217.81 304.10 228.06 C 305.24 232.02 298.54 233.36 297.18 229.82 C 292.49 221.66 293.01 211.87 291.57 202.85 C 287.55 209.69 285.48 217.95 279.43 223.41 C 275.97 226.73 268.89 227.24 267.08 221.92 C 262.86 208.46 271.54 193.23 284.71 188.80 M 276.76 220.05 C 285.08 212.59 288.95 201.22 292.14 190.78 C 279.65 193.83 272.25 208.08 276.76 220.05 Z" />
<path fill="#32c5d2" opacity="1.00" d=" M 251.47 192.38 C 251.43 190.27 253.44 189.39 254.89 188.34 C 259.53 194.61 257.98 202.68 258.41 209.94 C 258.48 217.46 260.30 224.98 259.03 232.48 C 256.14 231.85 253.31 230.21 253.00 226.97 C 251.12 215.58 250.41 203.89 251.47 192.38 Z" />
</g>
<g id="#00000076">
<path fill="#000000" opacity="0.46" d=" M 461.87 96.08 C 470.29 96.67 477.41 101.51 484.67 105.31 C 496.22 111.47 504.94 121.48 514.00 130.68 L 514.00 140.38 C 503.75 156.68 485.68 165.58 469.14 174.10 C 468.91 169.89 468.99 165.28 471.95 161.94 C 479.88 150.72 495.58 148.89 503.53 137.86 C 495.28 121.69 475.89 115.94 464.35 102.64 C 462.95 100.72 462.54 98.31 461.87 96.08 M 464.93 98.96 C 470.13 108.47 480.49 112.92 488.67 119.32 C 494.88 125.05 503.80 129.98 505.70 138.74 C 496.04 151.47 473.96 153.19 470.87 170.94 C 478.30 168.23 484.57 163.30 491.31 159.29 C 499.69 154.00 508.12 147.52 512.30 138.27 C 515.13 132.46 508.68 128.40 505.30 124.70 C 494.40 112.87 480.52 103.25 464.93 98.96 Z" />
</g>
<g id="#0000004a">
<path fill="#000000" opacity="0.29" d=" M 479.01 131.13 C 484.68 130.96 490.85 129.17 496.22 131.67 C 500.39 135.32 497.06 143.18 491.78 143.84 C 481.36 145.72 470.69 144.60 460.17 145.27 C 438.80 147.79 417.21 148.06 395.75 148.03 C 394.99 138.82 404.52 132.50 412.94 132.95 C 434.97 133.13 457.08 133.90 479.01 131.13 M 441.99 135.27 C 431.00 134.96 419.87 132.76 408.94 134.95 C 402.98 136.19 397.56 140.57 396.61 146.82 C 414.69 146.72 432.76 145.28 450.84 144.60 C 464.62 143.09 478.72 145.34 492.32 142.22 C 496.65 141.38 499.43 133.05 493.69 132.39 C 476.43 132.26 459.26 135.02 441.99 135.27 Z" />
</g>
<g id="#000000a2">
<path fill="#000000" opacity="0.64" d=" M 441.99 135.27 C 459.26 135.02 476.43 132.26 493.69 132.39 C 499.43 133.05 496.65 141.38 492.32 142.22 C 478.72 145.34 464.62 143.09 450.84 144.60 C 432.76 145.28 414.69 146.72 396.61 146.82 C 397.56 140.57 402.98 136.19 408.94 134.95 C 419.87 132.76 431.00 134.96 441.99 135.27 M 444.02 137.25 C 432.23 137.10 420.35 134.91 408.58 136.72 C 403.76 137.49 399.64 140.96 398.68 145.85 C 427.03 142.67 455.62 143.52 484.08 142.05 C 489.06 141.96 495.85 140.62 496.09 134.43 C 478.69 133.84 461.35 136.12 444.02 137.25 Z" />
</g>
<g id="#0000007f">
<path fill="#000000" opacity="0.50" d=" M 35.16 210.41 C 35.87 210.28 37.30 210.02 38.02 209.88 C 54.37 237.29 82.27 254.48 105.12 275.87 C 109.86 280.92 116.53 284.41 119.34 291.02 C 112.84 292.03 107.51 287.78 102.24 284.73 C 75.10 269.02 50.46 247.17 36.28 218.79 C 35.01 216.18 35.18 213.22 35.16 210.41 M 36.88 213.08 C 39.05 222.88 45.38 230.97 50.93 239.09 C 63.75 254.95 79.28 268.59 96.59 279.38 C 102.23 282.62 107.48 286.94 114.07 288.06 C 111.87 283.74 108.14 280.60 104.47 277.57 C 88.61 262.67 70.80 249.99 55.16 234.84 C 48.39 228.16 43.50 219.89 36.88 213.08 Z" />
</g>
</svg>
